<svg viewBox="0 0 13.75 13.75" xmlns="http://www.w3.org/2000/svg" xmlns:xlink="http://www.w3.org/1999/xlink" width="13.750000" height="13.750000" fill="none" customFrame="#000000">
	<path id="Vector 431 (Stroke)" d="M3.75 4.09782e-07L13.125 0C13.2908 0 13.4497 0.065848 13.5669 0.183058C13.6842 0.300268 13.75 0.45924 13.75 0.625L13.75 10C13.75 10.3452 13.4702 10.625 13.125 10.625C12.7798 10.625 12.5 10.3452 12.5 10L12.5 2.13388L1.06694 13.5669C0.822864 13.811 0.427136 13.811 0.183058 13.5669C-0.0610194 13.3229 -0.0610194 12.9271 0.183058 12.6831L11.6161 1.25L3.75 1.25C3.40482 1.25 3.125 0.970178 3.125 0.625C3.125 0.279822 3.40482 4.09782e-07 3.75 4.09782e-07Z" fill="rgb(255,255,255)" fill-rule="evenodd" />
</svg>
