<svg viewBox="0 0 48 48" xmlns="http://www.w3.org/2000/svg" xmlns:xlink="http://www.w3.org/1999/xlink" width="48.000000" height="48.000000" fill="none" clip-path="url(#clipPath_0)" customFrame="url(#clipPath_0)">
	<defs>
		<linearGradient id="paint_linear_0" x1="0" x2="47.9999962" y1="0" y2="47.9999962" gradientUnits="userSpaceOnUse">
			<stop stop-color="rgb(250,228,223)" offset="0" stop-opacity="0.400000006" />
			<stop stop-color="rgb(248,212,204)" offset="1" stop-opacity="1" />
		</linearGradient>
		<linearGradient id="paint_linear_1" x1="0" x2="52.3019905" y1="0" y2="5.26507902" gradientUnits="userSpaceOnUse">
			<stop stop-color="rgb(250,228,223)" offset="0" stop-opacity="0.600000024" />
			<stop stop-color="rgb(248,212,204)" offset="1" stop-opacity="1" />
		</linearGradient>
		<clipPath id="clipPath_0">
			<rect width="48.000000" height="48.000000" x="0.000000" y="0.000000" rx="10.000000" fill="rgb(255,255,255)" />
		</clipPath>
	</defs>
	<rect id="icon/big/lock-open" width="48.000000" height="48.000000" x="0.000000" y="0.000000" rx="10.000000" fill="url(#paint_linear_0)" />
	<path id="Vector" d="M25.75 22.25C26.9926 22.25 28 23.2574 28 24.5L28 31.25C28 32.4926 26.9926 33.5 25.75 33.5L15.25 33.5C14.0074 33.5 13 32.4926 13 31.25L13 24.5C13 23.2574 14.0074 22.25 15.25 22.25L25.75 22.25ZM34 22.25L34 18.5C34 16.0147 31.9853 14 29.5 14C27.0147 14 25 16.0147 25 18.5L25 22.25" fill-rule="nonzero" stroke="rgb(56,63,69)" stroke-linecap="round" stroke-linejoin="round" stroke-width="1.500000" />
	<rect id="icon/big/lock-open" width="47.000000" height="47.000000" x="0.500000" y="0.500000" rx="9.500000" stroke="url(#paint_linear_1)" stroke-width="1.000000" />
</svg>
