<svg viewBox="0 0 46 40" xmlns="http://www.w3.org/2000/svg" xmlns:xlink="http://www.w3.org/1999/xlink" width="46.000000" height="40.000000" fill="none" customFrame="#000000">
	<path id="Vector" d="M22.3033 0.16316L0.861158 10.799C-0.287053 11.3686 -0.287052 12.9941 0.861159 13.5637L22.3033 24.1995C22.7419 24.4171 23.2581 24.4171 23.6967 24.1995L42.8781 14.6851L42.8781 22.9998C42.8781 23.8533 43.5756 24.5453 44.4359 24.5453C45.2963 24.5453 45.9937 23.8533 45.9938 22.9998L45.9938 12.3212C46.0468 11.7278 45.7618 11.108 45.1388 10.799L23.6967 0.163159C23.2581 -0.0543867 22.7419 -0.0543864 22.3033 0.16316ZM38.5784 30.7272C38.5784 30.7272 38.5784 40 22.9999 40C7.42137 40 7.42137 30.7272 7.42137 30.7272L7.42137 21.1592C7.42137 20.5847 8.03074 20.2111 8.54865 20.468L21.6063 26.945C22.4835 27.3801 23.5163 27.3801 24.3934 26.945L37.4511 20.468C37.969 20.2111 38.5784 20.5847 38.5784 21.1592L38.5784 30.7272Z" fill="rgb(51,54,63)" fill-rule="evenodd" />
</svg>
