<svg viewBox="0 0 48 48" xmlns="http://www.w3.org/2000/svg" xmlns:xlink="http://www.w3.org/1999/xlink" width="48.000000" height="48.000000" fill="none" clip-path="url(#clipPath_4)" customFrame="url(#clipPath_4)">
	<defs>
		<linearGradient id="paint_linear_8" x1="0" x2="47.9999962" y1="0" y2="47.9999962" gradientUnits="userSpaceOnUse">
			<stop stop-color="rgb(250,228,223)" offset="0" stop-opacity="0.400000006" />
			<stop stop-color="rgb(248,212,204)" offset="1" stop-opacity="1" />
		</linearGradient>
		<linearGradient id="paint_linear_9" x1="0" x2="52.3019905" y1="0" y2="5.26507902" gradientUnits="userSpaceOnUse">
			<stop stop-color="rgb(250,228,223)" offset="0" stop-opacity="0.600000024" />
			<stop stop-color="rgb(248,212,204)" offset="1" stop-opacity="1" />
		</linearGradient>
		<clipPath id="clipPath_4">
			<rect width="48.000000" height="48.000000" x="0.000000" y="0.000000" rx="10.000000" fill="rgb(255,255,255)" />
		</clipPath>
		<clipPath id="clipPath_5">
			<rect width="24.000000" height="24.000000" x="12.000000" y="12.000000" fill="rgb(255,255,255)" />
		</clipPath>
	</defs>
	<rect id="icon/big/instagram" width="48.000000" height="48.000000" x="0.000000" y="0.000000" rx="10.000000" fill="url(#paint_linear_8)" />
	<g id="icon/instagram" clip-path="url(#clipPath_5)" customFrame="url(#clipPath_5)">
		<rect id="icon/instagram" width="24.000000" height="24.000000" x="12.000000" y="12.000000" fill="rgb(255,255,255)" fill-opacity="0" />
		<path id="Vector" d="M19.8789 14.0586C20.9453 14.0117 21.2852 14 24 14C26.7148 14 27.0547 14.0117 28.125 14.0625C29.1875 14.1094 29.9141 14.2812 30.5508 14.5273C31.207 14.7812 31.7656 15.125 32.3203 15.6797C32.8789 16.2344 33.2188 16.793 33.4648 17.457C33.7109 18.0898 33.8828 18.8203 33.9297 19.8828C33.9766 20.9492 33.9883 21.2891 33.9883 24.0039C33.9883 26.7188 33.9766 27.0586 33.9297 28.125C33.8828 29.1875 33.7109 29.9141 33.4648 30.5508C33.2109 31.207 32.8672 31.7656 32.3125 32.3203C31.7578 32.875 31.1992 33.2188 30.543 33.4727C29.9102 33.7188 29.1797 33.8906 28.1172 33.9375C27.0508 33.9844 26.7109 33.9961 23.9961 33.9961C21.2812 33.9961 20.9414 33.9844 19.875 33.9375C18.8125 33.8906 18.0859 33.7188 17.4492 33.4727C16.793 33.2188 16.2344 32.875 15.6797 32.3203C15.1211 31.7656 14.7812 31.207 14.5234 30.5469C14.2773 29.9141 14.1055 29.1836 14.0586 28.1211C14.0117 27.0547 14 26.7148 14 24C14 21.2852 14.0117 20.9453 14.0586 19.875C14.1055 18.8125 14.2773 18.0859 14.5234 17.4492C14.7812 16.793 15.1211 16.2344 15.6797 15.6797C16.2344 15.1211 16.793 14.7812 17.4531 14.5234C18.0859 14.2773 18.8164 14.1055 19.8789 14.0586ZM28.0391 15.8594C26.9883 15.8125 26.6719 15.8008 24 15.8008C21.3281 15.8008 21.0117 15.8125 19.9609 15.8594C18.9883 15.9023 18.457 16.0664 18.1055 16.2031C17.6406 16.3828 17.3086 16.5977 16.957 16.9492C16.6094 17.2969 16.3906 17.6328 16.2109 18.0977C16.0742 18.4492 15.9102 18.9766 15.8672 19.9531C15.8203 21.0039 15.8086 21.3203 15.8086 23.9922C15.8086 26.6602 15.8203 26.9766 15.8672 28.0312C15.9102 29.0039 16.0742 29.5352 16.2109 29.8867C16.3906 30.3516 16.6055 30.6836 16.957 31.0352C17.3047 31.3828 17.6406 31.6016 18.1055 31.7812C18.457 31.918 18.9844 32.082 19.9609 32.125C21.0117 32.1719 21.3281 32.1836 24 32.1836C26.668 32.1836 26.9844 32.1719 28.0391 32.125C29.0117 32.082 29.543 31.918 29.8945 31.7812C30.3594 31.6016 30.6914 31.3867 31.043 31.0352C31.3906 30.6875 31.6094 30.3516 31.7891 29.8867C31.9258 29.5352 32.0898 29.0078 32.1328 28.0312C32.1797 26.9805 32.1914 26.6641 32.1914 23.9922C32.1914 21.3242 32.1797 21.0078 32.1328 19.9531C32.0898 18.9805 31.9258 18.4492 31.7891 18.0977C31.6094 17.6328 31.3945 17.3008 31.043 16.9492C30.6953 16.6016 30.3594 16.3828 29.8945 16.2031C29.543 16.0664 29.0156 15.9023 28.0391 15.8594ZM29.3398 19.8593C30 19.8593 30.5391 19.3242 30.5391 18.6601C30.5391 18 30 17.4609 29.3398 17.4609C28.6797 17.4609 28.1406 17.9961 28.1406 18.6601C28.1406 19.3203 28.6758 19.8593 29.3398 19.8593ZM24 18.8633C21.1641 18.8633 18.8633 21.1641 18.8633 24C18.8633 26.8359 21.1641 29.1367 24 29.1367C26.8359 29.1367 29.1367 26.8359 29.1367 24C29.1367 21.1641 26.8359 18.8633 24 18.8633ZM24 27.332C22.1602 27.332 20.668 25.8398 20.668 24C20.668 22.1602 22.1602 20.668 24 20.668C25.8398 20.668 27.332 22.1602 27.332 24C27.332 25.8398 25.8398 27.332 24 27.332Z" fill="rgb(69,76,82)" fill-rule="evenodd" />
	</g>
	<rect id="icon/big/instagram" width="47.000000" height="47.000000" x="0.500000" y="0.500000" rx="9.500000" stroke="url(#paint_linear_9)" stroke-width="1.000000" />
</svg>
