<svg viewBox="0 0 32 32" xmlns="http://www.w3.org/2000/svg" xmlns:xlink="http://www.w3.org/1999/xlink" width="32.000000" height="32.000000" fill="none" customFrame="url(#clipPath_0)">
	<defs>
		<clipPath id="clipPath_0">
			<rect width="32.000000" height="32.000000" x="0.000000" y="0.000000" rx="10.000000" fill="rgb(255,255,255)" />
		</clipPath>
		<clipPath id="clipPath_1">
			<rect width="16.000000" height="16.000000" x="8.000000" y="8.429688" fill="rgb(255,255,255)" />
		</clipPath>
	</defs>
	<rect id="icon" width="32.000000" height="32.000000" x="0.000000" y="0.000000" rx="10.000000" fill="rgb(8,169,89)" />
	<g id="icon/mini/check" clip-path="url(#clipPath_1)" customFrame="url(#clipPath_1)">
		<rect id="icon/mini/check" width="16.000000" height="16.000000" x="8.000000" y="8.429688" />
		<path id="Vector (Stroke)" d="M21.7225 11.8409C21.9932 12.0471 22.0454 12.4337 21.8392 12.7044L15.2673 21.33C15.1596 21.4714 14.996 21.5594 14.8186 21.5713C14.6412 21.5832 14.4673 21.518 14.3416 21.3922L10.6449 17.6956C10.4043 17.4549 10.4043 17.0648 10.6449 16.8242C10.8855 16.5836 11.2756 16.5836 11.5162 16.8242L14.7144 20.0224L20.859 11.9576C21.0653 11.6869 21.4518 11.6347 21.7225 11.8409Z" fill="rgb(219,253,237)" fill-rule="evenodd" />
	</g>
</svg>
