<svg viewBox="0 0 18.2242 18.3125" xmlns="http://www.w3.org/2000/svg" xmlns:xlink="http://www.w3.org/1999/xlink" width="18.224243" height="18.312500" fill="none" customFrame="#000000">
	<path id="Vector" d="M17.0849 4.64242L10.297 4.64242L10.297 8.06061L18.2242 8.06061L18.2242 5.78182C18.2242 5.15758 17.7152 4.64242 17.0849 4.64242ZM1.13939 4.64242C0.509091 4.64242 0 5.15152 0 5.78182L0 8.06061L7.97576 8.06061L7.97576 4.64242L1.13939 4.64242ZM1.13939 9.2L1.13939 17.1758C1.13939 17.8061 1.64848 18.3152 2.27879 18.3152L7.97576 18.3152L7.97576 9.2L1.13939 9.2ZM15.9455 18.3152C16.5758 18.3152 17.0849 17.8061 17.0849 17.1758L17.0849 9.2L10.297 9.2L10.297 18.3152L15.9455 18.3152ZM9.11515 3.49697C9.12121 3.49697 9.12121 3.50303 9.12121 3.50909L13.6788 3.50909C15.2545 3.50909 15.9576 2.72121 15.9576 1.75758C15.9576 0.79394 15.2485 0.00606063 13.6788 0.00606063C12.2061 0.00606063 11.0485 0.684849 10.2606 1.47273C9.55758 1.0303 8.66667 1.02424 7.95758 1.44848C7.1697 0.666667 6.01818 0 4.55758 0C2.98182 0 2.27879 0.787879 2.27879 1.75152C2.27879 2.71515 2.98182 3.50303 4.55758 3.50303L9.11515 3.50303L9.11515 3.49697ZM14.8061 1.8C14.8061 2.27273 14.1879 2.3697 13.6667 2.3697L11.0788 2.3697C11.0727 2.35152 11.0606 2.33939 11.0545 2.32121C11.6364 1.75758 12.5091 1.2303 13.6667 1.2303C14.1879 1.2303 14.8061 1.32727 14.8061 1.8ZM3.41818 1.8C3.41818 1.32727 4.03636 1.2303 4.55758 1.2303C5.69091 1.2303 6.55152 1.73939 7.12727 2.27879C7.10909 2.30909 7.09697 2.33939 7.07879 2.3697L4.55758 2.3697C4.03636 2.3697 3.41818 2.26667 3.41818 1.8Z" fill="rgb(227,83,54)" fill-rule="nonzero" />
</svg>
