<svg width="13" height="13" viewBox="0 0 13 13" fill="none" xmlns="http://www.w3.org/2000/svg">
<path d="M6.5 12.5C9.29505 12.5 11.6437 10.5888 12.3105 8.00196M6.5 12.5C3.70495 12.5 1.35628 10.5888 0.689532 8.00196M6.5 12.5C8.15685 12.5 9.5 9.81371 9.5 6.5C9.5 3.18629 8.15685 0.5 6.5 0.5M6.5 12.5C4.84315 12.5 3.5 9.81371 3.5 6.5C3.5 3.18629 4.84315 0.5 6.5 0.5M6.5 0.5C8.74346 0.5 10.6993 1.73129 11.7287 3.55497M6.5 0.5C4.25654 0.5 2.30066 1.73129 1.27128 3.55497M11.7287 3.55497C10.3265 4.76693 8.49885 5.5 6.5 5.5C4.50115 5.5 2.67351 4.76693 1.27128 3.55497M11.7287 3.55497C12.2198 4.42495 12.5 5.42975 12.5 6.5C12.5 7.01866 12.4342 7.52194 12.3105 8.00196M12.3105 8.00196C10.5889 8.95649 8.60793 9.5 6.5 9.5C4.39207 9.5 2.41108 8.95649 0.689532 8.00196M0.689532 8.00196C0.565809 7.52194 0.5 7.01866 0.5 6.5C0.5 5.42975 0.780216 4.42495 1.27128 3.55497" stroke="#454C52" stroke-linecap="round" stroke-linejoin="round"/>
</svg>
