<svg viewBox="0 0 14.5 14.5" xmlns="http://www.w3.org/2000/svg" xmlns:xlink="http://www.w3.org/1999/xlink" width="14.500000" height="14.500000" fill="none" customFrame="#000000">
	<path id="Vector" d="M0.75 3.75L0.75 2.25C0.75 1.42157 1.42157 0.75 2.25 0.75L3.16442 0.75C3.50857 0.75 3.80856 0.984223 3.89202 1.3181L4.62922 4.26689C4.70241 4.55964 4.59302 4.86773 4.35161 5.04879L3.4892 5.6956C3.23891 5.88332 3.12823 6.20799 3.23584 6.50177C4.04344 8.70641 5.7936 10.4566 7.99823 11.2642C8.29201 11.3718 8.61668 11.2611 8.8044 11.0108L9.45121 10.1484C9.63227 9.90698 9.94036 9.79759 10.2331 9.87078L13.1819 10.608C13.5158 10.6914 13.75 10.9914 13.75 11.3356L13.75 12.25C13.75 13.0784 13.0784 13.75 12.25 13.75L10.75 13.75C5.22715 13.75 0.75 9.27285 0.75 3.75Z" fill-rule="nonzero" stroke="rgb(69,76,82)" stroke-linecap="round" stroke-linejoin="round" stroke-width="1.500000" />
</svg>
