<svg viewBox="0 0 48 48" xmlns="http://www.w3.org/2000/svg" xmlns:xlink="http://www.w3.org/1999/xlink" width="48.000000" height="48.000000" fill="none" clip-path="url(#clipPath_2)" customFrame="url(#clipPath_2)">
	<defs>
		<linearGradient id="paint_linear_4" x1="0" x2="47.9999962" y1="0" y2="47.9999962" gradientUnits="userSpaceOnUse">
			<stop stop-color="rgb(250,228,223)" offset="0" stop-opacity="0.400000006" />
			<stop stop-color="rgb(248,212,204)" offset="1" stop-opacity="1" />
		</linearGradient>
		<linearGradient id="paint_linear_5" x1="0" x2="52.3019905" y1="0" y2="5.26507902" gradientUnits="userSpaceOnUse">
			<stop stop-color="rgb(250,228,223)" offset="0" stop-opacity="0.600000024" />
			<stop stop-color="rgb(248,212,204)" offset="1" stop-opacity="1" />
		</linearGradient>
		<clipPath id="clipPath_2">
			<rect width="48.000000" height="48.000000" x="0.000000" y="0.000000" rx="10.000000" fill="rgb(255,255,255)" />
		</clipPath>
	</defs>
	<rect id="icon/big//user-group" width="48.000000" height="48.000000" x="0.000000" y="0.000000" rx="10.000000" fill="url(#paint_linear_4)" />
	<path id="Vector" d="M23.7493 21C22.0924 21 20.7493 19.6569 20.7493 18C20.7493 16.3431 22.0924 15 23.7493 15C25.4061 15 26.7493 16.3431 26.7493 18C26.7493 19.6569 25.4061 21 23.7493 21ZM30.4993 23.25C29.2566 23.25 28.2493 22.2426 28.2493 21C28.2493 19.7574 29.2566 18.75 30.4993 18.75C31.7419 18.75 32.7493 19.7574 32.7493 21C32.7493 22.2426 31.7419 23.25 30.4993 23.25ZM16.9993 23.25C15.7566 23.25 14.7493 22.2426 14.7493 21C14.7493 19.7574 15.7566 18.75 16.9993 18.75C18.2419 18.75 19.2493 19.7574 19.2493 21C19.2493 22.2426 18.2419 23.25 16.9993 23.25ZM17.7493 30C17.7493 29.9897 17.7493 29.9795 17.7493 29.9692C17.7553 28.7924 18.1 27.6957 18.691 26.7716C19.7569 25.1049 21.6241 24 23.7493 24C25.8747 24 27.7421 25.1052 28.808 26.7722C29.3987 27.6961 29.7433 28.7926 29.7492 29.9691C29.7493 29.9794 29.7493 29.9897 29.7493 30C29.7493 30.225 29.7369 30.4471 29.7128 30.6656C27.956 31.6737 25.9199 32.25 23.7493 32.25C21.5786 32.25 19.5425 31.6737 17.7858 30.6656C17.7617 30.4471 17.7493 30.225 17.7493 30ZM28.808 26.7722C29.2896 26.4427 29.8722 26.25 30.4998 26.25C32.1567 26.25 33.4998 27.5931 33.4998 29.25C33.4998 29.3312 33.4966 29.4117 33.4903 29.4913C32.5546 29.8208 31.5482 30 30.4998 30C30.2471 30 29.9967 29.9896 29.7492 29.9691M17.7493 29.9692C17.5023 29.9896 17.2523 30 17 30C15.9517 30 14.9452 29.8208 14.0096 29.4913C14.0032 29.4117 14 29.3312 14 29.25C14 27.5931 15.3431 26.25 17 26.25C17.6272 26.25 18.2095 26.4425 18.691 26.7716" fill-rule="evenodd" stroke="rgb(56,63,69)" stroke-linecap="round" stroke-linejoin="round" stroke-width="1.500000" />
	<rect id="icon/big//user-group" width="47.000000" height="47.000000" x="0.500000" y="0.500000" rx="9.500000" stroke="url(#paint_linear_5)" stroke-width="1.000000" />
</svg>
