<svg viewBox="0 0 48 48" xmlns="http://www.w3.org/2000/svg" xmlns:xlink="http://www.w3.org/1999/xlink" width="48.000000" height="48.000000" fill="none" clip-path="url(#clipPath_3)" customFrame="url(#clipPath_3)">
	<defs>
		<linearGradient id="paint_linear_6" x1="0" x2="47.9999962" y1="0" y2="47.9999962" gradientUnits="userSpaceOnUse">
			<stop stop-color="rgb(250,228,223)" offset="0" stop-opacity="0.400000006" />
			<stop stop-color="rgb(248,212,204)" offset="1" stop-opacity="1" />
		</linearGradient>
		<linearGradient id="paint_linear_7" x1="0" x2="52.3019905" y1="0" y2="5.26507902" gradientUnits="userSpaceOnUse">
			<stop stop-color="rgb(250,228,223)" offset="0" stop-opacity="0.600000024" />
			<stop stop-color="rgb(248,212,204)" offset="1" stop-opacity="1" />
		</linearGradient>
		<clipPath id="clipPath_3">
			<rect width="48.000000" height="48.000000" x="0.000000" y="0.000000" rx="10.000000" fill="rgb(255,255,255)" />
		</clipPath>
	</defs>
	<rect id="icon/big//gift-top" width="48.000000" height="48.000000" x="0.000000" y="0.000000" rx="10.000000" fill="url(#paint_linear_6)" />
	<path id="Vector" d="M32 16C32.8284 16 33.5 16.6716 33.5 17.5L33.5 31C33.5 31.8284 32.8284 32.5 32 32.5L15.5 32.5C14.6716 32.5 14 31.8284 14 31L14 17.5C14 16.6716 14.6716 16 15.5 16L32 16ZM23.75 16L23.75 32.5M14 24.25L33.5 24.25M23.8786 24.1213C23.8786 24.1213 23.5303 21.2877 24.9393 19.8787C25.818 19 27.2426 19 28.1213 19.8787C28.9999 20.7574 28.9999 22.182 28.1213 23.0607C26.7123 24.4697 23.8786 24.1213 23.8786 24.1213ZM23.5836 24.1214C23.5836 24.1214 20.75 24.4697 19.341 23.0607C18.4623 22.182 18.4623 20.7574 19.341 19.8787C20.2197 19.0001 21.6443 19.0001 22.523 19.8787C23.932 21.2877 23.5836 24.1214 23.5836 24.1214ZM23 24.25L23 24.625C23 27.3174 20.8174 29.5 18.125 29.5M24.5 24.25L24.5 24.625C24.5 27.3174 26.6826 29.5 29.375 29.5" fill-rule="evenodd" stroke="rgb(56,63,69)" stroke-linecap="round" stroke-linejoin="round" stroke-width="1.500000" />
	<rect id="icon/big//gift-top" width="46.666668" height="46.666668" x="0.666667" y="0.666667" rx="9.333333" stroke="url(#paint_linear_7)" stroke-width="1.333333" />
</svg>
