<svg viewBox="0 0 20 20" xmlns="http://www.w3.org/2000/svg" xmlns:xlink="http://www.w3.org/1999/xlink" width="20.000000" height="20.000000" fill="none" customFrame="url(#clipPath_2)">
	<defs>
		<clipPath id="clipPath_2">
			<rect width="20.000000" height="20.000000" x="0.000000" y="0.000000" rx="6.000000" fill="rgb(255,255,255)" />
		</clipPath>
	</defs>
	<rect id="icon/feauters" width="20.000000" height="20.000000" x="0.000000" y="0.000000" rx="6.000000" fill="rgb(219,253,237)" />
	<path id="Vector (Stroke)" d="M14.4849 5.82128C14.6835 5.61335 15.0133 5.60562 15.2214 5.80419C15.4293 6.00279 15.4369 6.33265 15.2385 6.54069L7.94678 14.1798C7.84996 14.2813 7.71591 14.3393 7.57569 14.341C7.4355 14.3426 7.30048 14.2871 7.20134 14.188L4.77051 11.758L4.70378 11.6758C4.57049 11.4736 4.59261 11.1986 4.77051 11.0207C4.94841 10.8428 5.22349 10.8206 5.42562 10.9539L5.50782 11.0207L7.56104 13.0747L14.4849 5.82128Z" fill="rgb(8,169,89)" fill-rule="nonzero" />
</svg>
