<svg viewBox="0 0 32 32" xmlns="http://www.w3.org/2000/svg" xmlns:xlink="http://www.w3.org/1999/xlink" width="32.000000" height="32.000000" fill="none" customFrame="url(#clipPath_2)">
	<defs>
		<clipPath id="clipPath_2">
			<rect width="32.000000" height="32.000000" x="0.000000" y="0.000000" rx="10.000000" fill="rgb(255,255,255)" />
		</clipPath>
		<clipPath id="clipPath_3">
			<rect width="16.000000" height="16.000000" x="8.000000" y="8.429688" fill="rgb(255,255,255)" />
		</clipPath>
	</defs>
	<rect id="icon" width="32.000000" height="32.000000" x="0.000000" y="0.000000" rx="10.000000" fill="rgb(240,68,56)" />
	<g id="icon/x-mark" clip-path="url(#clipPath_3)" customFrame="url(#clipPath_3)">
		<rect id="icon/x-mark" width="16.000000" height="16.000000" x="8.000000" y="8.429688" />
		<path id="Vector (Stroke)" d="M11.6464 12.0761C11.8417 11.8809 12.1583 11.8809 12.3536 12.0761L16 15.7226L19.6464 12.0761C19.8417 11.8809 20.1583 11.8809 20.3536 12.0761C20.5488 12.2714 20.5488 12.588 20.3536 12.7832L16.7071 16.4297L20.3536 20.0761C20.5488 20.2714 20.5488 20.588 20.3536 20.7832C20.1583 20.9785 19.8417 20.9785 19.6464 20.7832L16 17.1368L12.3536 20.7832C12.1583 20.9785 11.8417 20.9785 11.6464 20.7832C11.4512 20.588 11.4512 20.2714 11.6464 20.0761L15.2929 16.4297L11.6464 12.7832C11.4512 12.588 11.4512 12.2714 11.6464 12.0761Z" fill="rgb(255,255,255)" fill-rule="evenodd" />
	</g>
</svg>
