<svg width="20" height="14" viewBox="0 0 20 14" fill="none" xmlns="http://www.w3.org/2000/svg">
<path d="M19.0712 2.18615C18.8472 1.3256 18.1872 0.647952 17.349 0.417968C15.8302 0 9.73913 0 9.73913 0C9.73913 0 3.64808 0 2.12911 0.417968C1.29099 0.647952 0.630941 1.3256 0.406941 2.18615C0 3.74579 0 7 0 7C0 7 0 10.2541 0.406941 11.8139C0.630941 12.6744 1.29099 13.352 2.12911 13.5821C3.64808 14 9.73913 14 9.73913 14C9.73913 14 15.8302 14 17.349 13.5821C18.1872 13.352 18.8472 12.6744 19.0712 11.8139C19.4783 10.2541 19.4783 7 19.4783 7C19.4783 7 19.4783 3.74579 19.0712 2.18615Z" fill="#F3F4F7"/>
<path d="M8.32267 9.44507C8.01185 9.63933 7.60868 9.41587 7.60868 9.04933V4.64634C7.60868 4.2798 8.01187 4.05634 8.32269 4.25061L11.8451 6.45219C12.1375 6.63498 12.1375 7.06088 11.8451 7.24366L8.32267 9.44507Z" fill="#383F45"/>
</svg>
