<svg viewBox="0 0 14.5 11.5" xmlns="http://www.w3.org/2000/svg" xmlns:xlink="http://www.w3.org/1999/xlink" width="14.500000" height="11.500000" fill="none" customFrame="#000000">
	<path id="Vector" d="M12.25 0.75C13.0784 0.75 13.75 1.42157 13.75 2.25L13.75 9.25C13.75 10.0784 13.0784 10.75 12.25 10.75L2.25 10.75C1.42157 10.75 0.75 10.0784 0.75 9.25L0.75 2.25C0.75 1.42157 1.42157 0.75 2.25 0.75L12.25 0.75ZM0.75 2.25L0.75 2.41181C0.75 2.9327 1.02023 3.4163 1.46385 3.68929L6.46385 6.76622C6.94596 7.0629 7.55404 7.0629 8.03615 6.76622L13.0361 3.68929C13.4798 3.4163 13.75 2.9327 13.75 2.41181L13.75 2.25" fill-rule="nonzero" stroke="rgb(69,76,82)" stroke-linecap="round" stroke-linejoin="round" stroke-width="1.500000" />
</svg>
