<svg viewBox="0 0 112 16" xmlns="http://www.w3.org/2000/svg" xmlns:xlink="http://www.w3.org/1999/xlink" width="112.000000" height="16.000000" fill="none" customFrame="#000000">
	<defs>
		<clipPath id="clipPath_3">
			<rect width="12.000000" height="12.000000" x="0.000000" y="2.000000" fill="rgb(255,255,255)" />
		</clipPath>
		<clipPath id="clipPath_4">
			<rect width="60.000000" height="12.000000" x="50.000000" y="2.000000" fill="rgb(255,255,255)" />
		</clipPath>
		<clipPath id="clipPath_5">
			<rect width="12.000000" height="12.000000" x="50.000000" y="2.000000" fill="rgb(255,255,255)" />
		</clipPath>
		<clipPath id="clipPath_6">
			<rect width="12.000000" height="12.000000" x="50.000000" y="2.000000" fill="rgb(255,255,255)" />
		</clipPath>
		<clipPath id="clipPath_7">
			<rect width="12.000000" height="12.000000" x="62.000000" y="2.000000" fill="rgb(255,255,255)" />
		</clipPath>
		<clipPath id="clipPath_8">
			<rect width="12.000000" height="12.000000" x="62.000000" y="2.000000" fill="rgb(255,255,255)" />
		</clipPath>
		<clipPath id="clipPath_9">
			<rect width="12.000000" height="12.000000" x="74.000000" y="2.000000" fill="rgb(255,255,255)" />
		</clipPath>
		<clipPath id="clipPath_10">
			<rect width="12.000000" height="12.000000" x="74.000000" y="2.000000" fill="rgb(255,255,255)" />
		</clipPath>
		<clipPath id="clipPath_11">
			<rect width="12.000000" height="12.000000" x="86.000000" y="2.000000" fill="rgb(255,255,255)" />
		</clipPath>
		<clipPath id="clipPath_12">
			<rect width="12.000000" height="12.000000" x="86.000000" y="2.000000" fill="rgb(255,255,255)" />
		</clipPath>
		<clipPath id="clipPath_13">
			<rect width="12.000000" height="12.000000" x="98.000000" y="2.000000" fill="rgb(255,255,255)" />
		</clipPath>
		<clipPath id="clipPath_14">
			<rect width="9.000000" height="12.000000" x="98.000000" y="2.000000" fill="rgb(255,255,255)" />
		</clipPath>
	</defs>
	<rect id="google reviews" width="112.000000" height="16.000000" x="0.000000" y="0.000000" />
	<g id="icon/google" customFrame="url(#clipPath_3)">
		<rect id="icon/google" width="12.000000" height="12.000000" x="0.000000" y="2.000000" />
		<path id="Vector" d="M10.7895 8.11797C10.7895 7.77947 10.762 7.43847 10.7035 7.10547L6.00195 7.10547L6.00195 9.02497L8.69395 9.02497C8.63877 9.33157 8.52207 9.62383 8.35089 9.88411C8.17972 10.1444 7.95761 10.3673 7.69795 10.5395L7.69795 11.7845L9.30395 11.7845C10.247 10.9165 10.789 9.63447 10.789 8.11797L10.7895 8.11797Z" fill="rgb(42,132,252)" fill-rule="nonzero" />
		<path id="Vector" d="M6.00199 12.986C7.34598 12.986 8.47999 12.545 9.30598 11.783L7.69949 10.5375C7.25299 10.8415 6.67599 11.0135 6.00349 11.0135C4.70349 11.0135 3.60049 10.1365 3.20499 8.95703L1.54749 8.95703L1.54749 10.2405C1.96259 11.066 2.59896 11.7599 3.38555 12.2447C4.17214 12.7295 5.07799 12.9862 6.00199 12.986Z" fill="rgb(0,172,71)" fill-rule="nonzero" />
		<path id="Vector" d="M3.20353 8.95813C2.99472 8.33909 2.99472 7.66866 3.20353 7.04962L3.20353 5.76562L1.54753 5.76562C1.19881 6.46021 1.01721 7.22667 1.01721 8.00387C1.01721 8.78108 1.19881 9.54754 1.54753 10.2421L3.20353 8.95813Z" fill="rgb(255,186,0)" fill-rule="nonzero" />
		<path id="Vector" d="M6.00199 4.99042C6.71264 4.97891 7.39935 5.2472 7.91399 5.73742L9.33698 4.31442C8.4345 3.46773 7.23938 3.00312 6.00199 3.01792C5.07785 3.01768 4.17185 3.27441 3.38522 3.75942C2.59859 4.24443 1.96231 4.93862 1.54749 5.76442L3.20349 7.04942C3.59699 5.86792 4.70149 4.99042 6.00199 4.99042Z" fill="rgb(252,44,37)" fill-rule="nonzero" />
	</g>
	<path id="Metric Description" d="M16.6989 10.5739L16.6989 9.70455L20.5341 3.63636L21.1648 3.63636L21.1648 4.98295L20.7386 4.98295L17.8409 9.56818L17.8409 9.63636L23.0057 9.63636L23.0057 10.5739L16.6989 10.5739ZM20.8068 12.3636L20.8068 10.3097L20.8068 9.90483L20.8068 3.63636L21.8125 3.63636L21.8125 12.3636L20.8068 12.3636ZM24.9425 12.4318C24.7322 12.4318 24.5518 12.3565 24.4013 12.206C24.2507 12.0554 24.1754 11.875 24.1754 11.6648C24.1754 11.4545 24.2507 11.2741 24.4013 11.1236C24.5518 10.973 24.7322 10.8977 24.9425 10.8977C25.1527 10.8977 25.3331 10.973 25.4837 11.1236C25.6342 11.2741 25.7095 11.4545 25.7095 11.6648C25.7095 11.804 25.674 11.9318 25.603 12.0483C25.5348 12.1648 25.4425 12.2585 25.326 12.3295C25.2124 12.3977 25.0845 12.4318 24.9425 12.4318ZM30.0231 12.483C29.4379 12.483 28.9208 12.3793 28.4719 12.1719C28.0259 11.9616 27.6779 11.6733 27.4279 11.3068C27.1779 10.9375 27.0543 10.517 27.0572 10.0455C27.0543 9.67614 27.1268 9.33523 27.2745 9.02273C27.4222 8.70739 27.6239 8.4446 27.8796 8.23438C28.1381 8.02131 28.4265 7.88636 28.7447 7.82955L28.7447 7.77841C28.3271 7.67045 27.9947 7.43608 27.7475 7.07528C27.5004 6.71165 27.3782 6.29829 27.381 5.83523C27.3782 5.39205 27.4904 4.99574 27.7177 4.64631C27.945 4.29688 28.2575 4.02131 28.6552 3.8196C29.0558 3.6179 29.5117 3.51705 30.0231 3.51705C30.5288 3.51705 30.9805 3.6179 31.3782 3.8196C31.7759 4.02131 32.0884 4.29688 32.3157 4.64631C32.5458 4.99574 32.6623 5.39205 32.6651 5.83523C32.6623 6.29829 32.5359 6.71165 32.2859 7.07528C32.0387 7.43608 31.7106 7.67045 31.3015 7.77841L31.3015 7.82955C31.6168 7.88636 31.9009 8.02131 32.1538 8.23438C32.4066 8.4446 32.6083 8.70739 32.7589 9.02273C32.9094 9.33523 32.9862 9.67614 32.989 10.0455C32.9862 10.517 32.8583 10.9375 32.6055 11.3068C32.3555 11.6733 32.0075 11.9616 31.5614 12.1719C31.1183 12.3793 30.6055 12.483 30.0231 12.483ZM30.0231 11.5455C30.418 11.5455 30.7589 11.4815 31.0458 11.3537C31.3327 11.2259 31.5543 11.0455 31.7106 10.8125C31.8668 10.5795 31.9464 10.3068 31.9492 9.99432C31.9464 9.66477 31.8612 9.37358 31.6935 9.12074C31.5259 8.8679 31.2972 8.66903 31.0075 8.52415C30.7205 8.37926 30.3924 8.30682 30.0231 8.30682C29.6509 8.30682 29.3185 8.37926 29.0259 8.52415C28.7362 8.66903 28.5075 8.8679 28.3398 9.12074C28.1751 9.37358 28.0941 9.66477 28.0969 9.99432C28.0941 10.3068 28.1694 10.5795 28.3228 10.8125C28.479 11.0455 28.7021 11.2259 28.9918 11.3537C29.2816 11.4815 29.6254 11.5455 30.0231 11.5455ZM30.0231 7.40341C30.3356 7.40341 30.6126 7.34091 30.854 7.21591C31.0984 7.09091 31.2901 6.91619 31.4293 6.69176C31.5685 6.46733 31.6396 6.20454 31.6424 5.90341C31.6396 5.60795 31.57 5.35085 31.4336 5.1321C31.2972 4.91051 31.1083 4.74006 30.8668 4.62074C30.6254 4.49858 30.3441 4.4375 30.0231 4.4375C29.6964 4.4375 29.4109 4.49858 29.1665 4.62074C28.9222 4.74006 28.7333 4.91051 28.5998 5.1321C28.4663 5.35085 28.4009 5.60795 28.4038 5.90341C28.4009 6.20454 28.4677 6.46733 28.604 6.69176C28.7433 6.91619 28.935 7.09091 29.1793 7.21591C29.4237 7.34091 29.7049 7.40341 30.0231 7.40341ZM37.7244 3.22727L34.9119 13.6761L33.9915 13.6761L36.804 3.22727L37.7244 3.22727ZM41.6268 12.483C41.1268 12.483 40.6765 12.3835 40.2759 12.1847C39.8754 11.9858 39.5543 11.7131 39.3129 11.3665C39.0714 11.0199 38.9393 10.625 38.9165 10.1818L39.9393 10.1818C39.979 10.5767 40.158 10.9034 40.4762 11.1619C40.7972 11.4176 41.1808 11.5455 41.6268 11.5455C41.9847 11.5455 42.3029 11.4616 42.5813 11.294C42.8626 11.1264 43.0827 10.8963 43.2418 10.6037C43.4038 10.3082 43.4847 9.97443 43.4847 9.60227C43.4847 9.22159 43.4009 8.8821 43.2333 8.58381C43.0685 8.28267 42.8413 8.04545 42.5515 7.87216C42.2617 7.69886 41.9308 7.6108 41.5586 7.60795C41.2915 7.60511 41.0174 7.64631 40.7362 7.73153C40.4549 7.81392 40.2234 7.92045 40.0415 8.05114L39.0529 7.93182L39.5813 3.63636L44.1154 3.63636L44.1154 4.57386L40.4677 4.57386L40.1609 7.14773L40.212 7.14773C40.391 7.00568 40.6154 6.88778 40.8853 6.79403C41.1552 6.70028 41.4364 6.65341 41.729 6.65341C42.2631 6.65341 42.739 6.78125 43.1566 7.03693C43.5771 7.28977 43.9066 7.63636 44.1452 8.0767C44.3867 8.51705 44.5075 9.01989 44.5075 9.58523C44.5075 10.142 44.3825 10.6392 44.1325 11.0767C43.8853 11.5114 43.5444 11.8551 43.1097 12.108C42.6751 12.358 42.1808 12.483 41.6268 12.483Z" fill="rgb(69,76,82)" fill-rule="nonzero" />
	<g id="stars" customFrame="url(#clipPath_4)">
		<rect id="stars" width="60.000000" height="12.000000" x="50.000000" y="2.000000" />
		<g id="Star icon" clip-path="url(#clipPath_5)" customFrame="url(#clipPath_5)">
			<rect id="Star icon" width="12.000000" height="12.000000" x="50.000000" y="2.000000" fill="rgb(255,255,255)" fill-opacity="0" />
			<path id="Star background" d="M55.723 2.96676C55.8255 2.72037 56.1745 2.72037 56.277 2.96676L57.5167 5.94725C57.5599 6.05112 57.6575 6.12209 57.7697 6.13108L60.9874 6.38904C61.2534 6.41036 61.3612 6.74232 61.1586 6.91592L58.707 9.01592C58.6216 9.08911 58.5843 9.20394 58.6104 9.31337L59.3594 12.4533C59.4213 12.7128 59.1389 12.918 58.9112 12.7789L56.1564 11.0963C56.0604 11.0377 55.9396 11.0377 55.8436 11.0963L53.0888 12.7789C52.8611 12.918 52.5787 12.7128 52.6406 12.4533L53.3896 9.31336C53.4157 9.20394 53.3784 9.08911 53.293 9.01592L50.8414 6.91592C50.6388 6.74232 50.7466 6.41036 51.0126 6.38904L54.2303 6.13108C54.3425 6.12209 54.4401 6.05112 54.4833 5.94725L55.723 2.96676Z" fill="rgb(229,231,234)" fill-rule="nonzero" />
			<g id="Star" clip-path="url(#clipPath_6)" customFrame="url(#clipPath_6)">
				<rect id="Star" width="12.000000" height="12.000000" x="50.000000" y="2.000000" fill="rgb(255,255,255)" fill-opacity="0" />
				<path id="Star" d="M55.723 2.96676C55.8255 2.72037 56.1745 2.72037 56.277 2.96676L57.5167 5.94725C57.5599 6.05112 57.6575 6.12209 57.7697 6.13108L60.9874 6.38904C61.2534 6.41036 61.3612 6.74232 61.1586 6.91592L58.707 9.01592C58.6216 9.08911 58.5843 9.20394 58.6104 9.31337L59.3594 12.4533C59.4213 12.7128 59.1389 12.918 58.9112 12.7789L56.1564 11.0963C56.0604 11.0377 55.9396 11.0377 55.8436 11.0963L53.0888 12.7789C52.8611 12.918 52.5787 12.7128 52.6406 12.4533L53.3896 9.31336C53.4157 9.20394 53.3784 9.08911 53.293 9.01592L50.8414 6.91592C50.6388 6.74232 50.7466 6.41036 51.0126 6.38904L54.2303 6.13108C54.3425 6.12209 54.4401 6.05112 54.4833 5.94725L55.723 2.96676Z" fill="rgb(253,176,34)" fill-rule="nonzero" />
			</g>
		</g>
		<g id="Star icon" clip-path="url(#clipPath_7)" customFrame="url(#clipPath_7)">
			<rect id="Star icon" width="12.000000" height="12.000000" x="62.000000" y="2.000000" fill="rgb(255,255,255)" fill-opacity="0" />
			<path id="Star background" d="M67.723 2.96676C67.8255 2.72037 68.1745 2.72037 68.277 2.96676L69.5166 5.94725C69.5599 6.05112 69.6575 6.12209 69.7697 6.13108L72.9874 6.38904C73.2534 6.41036 73.3612 6.74232 73.1586 6.91592L70.707 9.01592C70.6216 9.08911 70.5843 9.20394 70.6104 9.31337L71.3594 12.4533C71.4213 12.7128 71.1389 12.918 70.9112 12.7789L68.1564 11.0963C68.0604 11.0377 67.9396 11.0377 67.8436 11.0963L65.0888 12.7789C64.8611 12.918 64.5787 12.7128 64.6406 12.4533L65.3896 9.31336C65.4157 9.20394 65.3784 9.08911 65.293 9.01592L62.8414 6.91592C62.6388 6.74232 62.7466 6.41036 63.0126 6.38904L66.2303 6.13108C66.3425 6.12209 66.4401 6.05112 66.4834 5.94725L67.723 2.96676Z" fill="rgb(229,231,234)" fill-rule="nonzero" />
			<g id="Star" clip-path="url(#clipPath_8)" customFrame="url(#clipPath_8)">
				<rect id="Star" width="12.000000" height="12.000000" x="62.000000" y="2.000000" fill="rgb(255,255,255)" fill-opacity="0" />
				<path id="Star" d="M67.723 2.96676C67.8255 2.72037 68.1745 2.72037 68.277 2.96676L69.5166 5.94725C69.5599 6.05112 69.6575 6.12209 69.7697 6.13108L72.9874 6.38904C73.2534 6.41036 73.3612 6.74232 73.1586 6.91592L70.707 9.01592C70.6216 9.08911 70.5843 9.20394 70.6104 9.31337L71.3594 12.4533C71.4213 12.7128 71.1389 12.918 70.9112 12.7789L68.1564 11.0963C68.0604 11.0377 67.9396 11.0377 67.8436 11.0963L65.0888 12.7789C64.8611 12.918 64.5787 12.7128 64.6406 12.4533L65.3896 9.31336C65.4157 9.20394 65.3784 9.08911 65.293 9.01592L62.8414 6.91592C62.6388 6.74232 62.7466 6.41036 63.0126 6.38904L66.2303 6.13108C66.3425 6.12209 66.4401 6.05112 66.4834 5.94725L67.723 2.96676Z" fill="rgb(253,176,34)" fill-rule="nonzero" />
			</g>
		</g>
		<g id="Star icon" clip-path="url(#clipPath_9)" customFrame="url(#clipPath_9)">
			<rect id="Star icon" width="12.000000" height="12.000000" x="74.000000" y="2.000000" fill="rgb(255,255,255)" fill-opacity="0" />
			<path id="Star background" d="M79.723 2.96676C79.8255 2.72037 80.1745 2.72037 80.277 2.96676L81.5166 5.94725C81.5599 6.05112 81.6575 6.12209 81.7697 6.13108L84.9874 6.38904C85.2534 6.41036 85.3612 6.74232 85.1586 6.91592L82.707 9.01592C82.6216 9.08911 82.5843 9.20394 82.6104 9.31337L83.3594 12.4533C83.4213 12.7128 83.1389 12.918 82.9112 12.7789L80.1564 11.0963C80.0604 11.0377 79.9396 11.0377 79.8436 11.0963L77.0888 12.7789C76.8611 12.918 76.5787 12.7128 76.6406 12.4533L77.3896 9.31336C77.4157 9.20394 77.3784 9.08911 77.293 9.01592L74.8414 6.91592C74.6388 6.74232 74.7466 6.41036 75.0126 6.38904L78.2303 6.13108C78.3425 6.12209 78.4401 6.05112 78.4834 5.94725L79.723 2.96676Z" fill="rgb(229,231,234)" fill-rule="nonzero" />
			<g id="Star" clip-path="url(#clipPath_10)" customFrame="url(#clipPath_10)">
				<rect id="Star" width="12.000000" height="12.000000" x="74.000000" y="2.000000" fill="rgb(255,255,255)" fill-opacity="0" />
				<path id="Star" d="M79.723 2.96676C79.8255 2.72037 80.1745 2.72037 80.277 2.96676L81.5166 5.94725C81.5599 6.05112 81.6575 6.12209 81.7697 6.13108L84.9874 6.38904C85.2534 6.41036 85.3612 6.74232 85.1586 6.91592L82.707 9.01592C82.6216 9.08911 82.5843 9.20394 82.6104 9.31337L83.3594 12.4533C83.4213 12.7128 83.1389 12.918 82.9112 12.7789L80.1564 11.0963C80.0604 11.0377 79.9396 11.0377 79.8436 11.0963L77.0888 12.7789C76.8611 12.918 76.5787 12.7128 76.6406 12.4533L77.3896 9.31336C77.4157 9.20394 77.3784 9.08911 77.293 9.01592L74.8414 6.91592C74.6388 6.74232 74.7466 6.41036 75.0126 6.38904L78.2303 6.13108C78.3425 6.12209 78.4401 6.05112 78.4834 5.94725L79.723 2.96676Z" fill="rgb(253,176,34)" fill-rule="nonzero" />
			</g>
		</g>
		<g id="Star icon" clip-path="url(#clipPath_11)" customFrame="url(#clipPath_11)">
			<rect id="Star icon" width="12.000000" height="12.000000" x="86.000000" y="2.000000" fill="rgb(255,255,255)" fill-opacity="0" />
			<path id="Star background" d="M91.723 2.96676C91.8255 2.72037 92.1745 2.72037 92.277 2.96676L93.5166 5.94725C93.5599 6.05112 93.6575 6.12209 93.7697 6.13108L96.9874 6.38904C97.2534 6.41036 97.3612 6.74232 97.1586 6.91592L94.707 9.01592C94.6216 9.08911 94.5843 9.20394 94.6104 9.31337L95.3594 12.4533C95.4213 12.7128 95.1389 12.918 94.9112 12.7789L92.1564 11.0963C92.0604 11.0377 91.9396 11.0377 91.8436 11.0963L89.0888 12.7789C88.8611 12.918 88.5787 12.7128 88.6406 12.4533L89.3896 9.31336C89.4157 9.20394 89.3784 9.08911 89.293 9.01592L86.8414 6.91592C86.6388 6.74232 86.7466 6.41036 87.0126 6.38904L90.2303 6.13108C90.3425 6.12209 90.4401 6.05112 90.4834 5.94725L91.723 2.96676Z" fill="rgb(229,231,234)" fill-rule="nonzero" />
			<g id="Star" clip-path="url(#clipPath_12)" customFrame="url(#clipPath_12)">
				<rect id="Star" width="12.000000" height="12.000000" x="86.000000" y="2.000000" fill="rgb(255,255,255)" fill-opacity="0" />
				<path id="Star" d="M91.723 2.96676C91.8255 2.72037 92.1745 2.72037 92.277 2.96676L93.5166 5.94725C93.5599 6.05112 93.6575 6.12209 93.7697 6.13108L96.9874 6.38904C97.2534 6.41036 97.3612 6.74232 97.1586 6.91592L94.707 9.01592C94.6216 9.08911 94.5843 9.20394 94.6104 9.31337L95.3594 12.4533C95.4213 12.7128 95.1389 12.918 94.9112 12.7789L92.1564 11.0963C92.0604 11.0377 91.9396 11.0377 91.8436 11.0963L89.0888 12.7789C88.8611 12.918 88.5787 12.7128 88.6406 12.4533L89.3896 9.31336C89.4157 9.20394 89.3784 9.08911 89.293 9.01592L86.8414 6.91592C86.6388 6.74232 86.7466 6.41036 87.0126 6.38904L90.2303 6.13108C90.3425 6.12209 90.4401 6.05112 90.4834 5.94725L91.723 2.96676Z" fill="rgb(253,176,34)" fill-rule="nonzero" />
			</g>
		</g>
		<g id="Star icon" clip-path="url(#clipPath_13)" customFrame="url(#clipPath_13)">
			<rect id="Star icon" width="12.000000" height="12.000000" x="98.000000" y="2.000000" fill="rgb(255,255,255)" fill-opacity="0" />
			<path id="Star background" d="M103.723 2.96676C103.825 2.72037 104.175 2.72037 104.277 2.96676L105.517 5.94725C105.56 6.05112 105.658 6.12209 105.77 6.13108L108.987 6.38904C109.253 6.41036 109.361 6.74232 109.159 6.91592L106.707 9.01592C106.622 9.08911 106.584 9.20394 106.61 9.31337L107.359 12.4533C107.421 12.7128 107.139 12.918 106.911 12.7789L104.156 11.0963C104.06 11.0377 103.94 11.0377 103.844 11.0963L101.089 12.7789C100.861 12.918 100.579 12.7128 100.641 12.4533L101.39 9.31336C101.416 9.20394 101.378 9.08911 101.293 9.01592L98.8414 6.91592C98.6388 6.74232 98.7466 6.41036 99.0126 6.38904L102.23 6.13108C102.342 6.12209 102.44 6.05112 102.483 5.94725L103.723 2.96676Z" fill="rgb(229,231,234)" fill-rule="nonzero" />
			<g id="Star" clip-path="url(#clipPath_14)" customFrame="url(#clipPath_14)">
				<rect id="Star" width="9.000000" height="12.000000" x="98.000000" y="2.000000" fill="rgb(255,255,255)" fill-opacity="0" />
				<path id="Star" d="M103.723 2.96676C103.825 2.72037 104.175 2.72037 104.277 2.96676L105.517 5.94725C105.56 6.05112 105.658 6.12209 105.77 6.13108L108.987 6.38904C109.253 6.41036 109.361 6.74232 109.159 6.91592L106.707 9.01592C106.622 9.08911 106.584 9.20394 106.61 9.31337L107.359 12.4533C107.421 12.7128 107.139 12.918 106.911 12.7789L104.156 11.0963C104.06 11.0377 103.94 11.0377 103.844 11.0963L101.089 12.7789C100.861 12.918 100.579 12.7128 100.641 12.4533L101.39 9.31336C101.416 9.20394 101.378 9.08911 101.293 9.01592L98.8414 6.91592C98.6388 6.74232 98.7466 6.41036 99.0126 6.38904L102.23 6.13108C102.342 6.12209 102.44 6.05112 102.483 5.94725L103.723 2.96676Z" fill="rgb(253,176,34)" fill-rule="nonzero" />
			</g>
		</g>
	</g>
</svg>
