<svg viewBox="0 0 81.3781 40.1641" xmlns="http://www.w3.org/2000/svg" xmlns:xlink="http://www.w3.org/1999/xlink" width="81.378113" height="40.164062" fill="none" customFrame="#000000">
	<path id="Vector" d="M22.6737 39.1917C22.2451 38.7108 21.495 37.5172 20.9949 36.573L20.0662 34.8272L17.9587 34.364C16.78 34.1146 15.2083 33.7405 14.4404 33.5268C12.9223 33.0992 12.3508 33.0458 12.3508 33.313C12.3508 33.4199 12.6901 34.079 13.083 34.7916C14.2618 36.8224 14.3511 37.0362 14.2439 37.4994C14.1546 37.8735 13.3509 38.4792 12.9759 38.4792C12.7973 38.4792 11.815 37.339 11.815 37.1431C11.815 36.8759 9.02885 32.2441 8.61808 31.8344C8.45734 31.6562 7.90369 31.4068 7.42147 31.2643C5.17114 30.623 0.652624 28.8416 0.22399 28.414C-0.0974861 28.1112 -0.0617665 26.1694 0.259709 25.9734C0.634764 25.7419 1.27772 25.8131 2.40288 26.2585C3.01011 26.4901 4.01026 26.7395 4.61749 26.8107C5.58192 26.9176 5.76052 26.8998 5.84982 26.6326C5.97483 26.3297 5.0997 24.0851 3.45661 20.3619C3.04583 19.4712 2.51004 17.9748 2.24214 17.0662C1.97425 16.1577 1.45631 14.6435 1.08126 13.7171C0.134691 11.33 -0.0439068 10.5461 0.18827 9.69105C0.634764 8.05212 1.52775 7.83835 3.02797 9.0141C3.51019 9.38821 4.15314 9.85138 4.43889 10.0117C4.70679 10.1899 5.61764 10.8134 6.45705 11.4012C7.29646 12.0069 8.45734 12.8086 9.04671 13.1827C11.2792 14.6256 11.5649 14.8038 12.0293 15.1779C12.2972 15.3917 12.5651 15.5342 12.6008 15.4807C12.6365 15.4451 12.4401 14.6791 12.1543 13.8062C11.8686 12.9155 11.4756 11.5972 11.297 10.8668C10.6362 8.24808 9.81468 5.39777 9.15387 3.38474C8.3859 1.08668 8.15372 0 8.3859 0C8.5645 0 9.11815 1.2292 9.49321 2.40495C9.77896 3.3313 10.9577 6.44882 11.7614 8.37278C12.8151 10.9202 14.7976 15.9261 14.9226 16.318C15.0655 16.7812 17.0122 18.2598 18.5838 19.0793C19.2089 19.4177 19.8519 19.774 20.0126 19.8631C20.1733 19.97 20.8163 20.3619 21.4592 20.736C22.1022 21.1279 22.888 21.6623 23.2095 21.9474C24.3883 22.9628 24.4597 23.2835 21.7093 14.9641C20.5841 11.5794 19.4232 8.05212 19.1375 7.12577C17.9945 3.47381 17.3158 1.31827 17.155 0.92635C16.9586 0.409732 16.9586 0.356289 17.1729 0.356289C17.4051 0.356289 18.4052 2.56528 19.7626 6.07472C20.3877 7.69583 21.0663 9.29913 21.2628 9.63761C21.4592 9.97608 21.8522 10.9915 22.1558 11.8822C22.4415 12.7908 22.8523 13.8418 23.0488 14.1981C23.6917 15.4451 25.3884 19.1149 26.7815 22.3571L27.6387 24.2989L29.4068 25.3321C31.2285 26.3654 31.9965 26.5969 31.9965 26.0803C31.9965 25.9378 31.4429 24.3523 30.7642 22.5709C29.389 19.008 28.9246 17.1197 29.2997 16.6743C29.5676 16.3715 30.6213 16.1221 30.9606 16.2824C31.1928 16.3893 31.9251 16.8703 33.3539 17.8322C33.7468 18.0995 34.6398 18.7942 35.3541 19.3999C36.0685 20.0056 36.7472 20.451 36.8365 20.3797C36.9258 20.3263 36.9615 19.9165 36.8901 19.3999C36.6936 17.8857 37.6223 17.1553 38.7832 17.9213C39.0333 18.0816 40.3727 19.3465 41.7479 20.7182C43.141 22.0899 44.3733 23.1588 44.4626 23.0875C44.5698 23.0162 44.6412 22.5887 44.6412 22.1255C44.6234 21.6623 44.6769 21.0923 44.7484 20.8607C44.8734 20.4866 44.9806 20.451 45.6771 20.54C46.3736 20.6113 46.6951 20.7716 47.6417 21.4664C48.2668 21.9296 47.981 21.1279 46.4986 18.4023C44.0876 13.9131 43.8018 13.2896 41.9087 8.55093C40.0334 3.81229 39.4976 2.06647 39.8191 1.74581C40.1406 1.42515 40.5871 1.94177 41.3729 3.50944C41.7479 4.27546 42.4445 5.39777 42.9267 6.02128C43.391 6.62697 43.9983 7.51769 44.2483 7.98087C44.5162 8.44404 44.9806 9.10317 45.302 9.44165C45.6056 9.78012 46.2486 10.6174 46.7308 11.2943C47.7667 12.7729 49.4634 14.8038 52.1602 17.8144C55.1249 21.1279 55.625 21.4842 55.8572 20.54C56.0893 19.5068 56.4108 19.2396 57.3216 19.2396C57.786 19.2396 58.4825 19.3287 58.8755 19.4355C59.6256 19.6315 61.8045 20.7894 63.8226 22.0543C64.2334 22.3215 64.6263 22.4284 64.8406 22.3571C65.0371 22.3037 65.6622 21.6267 66.2158 20.8785C66.7695 20.1303 67.5553 19.1683 67.9661 18.7408C69.5913 17.0484 71.8774 16.5852 75.5743 17.2444C76.6995 17.4581 78.1283 17.6719 78.7534 17.7254C79.7892 17.8501 79.8964 17.9035 80.5751 18.6695C80.968 19.1327 81.2895 19.5959 81.2895 19.7206C81.2895 19.97 80.0393 19.9343 77.7354 19.5959C76.0923 19.3465 73.0918 19.4534 71.9131 19.774C70.7522 20.1125 68.0732 23.1231 67.3231 24.958C67.0731 25.5637 66.8231 25.8666 66.5373 25.9378C66.0194 26.0625 66.323 26.2407 62.9118 23.9782C61.0186 22.7312 59.947 22.1077 59.822 22.2324C59.3755 22.6778 61.1436 24.1742 65.68 27.2205C67.1624 28.2181 68.4661 29.1444 68.5912 29.2869C68.8948 29.6432 69.0377 31.1753 68.8055 31.7631C68.5376 32.4401 68.0732 32.3866 66.1265 31.4425C64.4477 30.623 62.0723 28.9128 59.7506 26.8642C57.1252 24.5305 52.1066 19.6315 50.5171 17.8322C47.9631 14.9107 47.5702 14.5188 47.4452 14.6435C47.2666 14.8216 49.2848 18.5983 52.1066 23.3547C52.7138 24.388 53.6604 26.1338 54.2141 27.2205C55.1785 29.1444 55.2142 29.2335 54.982 29.8035C54.6605 30.5339 54.2498 30.8724 53.8211 30.7477C53.6425 30.6765 53.1246 30.0529 52.6603 29.3404C51.928 28.1824 49.1419 24.8868 48.356 24.2454C48.1596 24.0851 47.9989 24.0495 47.8738 24.1742C47.6952 24.3523 48.4632 27.0601 49.1597 28.6991L49.5705 29.6254L48.9811 30.142C48.6418 30.4449 48.2489 30.6408 48.0167 30.6052C47.6595 30.5518 47.4988 30.338 46.4629 28.5031C46.1593 27.9687 45.4985 26.9711 44.9984 26.2763C43.7304 24.5661 40.6764 21.5555 40.212 21.5555C40.0155 21.5555 39.8548 21.5911 39.8548 21.6267C39.8548 21.7871 41.1228 25.3143 41.6229 26.5435C42.3195 28.2537 42.3373 28.8059 41.6944 29.0553C40.8728 29.3582 40.4263 29.1088 39.7119 27.9508C37.6045 24.477 36.6043 23.1588 34.997 21.6623C33.4074 20.1838 33.0324 19.9522 32.8181 20.2906C32.6752 20.5222 33.461 22.6421 34.6933 25.3678C35.8899 27.9687 36.015 28.7703 35.2827 29.0375C34.3897 29.376 33.8182 29.2691 33.5146 28.6634C33.3003 28.2715 32.9252 27.9865 32.2108 27.6836C31.6572 27.4342 30.6392 26.9532 29.9605 26.6326C29.2818 26.2941 28.6925 26.0269 28.6746 26.0625C28.6389 26.0981 30.8713 30.7299 32.9074 34.8272C33.586 36.1989 34.1397 37.4994 34.1397 37.731C34.1397 38.2298 32.8716 39.548 32.4073 39.548C31.9429 39.548 31.6929 39.263 30.5141 37.3569C29.9069 36.4127 29.0318 34.56 28.246 32.547C27.5316 30.7655 26.8886 29.2335 26.8172 29.1266C26.7457 29.0375 26.585 28.6278 26.46 28.2359C26.335 27.844 25.8706 26.7038 25.442 25.724L24.6561 23.907L23.1023 23.0875C22.2629 22.6421 21.4592 22.268 21.3521 22.268C21.2271 22.268 21.0842 22.1968 21.0306 22.1077C20.9056 21.9118 16.6371 19.5424 16.5478 19.6315C16.2978 19.8631 21.7807 31.3534 23.1381 33.4733C24.1025 34.9697 25.4777 37.6241 25.6563 38.3367C25.817 38.9423 25.5134 39.4768 24.8526 39.8153C23.9418 40.2784 23.5131 40.1715 22.6737 39.1917ZM18.7981 31.7631C18.2802 30.7299 16.5478 26.2407 16.1906 25.0293C16.0299 24.4414 15.637 23.3191 15.3155 22.5353C14.994 21.7514 14.4582 20.3975 14.1189 19.5424C13.6188 18.1885 13.4224 17.9035 12.8866 17.6185C12.5472 17.4225 11.7078 16.9059 11.0113 16.4783C10.3326 16.0508 9.40391 15.4807 8.95741 15.2135C8.51092 14.9463 7.95727 14.6078 7.70723 14.4297C7.45719 14.2694 6.90354 13.9487 6.45705 13.7527C6.01055 13.539 5.31402 13.1649 4.88539 12.9155C4.22458 12.5057 4.11742 12.4879 4.01026 12.7551C3.95668 12.9155 4.3496 14.3762 4.90325 15.9974C6.15343 19.774 9.45749 28.1468 9.83254 28.5209C9.99328 28.699 10.6005 28.9663 11.1899 29.1266C11.7793 29.2869 12.6544 29.6788 13.1366 29.9817C14.0474 30.5696 18.2802 32.3688 18.8339 32.4044C19.1196 32.4223 19.1196 32.3866 18.7981 31.7631Z" fill="rgb(0,0,0)" fill-rule="evenodd" transform="matrix(1,0,0,-1,0.0444946,40.1191)" />
	<path id="Vector" d="M20.9559 36.5938L20.0272 34.8479L20.0662 34.8272L20.0567 34.8703L17.9493 34.4071C16.5292 34.1067 15.3556 33.8274 14.4285 33.5693C13.6754 33.3572 13.1398 33.2352 12.8219 33.2033C12.664 33.1874 12.5493 33.1914 12.4778 33.2154C12.4225 33.2339 12.3949 33.2664 12.3949 33.313C12.3949 33.4059 12.6372 33.8916 13.1217 34.7703C13.7103 35.7843 14.0651 36.4328 14.1863 36.716C14.3092 37.0034 14.3428 37.2678 14.2869 37.5093C14.2402 37.7049 14.0592 37.9233 13.7439 38.1646C13.4314 38.4037 13.1754 38.5233 12.9759 38.5233C12.8739 38.5233 12.6469 38.32 12.2951 37.9135C11.9456 37.5097 11.7708 37.2529 11.7708 37.1431C11.7708 37.0173 11.2915 36.1579 10.3328 34.5649C9.37109 32.9671 8.78914 32.0674 8.58691 31.8656L8.5861 31.8648L8.58531 31.864C8.41335 31.6734 8.02123 31.4876 7.40897 31.3067C6.2753 30.9836 4.84677 30.4814 3.12337 29.8001C1.38695 29.1135 0.410099 28.6619 0.192821 28.4453L0.22399 28.414L0.193727 28.4461C0.0242005 28.2864 -0.054837 27.8554 -0.0433861 27.1529C-0.0318998 26.4483 0.0614748 26.0426 0.236738 25.9358C0.619742 25.6993 1.3472 25.7932 2.41912 26.2174C3.15349 26.4975 3.88799 26.6807 4.62264 26.7669C5.10566 26.8204 5.4167 26.8375 5.55576 26.8182C5.68543 26.8002 5.7695 26.7337 5.80796 26.6186L5.80844 26.6171L5.80902 26.6157C5.92479 26.3353 5.1272 24.2566 3.41623 20.3797C2.96691 19.4055 2.56144 18.3051 2.19981 17.0787C1.85159 15.8978 1.4651 14.7828 1.04035 13.7337C0.564615 12.5339 0.267717 11.6691 0.149657 11.1392C0.0293739 10.5993 0.0280477 10.1127 0.145678 9.67949C0.373551 8.84305 0.725902 8.36794 1.20273 8.25414C1.67654 8.14108 2.29403 8.38282 3.0552 8.97937C3.69286 9.47407 4.16129 9.80535 4.46049 9.97322L4.46194 9.97404L4.46333 9.97496C4.9141 10.2747 5.58711 10.7381 6.48236 11.3651C7.53912 12.1276 8.40179 12.721 9.07036 13.1454C9.17226 13.2113 9.33976 13.3195 9.57288 13.4701C10.9432 14.3555 11.7712 14.9133 12.057 15.1435C12.1889 15.2488 12.3109 15.3311 12.4228 15.3905C12.514 15.4389 12.5611 15.4608 12.5641 15.4562L12.5665 15.4526L12.5696 15.4495C12.6079 15.4113 12.4555 14.8681 12.1124 13.8199C11.7237 12.6082 11.4376 11.6273 11.2542 10.8773C10.561 8.13064 9.84696 5.63772 9.11194 3.39851C8.73301 2.26462 8.47962 1.41186 8.35176 0.840231C8.28895 0.559427 8.25697 0.348036 8.25582 0.206058C8.25521 0.131302 8.26329 0.0739776 8.28005 0.0340846C8.30196 -0.0180617 8.33725 -0.0441348 8.3859 -0.0441348C8.49275 -0.0441347 8.66612 0.218317 8.90602 0.743221C9.13432 1.24275 9.34407 1.79218 9.53525 2.39154C9.95794 3.76181 10.7136 5.74989 11.8021 8.35577C12.3053 9.57233 12.9484 11.1662 13.7313 13.1374C14.4869 15.0399 14.898 16.0956 14.9646 16.3046C15.0338 16.5289 15.4603 16.9373 16.244 17.5298C17.0387 18.1306 17.8254 18.6341 18.6042 19.0401L18.6838 19.0832L20.0355 19.8253L20.037 19.8263C20.2863 19.9921 20.7678 20.2826 21.4814 20.6979C22.3034 21.1989 22.8892 21.6044 23.2388 21.9144C23.2715 21.9426 23.3187 21.9835 23.3804 22.0372C23.6638 22.2841 23.8355 22.411 23.8955 22.418C23.9066 22.4192 23.9145 22.4173 23.9191 22.412C23.9282 22.4017 23.9342 22.3813 23.9371 22.3509C23.9444 22.2742 23.9281 22.1438 23.8884 21.9597C23.7778 21.4473 23.1417 19.435 21.9799 15.923C21.8529 15.5391 21.7487 15.2241 21.6674 14.978L21.4962 14.4626L19.0955 7.13952C17.8924 3.29565 17.2319 1.23018 17.1142 0.943097L17.114 0.942607L17.1138 0.942038C17.0132 0.677648 16.9639 0.51241 16.9658 0.446324C16.9684 0.356877 17.0374 0.312154 17.1729 0.312154C17.445 0.312154 18.322 2.2277 19.8037 6.0588C20.5521 7.9995 21.0512 9.18505 21.301 9.61545C21.5089 9.97374 21.8078 10.7246 22.1976 11.868L22.1977 11.8685L22.1979 11.869C22.5369 12.947 22.8335 13.7163 23.0874 14.1768L23.0877 14.1773L23.088 14.1779C23.9964 15.9397 25.241 18.6603 26.822 22.3397L27.6791 24.2811L27.6387 24.2989L27.661 24.2608L29.4291 25.294C30.3412 25.8113 30.9972 26.1283 31.3972 26.2451C31.5968 26.3033 31.7423 26.3166 31.8336 26.285C31.9128 26.2575 31.9524 26.1893 31.9524 26.0803C31.9524 25.9025 31.5426 24.7379 30.7229 22.5866C29.3694 19.08 28.8837 17.0997 29.2659 16.6459L29.2663 16.6455L29.2666 16.6451C29.4068 16.4866 29.6824 16.3588 30.0932 16.2617C30.5052 16.1644 30.8006 16.158 30.9795 16.2425C31.1738 16.3319 31.9735 16.8496 33.3785 17.7956C33.8896 18.1432 34.5576 18.6667 35.3827 19.3663C35.7366 19.6663 36.0604 19.9132 36.354 20.1068C36.6291 20.2883 36.7808 20.3677 36.809 20.3452L36.8113 20.3434L36.8138 20.3418C36.9136 20.2822 36.9244 19.9702 36.8464 19.406C36.7459 18.6315 36.8972 18.0864 37.3004 17.7708C37.7074 17.4522 38.2098 17.4901 38.8075 17.8845C39.1101 18.0785 40.1006 19.0126 41.7791 20.6869C42.4682 21.3655 43.0829 21.94 43.6232 22.4107C44.1386 22.8596 44.4092 23.0737 44.4351 23.053L44.4366 23.0518L44.4382 23.0508C44.5441 22.9803 44.5971 22.6719 44.5971 22.1255L44.6412 22.1255L44.5971 22.1272C44.576 21.5786 44.6123 21.1521 44.7062 20.8477L44.7063 20.8473L44.7065 20.8467C44.7736 20.6461 44.8661 20.5255 44.9841 20.4849C45.0943 20.447 45.3272 20.4508 45.6827 20.4963L45.6771 20.54L45.6816 20.4961C46.0315 20.5319 46.3325 20.6097 46.5846 20.7295C46.8264 20.8445 47.1875 21.0782 47.6678 21.4308C47.7433 21.4868 47.8032 21.5225 47.8473 21.5378C47.8761 21.5478 47.8935 21.5487 47.8994 21.5405C47.9284 21.5004 47.9016 21.3687 47.819 21.1454C47.6475 20.6813 47.1944 19.7739 46.4599 18.4234C45.2591 16.1874 44.4289 14.5759 43.9694 13.5888C43.519 12.621 42.8184 10.9471 41.8677 8.5673C40.9295 6.19679 40.3063 4.50922 39.9979 3.50458C39.6846 2.48414 39.6146 1.88747 39.7879 1.71457C39.8811 1.62164 39.9847 1.59117 40.0989 1.62315C40.2065 1.65329 40.3252 1.74237 40.455 1.8904C40.697 2.16628 41.0161 2.69937 41.4123 3.48967C41.8585 4.40083 42.3749 5.2357 42.9616 5.99428C43.5575 6.77158 43.9994 7.42679 44.2871 7.9599L44.2483 7.98087L44.2865 7.95877C44.6313 8.55485 44.9805 9.03901 45.334 9.41125L45.3344 9.41168L45.3349 9.41218C45.6889 9.80693 46.1662 10.4258 46.7668 11.2687C47.7484 12.67 49.5572 14.8421 52.1931 17.785C53.6688 19.4344 54.6243 20.4188 55.0595 20.7383C55.2973 20.9129 55.4717 20.9792 55.5829 20.9372C55.6793 20.9007 55.7564 20.7648 55.8143 20.5295C55.9317 20.0072 56.0955 19.6538 56.3058 19.4692C56.5137 19.2867 56.8523 19.1954 57.3216 19.1955C57.8811 19.1955 58.4029 19.2613 58.887 19.393C59.2632 19.4912 59.9322 19.7953 60.8942 20.3051C61.8469 20.81 62.8308 21.3806 63.846 22.0169C64.2696 22.2923 64.5964 22.3918 64.8267 22.3152L64.8279 22.3148L64.829 22.3145C65.0538 22.2534 65.5042 21.766 66.1803 20.8523C66.8599 19.934 67.4445 19.22 67.9342 18.7102C68.7554 17.8551 69.7722 17.3076 70.9847 17.0675C72.2003 16.8268 73.7328 16.8713 75.5821 17.2009C76.9155 17.4543 77.9739 17.6144 78.7571 17.6814L78.7579 17.6814L78.7586 17.6815C79.2827 17.7446 79.636 17.8234 79.8184 17.9177C80.0025 18.0129 80.2657 18.2538 80.6081 18.6403C81.0918 19.2104 81.3336 19.5705 81.3336 19.7206C81.3336 19.8076 81.2443 19.8666 81.0656 19.8974C80.9088 19.9245 80.6786 19.9329 80.3749 19.9228C79.7556 19.9021 78.8736 19.8077 77.7289 19.6395C76.9189 19.5166 75.8931 19.4752 74.6515 19.5153C73.4266 19.5549 72.5177 19.6553 71.9247 19.8166C71.3511 19.9838 70.5419 20.6563 69.4971 21.8342C68.4471 23.0178 67.7361 24.0647 67.364 24.9747C67.1178 25.571 66.8458 25.9063 66.548 25.9806C66.5222 25.9869 66.4875 25.9961 66.4439 26.0084C66.2483 26.0637 66.0178 26.0183 65.7523 25.8723C65.496 25.7315 64.6947 25.2143 63.3483 24.3208C63.1509 24.1898 62.9973 24.0879 62.8874 24.015C60.9644 22.7482 59.953 22.1644 59.8532 22.2637C59.7584 22.3583 59.7897 22.5191 59.9473 22.7461C60.1187 22.9931 60.4399 23.3169 60.911 23.7175C61.8325 24.501 63.4304 25.6564 65.7046 27.1838C67.4956 28.3891 68.4689 29.0804 68.6243 29.2578C68.7838 29.4449 68.89 29.837 68.9432 30.4343C68.9965 31.0329 68.9642 31.4812 68.8465 31.7793C68.7041 32.1392 68.452 32.2976 68.0903 32.2545C67.7453 32.2135 67.0843 31.956 66.1073 31.4822C64.332 30.6158 62.2033 29.0875 59.7214 26.8973C58.3969 25.7199 56.7279 24.1473 54.7145 22.1794C52.6838 20.1944 51.2736 18.7551 50.484 17.8615C49.2281 16.4248 48.4129 15.513 48.0386 15.1262C47.8348 14.9156 47.6866 14.7784 47.5938 14.7146C47.5317 14.6719 47.4925 14.6586 47.4764 14.6747C47.4023 14.7486 47.8068 15.6108 48.6897 17.2614C49.5852 18.9356 50.7368 20.9592 52.1446 23.3322C52.8359 24.5087 53.5389 25.7981 54.2534 27.2004C54.7405 28.1721 55.0191 28.7743 55.089 29.007C55.1641 29.2566 55.1421 29.5277 55.0229 29.8202L55.0227 29.8207L55.0224 29.8213C54.6785 30.6025 54.274 30.9254 53.8088 30.7901L53.8067 30.7895L53.8048 30.7887C53.5765 30.6977 53.1827 30.2229 52.6233 29.3645C52.2583 28.7874 51.5487 27.8752 50.4945 26.6277C49.4415 25.3815 48.7194 24.5988 48.3281 24.2796C48.1457 24.1307 48.0047 24.106 47.905 24.2054C47.8279 24.2824 47.9366 24.8395 48.2311 25.8768C48.53 26.9297 48.8531 27.8647 49.2004 28.6818L49.624 29.6372L49.0102 30.1752C48.6105 30.532 48.2771 30.6898 48.01 30.6488C47.819 30.6202 47.6353 30.4868 47.4588 30.2484C47.2869 30.0161 46.9421 29.4416 46.4245 28.5248C46.0798 27.9181 45.5925 27.1772 44.9626 26.3021C44.3305 25.4496 43.434 24.451 42.2728 23.306C41.1193 22.1684 40.4323 21.5996 40.212 21.5996C40.0033 21.5996 39.8989 21.6086 39.8989 21.6267C39.8989 21.702 40.1302 22.3829 40.5929 23.6694C41.0579 24.9625 41.4149 25.915 41.6638 26.5269C42.0144 27.3877 42.1948 27.9941 42.2051 28.3459C42.2158 28.7142 42.0509 28.9644 41.7103 29.0965C41.2865 29.2527 40.9302 29.2504 40.6415 29.0894C40.3581 28.9315 40.0357 28.5597 39.6744 27.974C38.6278 26.249 37.7802 24.9548 37.1316 24.0916C36.4955 23.245 35.774 22.446 34.9669 21.6947C34.1763 20.9593 33.6435 20.5052 33.3683 20.3325C33.1181 20.1754 32.9471 20.1693 32.8553 20.3142C32.7919 20.4172 32.9339 20.9386 33.2814 21.8786C33.6316 22.8258 34.1157 23.9828 34.7336 25.3496C35.3327 26.6517 35.6732 27.5588 35.7549 28.0708C35.8396 28.6009 35.6872 28.9369 35.2978 29.079C34.3879 29.4239 33.7803 29.2919 33.4751 28.6832L33.5146 28.6634L33.4759 28.6846C33.2781 28.3229 32.8506 28.0028 32.1936 27.7243L32.1932 27.7241L32.1927 27.7239C31.8238 27.5577 31.0736 27.2073 29.942 26.6727L29.9416 26.6725C29.1291 26.2673 28.7199 26.0706 28.714 26.0823L28.7108 26.0887L28.7058 26.0938C28.7024 26.0971 29.1518 27.0334 30.0538 28.9025C30.9774 30.8163 31.9418 32.7847 32.9469 34.8076C33.7715 36.4743 34.1838 37.4487 34.1838 37.731C34.1838 37.991 33.949 38.3664 33.4795 38.8571C33.0105 39.3471 32.6531 39.5922 32.4073 39.5922C32.1611 39.5922 31.9238 39.4602 31.6952 39.1961C31.472 38.9383 31.0658 38.3329 30.4766 37.3801C29.8126 36.3477 29.0553 34.742 28.2048 32.563C27.3487 30.4281 26.8739 29.2908 26.7805 29.1511L26.8172 29.1266L26.7827 29.1542C26.6985 29.0491 26.5768 28.7475 26.4179 28.2493C26.2733 27.7958 25.9345 26.96 25.4015 25.7417L24.6156 23.9245L24.6561 23.907L24.6356 23.946L23.0818 23.1265C22.0585 22.5836 21.4819 22.3122 21.3521 22.3122C21.1854 22.3122 21.0657 22.2516 20.9928 22.1305L21.0306 22.1077L20.9934 22.1314C20.934 22.0383 20.1877 21.5949 18.7544 20.8013C17.3325 20.0139 16.6073 19.6344 16.579 19.6628L16.5784 19.6633L16.5778 19.6639C16.4695 19.7642 17.3702 21.818 19.28 25.8253C21.1946 29.8423 22.493 32.3837 23.1752 33.4495C23.6589 34.2 24.1775 35.1097 24.7311 36.1786C25.2864 37.2509 25.6091 37.9667 25.6991 38.3259C25.8713 38.9747 25.5958 39.4842 24.8727 39.8545C24.4042 40.0928 24.0214 40.1703 23.7245 40.0871C23.4247 40.0031 23.0633 39.7143 22.6402 39.2205C22.1586 38.68 21.5972 37.8044 20.9559 36.5937L20.9559 36.5938ZM21.0339 36.5524C21.6718 37.7568 22.2296 38.627 22.7072 39.163C23.1187 39.6433 23.4657 39.923 23.7483 40.0021C24.0231 40.0791 24.3846 40.0037 24.8325 39.776C25.5133 39.4272 25.7737 38.951 25.6135 38.3474C25.5251 37.9949 25.2049 37.2855 24.6527 36.2192C24.1004 35.1527 23.5831 34.2454 23.1009 33.4971C22.4168 32.4284 21.1166 29.8838 19.2003 25.8633C17.2719 21.8169 16.3777 19.7289 16.5178 19.5991L16.5478 19.6315L16.5166 19.6003C16.5763 19.5407 17.3365 19.9154 18.7972 20.7241C20.2435 21.525 21.0004 21.9782 21.0678 22.084L21.0681 22.0845L21.0684 22.085C21.1242 22.1776 21.2187 22.2239 21.3521 22.2239C21.4966 22.2239 22.0869 22.4987 23.1229 23.0485L24.6905 23.8752L25.4824 25.7064C26.0166 26.9274 26.3565 27.7661 26.502 28.2225C26.6576 28.7102 26.7741 29.0024 26.8516 29.099L26.8528 29.1005L26.8539 29.1021C26.9506 29.2468 27.4284 30.3897 28.2871 32.5309C29.1354 34.7045 29.8903 36.3054 30.5517 37.3336C31.1384 38.2825 31.5419 38.884 31.762 39.1384C31.9729 39.382 32.188 39.5039 32.4073 39.5039C32.628 39.5039 32.9641 39.268 33.4157 38.796C33.8689 38.3224 34.0955 37.9674 34.0955 37.731C34.0956 37.4624 33.6863 36.501 32.8678 34.8469C29.9821 29.039 28.574 26.1005 28.6434 26.0313L28.6746 26.0625L28.6351 26.0427C28.6674 25.9785 29.1154 26.1618 29.9793 26.5927L29.9797 26.5929C31.1109 27.1273 31.8606 27.4775 32.229 27.6434L32.2108 27.6836L32.2281 27.643C32.904 27.9295 33.3457 28.2626 33.5533 28.6422L33.5537 28.6429L33.554 28.6436C33.8354 29.2049 34.4066 29.3224 35.2676 28.9961C35.6114 28.8706 35.7448 28.5668 35.6678 28.0847C35.5872 27.5807 35.249 26.6811 34.6531 25.3859C33.2349 22.2489 32.6108 20.5426 32.7808 20.267C32.9039 20.0726 33.1154 20.0695 33.4153 20.2577C33.6951 20.4334 34.2324 20.8908 35.027 21.63C35.8379 22.385 36.563 23.1878 37.2022 24.0386C37.8526 24.9041 38.7017 26.2005 39.7495 27.9277C40.1028 28.5003 40.4144 28.8618 40.6844 29.0123C40.9495 29.1601 41.2809 29.1607 41.6784 29.0142C41.9802 28.8971 42.1263 28.6752 42.1168 28.3485C42.1069 28.0072 41.9286 27.4111 41.582 26.5601C41.3326 25.9471 40.9752 24.9935 40.5098 23.6992C40.0437 22.4031 39.8107 21.7123 39.8107 21.6267C39.8107 21.5498 39.9444 21.5113 40.212 21.5113C40.4564 21.5113 41.164 22.0886 42.3348 23.2431C43.4991 24.3913 44.3989 25.3938 45.0342 26.2505C45.666 27.1282 46.155 27.8718 46.5013 28.4814C47.0172 29.395 47.36 29.9665 47.5298 30.1959C47.6917 30.4147 47.8563 30.5366 48.0234 30.5616C48.2631 30.5983 48.5726 30.4474 48.952 30.1088L49.5414 29.5922L49.5705 29.6254L49.5302 29.6433L49.1191 28.7163C48.7705 27.8958 48.4462 26.9573 48.1462 25.9009C47.8422 24.8303 47.741 24.2443 47.8427 24.1429C47.9799 24.006 48.1604 24.0288 48.384 24.2112C48.7794 24.5339 49.5054 25.3204 50.562 26.5707C51.6188 27.8213 52.3306 28.7364 52.6972 29.3163C53.2465 30.1591 53.6266 30.6226 53.8375 30.7067L53.8211 30.7477L53.8335 30.7053C54.2492 30.8263 54.6186 30.5197 54.9416 29.7858L54.982 29.8035L54.9411 29.7869C55.0524 29.5136 55.0736 29.2621 55.0045 29.0324C54.936 28.8046 54.6594 28.2073 54.1747 27.2405C53.4611 25.8397 52.759 24.5519 52.0686 23.3772C50.6603 21.003 49.508 18.9783 48.6118 17.303C47.7083 15.6139 47.309 14.7169 47.414 14.6122C47.4648 14.5616 47.5414 14.5715 47.6438 14.6419C47.7414 14.709 47.8942 14.85 48.102 15.0648C48.4774 15.4528 49.2934 16.3655 50.5502 17.803C51.3383 18.6949 52.747 20.1327 54.7762 22.1162C56.7887 24.0832 58.4565 25.6548 59.7798 26.8311C62.2557 29.016 64.3777 30.5399 66.1458 31.4028C67.1139 31.8723 67.7655 32.127 68.1008 32.1669C68.4175 32.2046 68.6387 32.0646 68.7644 31.7469C68.877 31.4617 68.9073 31.0268 68.8553 30.4421C68.8038 29.8635 68.7047 29.4882 68.558 29.316C68.4073 29.1443 67.4398 28.458 65.6554 27.2571C63.3783 25.7278 61.7778 24.5704 60.8539 23.7847C60.3769 23.3792 60.0505 23.0498 59.8748 22.7965C59.6892 22.529 59.6612 22.3305 59.7909 22.2012C59.9244 22.068 60.9729 22.6481 62.9362 23.9414C63.0374 24.0086 63.1911 24.1105 63.3971 24.2473C64.7415 25.1394 65.5407 25.6553 65.7948 25.795C66.0392 25.9293 66.2475 25.9722 66.4199 25.9235C66.4646 25.9109 66.5001 25.9014 66.5266 25.895C66.7957 25.8279 67.0475 25.51 67.2823 24.9413C67.6581 24.022 68.3743 22.9668 69.431 21.7756C70.4872 20.5851 71.3107 19.9037 71.9015 19.7314C72.5012 19.5683 73.4169 19.4669 74.6487 19.4271C75.8957 19.3868 76.9268 19.4285 77.7418 19.5522C78.8832 19.7199 79.7619 19.814 80.3778 19.8346C80.6755 19.8445 80.8997 19.8365 81.0506 19.8104C81.1804 19.788 81.2453 19.7581 81.2453 19.7206C81.2453 19.5921 81.0109 19.2515 80.542 18.6988C80.2069 18.3205 79.9522 18.0863 79.7779 17.9961C79.6048 17.9067 79.2616 17.831 78.7481 17.7692L78.7534 17.7254L78.7496 17.7693C77.9634 17.7021 76.9024 17.5416 75.5666 17.2878C73.7281 16.9601 72.2065 16.9155 71.0019 17.1541C69.8076 17.3905 68.8063 17.9296 67.9979 18.7714C67.5107 19.2784 66.9285 19.9895 66.2513 20.9048C65.563 21.8349 65.0967 22.3332 64.8522 22.3997L64.8406 22.3571L64.8545 22.399C64.5973 22.4845 64.2456 22.3821 63.7992 22.0917C62.7859 21.4565 61.8038 20.887 60.8528 20.3831C59.897 19.8765 59.234 19.5748 58.8639 19.4781C58.3874 19.3485 57.8734 19.2837 57.3216 19.2837C56.8744 19.2837 56.5552 19.3677 56.364 19.5355C56.1681 19.7075 56.0134 20.0458 55.9 20.5506C55.8348 20.8159 55.7394 20.9723 55.6141 21.0197C55.473 21.0731 55.2708 21.003 55.0072 20.8094C54.5672 20.4863 53.6072 19.4978 52.1273 17.8439C49.489 14.8983 47.6782 12.7237 46.6949 11.32C46.0962 10.4797 45.621 9.8634 45.2692 9.47112L45.302 9.44165L45.27 9.47204C44.9117 9.09478 44.5584 8.60508 44.2101 8.00296L44.2098 8.00237L44.2095 8.00183C43.9238 7.47284 43.4846 6.82166 42.8918 6.04828C42.3014 5.28496 41.782 4.44527 41.3334 3.52922C40.9406 2.74568 40.6257 2.21881 40.3887 1.94861C40.2704 1.81372 40.1658 1.73357 40.0751 1.70815C39.994 1.68544 39.9191 1.70841 39.8503 1.77706C39.702 1.92492 39.7794 2.49212 40.0823 3.47867C40.3902 4.48109 41.0127 6.16638 41.9497 8.53455C42.8997 10.9129 43.5997 12.5852 44.0494 13.5515C44.5082 14.537 45.3375 16.1469 46.5374 18.3812C47.274 19.7355 47.7288 20.6467 47.9018 21.1148C47.9952 21.3675 48.0183 21.5266 47.971 21.5921C47.9394 21.6359 47.8885 21.6456 47.8183 21.6212C47.7657 21.6029 47.6981 21.5631 47.6155 21.502C47.1397 21.1527 46.7834 20.9218 46.5467 20.8093C46.3038 20.6938 46.0124 20.6187 45.6726 20.5839L45.672 20.5839L45.6715 20.5838C45.3296 20.5401 45.11 20.535 45.0128 20.5684C44.9222 20.5996 44.8481 20.7016 44.7902 20.8747L44.7484 20.8607L44.7906 20.8737C44.6996 21.1685 44.6645 21.5852 44.6853 22.1238L44.6854 22.1247L44.6854 22.1255C44.6854 22.7034 44.6193 23.0363 44.4871 23.1243L44.4626 23.0875L44.4902 23.122C44.3561 23.2289 43.4316 22.438 41.7168 20.7494C40.0427 19.0796 39.0568 18.1492 38.7589 17.9582C38.1965 17.5871 37.7285 17.5478 37.3549 17.8403C36.978 18.1353 36.8377 18.6531 36.9338 19.3939C37.0172 19.9967 36.9923 20.3379 36.8592 20.4176L36.8365 20.3797L36.864 20.4142C36.7329 20.5188 36.2201 20.192 35.3256 19.4336C34.5029 18.7361 33.8374 18.2145 33.3292 17.8689C31.9281 16.9255 31.1323 16.41 30.9418 16.3223C30.7815 16.2466 30.5055 16.255 30.1135 16.3476C29.7209 16.4404 29.4606 16.559 29.3327 16.7035L29.2997 16.6743L29.3334 16.7027C28.9736 17.1299 29.4643 19.0807 30.8054 22.5552C31.6289 24.7166 32.0406 25.8917 32.0406 26.0803C32.0406 26.2312 31.9813 26.3272 31.8625 26.3684C31.7534 26.4061 31.5901 26.3933 31.3724 26.3298C30.9658 26.2111 30.3032 25.8913 29.3846 25.3702L27.6041 24.3298L26.7409 22.3745C25.1607 18.697 23.9169 15.9783 23.0095 14.2183L23.0488 14.1981L23.0101 14.2194C22.7533 13.7537 22.4545 12.9791 22.1137 11.8955L22.1558 11.8822L22.114 11.8965C21.7261 10.7586 21.4297 10.013 21.2246 9.65976C20.9725 9.22535 20.4714 8.03565 19.7214 6.09064C18.2542 2.29716 17.4047 0.400423 17.1729 0.400423C17.0946 0.400423 17.055 0.416566 17.0541 0.448851C17.0525 0.503261 17.0999 0.657198 17.1963 0.910663L17.155 0.92635L17.1959 0.909603C17.3145 1.19903 17.9757 3.26651 19.1794 7.11202L21.5799 14.4348L21.7512 14.9503C21.8326 15.1964 21.9367 15.5114 22.0637 15.8952C23.2265 19.4103 23.8635 21.4256 23.9747 21.9411C24.0163 22.1341 24.0331 22.2735 24.0249 22.3592C24.0202 22.4086 24.007 22.4456 23.9854 22.4703C23.9604 22.4987 23.927 22.5105 23.8853 22.5056C23.8072 22.4965 23.6195 22.3626 23.3224 22.1038C23.2606 22.0499 23.2132 22.0088 23.1802 21.9804C22.8345 21.6739 22.2535 21.2718 21.4371 20.7741C20.7219 20.358 20.2389 20.0666 19.9882 19.8998L20.0126 19.8631L19.9914 19.9018L18.6417 19.1608L18.5634 19.1184C17.7803 18.7101 16.9894 18.204 16.1908 17.6002C15.3919 16.9962 14.9551 16.5733 14.8805 16.3314C14.8145 16.1244 14.4041 15.0706 13.6492 13.17C12.8665 11.1991 12.2236 9.6057 11.7207 8.38979C10.631 5.78128 9.87451 3.7908 9.45116 2.41836C9.26104 1.82237 9.05257 1.27622 8.82574 0.779913C8.60156 0.289394 8.45494 0.0441345 8.3859 0.0441343C8.37635 0.0441343 8.36819 0.0521824 8.36143 0.0682786C8.34936 0.0970073 8.34358 0.142696 8.34408 0.205343C8.34518 0.341059 8.37646 0.546266 8.4379 0.820964C8.5651 1.38966 8.81773 2.23967 9.1958 3.37098C9.93156 5.61218 10.6463 8.1073 11.3399 10.8563C11.5228 11.6044 11.8083 12.5831 12.1963 13.7925C12.5507 14.875 12.6959 15.4482 12.632 15.512L12.6008 15.4807L12.6375 15.5053C12.6049 15.554 12.5195 15.5418 12.3814 15.4685C12.2646 15.4066 12.138 15.3211 12.0016 15.2123C11.7183 14.984 10.8927 14.428 9.52498 13.5443C9.29421 13.3952 9.1269 13.2871 9.02306 13.2199C8.353 12.7946 7.48923 12.2004 6.43173 11.4374C5.53704 10.8108 4.86462 10.3478 4.41446 10.0485L4.43889 10.0117L4.4173 10.0502C4.11428 9.88019 3.6421 9.5464 3.00075 9.04884C2.26192 8.4698 1.66941 8.23352 1.22322 8.34C0.780335 8.44569 0.44955 8.8999 0.230863 9.70262C0.117042 10.1218 0.118692 10.5943 0.235814 11.12C0.352861 11.6453 0.648312 12.5055 1.12217 13.7006C1.54801 14.7523 1.93544 15.87 2.28448 17.0537C2.6449 18.276 3.04907 19.3728 3.49698 20.3441C5.2181 24.244 6.01597 26.3457 5.89061 26.6494L5.84982 26.6326L5.89167 26.6466C5.84165 26.7963 5.73372 26.8826 5.5679 26.9057C5.42157 26.926 5.10305 26.9089 4.61235 26.8546C3.87044 26.7675 3.12854 26.5825 2.38664 26.2995C1.34217 25.8861 0.640851 25.79 0.282681 26.0111C0.135099 26.1011 0.0558293 26.4822 0.0448713 27.1544C0.0338439 27.8308 0.103638 28.24 0.254253 28.3819L0.25471 28.3823L0.255158 28.3828C0.463827 28.5909 1.43071 29.036 3.15582 29.718C4.87653 30.3983 6.30258 30.8996 7.43398 31.222C8.06215 31.4077 8.46777 31.6019 8.65085 31.8048L8.61808 31.8344L8.64925 31.8031C8.85663 32.0101 9.44301 32.9155 10.4084 34.5194C11.3755 36.1264 11.8591 37.0009 11.8591 37.1431C11.8591 37.231 12.0267 37.4685 12.3618 37.8557C12.6961 38.2419 12.9008 38.435 12.9759 38.435C13.1554 38.435 13.3936 38.3215 13.6902 38.0945C13.989 37.8659 14.1592 37.6642 14.2009 37.4894C14.2524 37.2667 14.2205 37.0204 14.1051 36.7507C13.9854 36.4709 13.6318 35.825 13.0444 34.8129C12.5525 33.921 12.3066 33.421 12.3066 33.313C12.3066 33.2241 12.3543 33.1636 12.4498 33.1317C12.5333 33.1037 12.6602 33.0983 12.8307 33.1154C13.1537 33.1479 13.6942 33.2708 14.4522 33.4842C15.3775 33.7419 16.5495 34.0208 17.9682 34.3209L20.0956 34.7885L21.0339 36.5523L21.0339 36.5524ZM16.148 25.0409C15.9515 24.3221 15.6604 23.4924 15.2747 22.552L14.6416 20.9783L14.0777 19.5582L14.0775 19.5577C13.8312 18.891 13.6318 18.4397 13.4791 18.2036C13.3345 17.98 13.1301 17.798 12.8658 17.6574L12.8651 17.6571L12.8645 17.6567C12.6586 17.5378 12.0969 17.1967 11.1792 16.6332C11.082 16.5735 11.0183 16.5344 10.9882 16.516C10.2348 16.0414 9.55035 15.6198 8.93475 15.2514C8.30857 14.8766 7.89086 14.6147 7.68162 14.4656L7.70723 14.4297L7.68341 14.4668C7.2627 14.1971 6.848 13.9725 6.43931 13.7932L6.43864 13.7929L6.43799 13.7925C5.93762 13.553 5.41269 13.2733 4.86319 12.9536L4.86267 12.9533L4.86213 12.953C4.53709 12.7514 4.32716 12.6421 4.23233 12.6249C4.15634 12.6111 4.09597 12.66 4.05122 12.7716L4.01026 12.7551L4.05212 12.7691C3.98461 12.9711 4.28224 14.0425 4.94501 15.9831C5.56578 17.8583 6.49648 20.3702 7.73713 23.5189C8.97036 26.6486 9.67922 28.3055 9.86371 28.4897L9.86452 28.4905L9.86531 28.4913C10.048 28.6938 10.4934 28.8914 11.2015 29.084C11.8939 29.2724 12.5467 29.5592 13.1601 29.9443C13.6133 30.2368 14.6054 30.7086 16.1364 31.3595C17.6645 32.0093 18.5646 32.3429 18.8367 32.3604C18.9106 32.365 18.9588 32.3639 18.9813 32.3572C18.9944 32.3532 19.0005 32.3431 18.9996 32.3266C18.9967 32.2699 18.9164 32.0888 18.7589 31.7834C18.5019 31.2705 18.0465 30.169 17.3929 28.4789C16.7441 26.801 16.3292 25.6553 16.1483 25.0418L16.148 25.0409ZM16.2329 25.0168C16.4132 25.628 16.8273 26.7714 17.4753 28.4471C18.1278 30.1346 18.5819 31.2332 18.8374 31.7429C19.0007 32.0596 19.0841 32.2526 19.0878 32.322C19.0911 32.3845 19.0641 32.4245 19.0068 32.4417C18.9742 32.4515 18.9156 32.4538 18.831 32.4485C18.5489 32.4303 17.6392 32.0944 16.1019 31.4408C14.5662 30.7878 13.5699 30.3139 13.1131 30.0191C12.5072 29.6385 11.8622 29.3552 11.1783 29.1692C10.4536 28.972 9.99405 28.7658 9.79977 28.5505L9.83254 28.5209L9.80137 28.5522C9.60815 28.3595 8.89269 26.6925 7.65501 23.5513C6.41369 20.4009 5.48251 17.8877 4.86148 16.0116C4.19228 14.0522 3.89458 12.962 3.9684 12.7411L3.96881 12.7399L3.9693 12.7387C4.03191 12.5826 4.12484 12.5157 4.24808 12.538C4.35391 12.5572 4.57409 12.6705 4.90865 12.878L4.88539 12.9155L4.90758 12.8773C5.45503 13.1959 5.97787 13.4744 6.47611 13.7129L6.45705 13.7527L6.47478 13.7123C6.8877 13.8935 7.30646 14.1203 7.73105 14.3925L7.73197 14.3931L7.73284 14.3937C7.94017 14.5415 8.35592 14.8021 8.98008 15.1757C9.59622 15.5444 10.281 15.9661 11.0344 16.4407C11.0737 16.4649 11.1374 16.504 11.2254 16.558C12.1424 17.121 12.7035 17.4618 12.9086 17.5803L12.8866 17.6185L12.9073 17.5795C13.185 17.7272 13.4003 17.9193 13.5532 18.1557C13.7094 18.3972 13.9118 18.8544 14.1603 19.5271L14.1189 19.5424L14.1599 19.5261L14.7235 20.9454L15.3563 22.5185C15.7434 23.4623 16.0357 24.2953 16.2332 25.0176L16.2329 25.0168Z" fill="rgb(0,0,0)" fill-rule="nonzero" transform="matrix(1,0,0,-1,0.0444946,40.1191)" />
</svg>
