<svg viewBox="0 0 141 24" xmlns="http://www.w3.org/2000/svg" xmlns:xlink="http://www.w3.org/1999/xlink" width="141.000000" height="24.000000" fill="none" customFrame="#000000">
	<path id="Vector" d="M54.1472 6.41703C49.1069 6.41703 45.6716 10.2032 45.6716 15.1763C45.6716 20.3101 48.9141 23.9037 54.1472 23.9037C57.9032 23.9037 60.6319 22.2351 61.9162 18.3208L57.9032 18.3208C57.6141 19.3476 56.1374 20.4705 54.3075 20.4705C51.7716 20.4705 50.3592 19.155 50.2305 16.2672L62.2053 16.2672C62.5257 11.1657 59.797 6.41703 54.1472 6.41703ZM50.2305 13.3795C50.2945 12.096 51.1294 9.84997 54.0188 9.84997C56.2337 9.84997 57.2286 11.0691 57.6461 13.3795L50.2305 13.3795ZM74.6992 17.1016L79.0973 17.1016C78.5188 21.4973 75.4694 23.9037 71.1036 23.9037C66.0956 23.9037 62.7247 20.3742 62.7247 15.401C62.7247 10.2352 65.8065 6.41703 71.1999 6.41703C75.1163 6.41703 78.7123 8.47036 79.001 12.7057L74.5388 12.7057C74.2497 10.8447 73.0621 9.8502 71.1676 9.8502C68.2465 9.8502 67.2832 12.802 67.2832 15.2406C67.2832 17.615 68.2145 20.4707 71.0716 20.4707C73.1901 20.4705 74.4101 19.1229 74.6992 17.1016ZM87.9703 20.0534C88.4517 20.0534 88.9012 20.0214 89.3826 19.9251L89.3826 23.4866C88.6121 23.615 87.6172 23.647 86.7179 23.647C83.9249 23.647 81.4852 23.0052 81.4852 19.7004L81.4852 9.91427L78.7242 9.91427L78.7242 6.86614L81.4852 6.86614L81.4852 1.89298L86.0437 1.89298L86.0437 6.86637L89.3826 6.86637L89.3826 9.91449L86.0437 9.91449L86.0437 18.1284C86.0437 19.6684 86.4288 20.0534 87.9703 20.0534ZM15.4416 12.6737L15.4416 12.6094C17.9778 11.5826 19.0692 9.56122 19.0692 6.86614C19.0692 3.40091 16.4687 0.545189 12.3593 0.545189L0 0.545189L0 23.4543L5.0399 23.4543L5.0399 14.5026L10.0803 14.5026C12.6164 14.5026 13.5474 15.5614 13.9006 17.9678C14.1577 19.7967 14.0936 22.0107 14.7032 23.4543L19.7436 23.4543C18.8446 22.1708 18.8767 19.4757 18.7801 18.0319C18.6196 15.7218 17.9132 13.3154 15.4416 12.6737ZM10.5617 10.909L5.0399 10.909L5.0399 4.45975L10.5617 4.45975C12.8094 4.45975 14.0288 5.42224 14.0288 7.63624C14.0288 9.9463 12.8092 10.909 10.5617 10.909ZM28.5357 6.41703C23.4957 6.41703 20.0607 10.2032 20.0607 15.1763C20.0607 20.3101 23.3028 23.9037 28.5357 23.9037C32.2919 23.9037 35.0205 22.2351 36.3047 18.3208L32.2919 18.3208C32.0027 19.3476 30.5263 20.4705 28.6966 20.4705C26.1605 20.4705 24.7474 19.155 24.6192 16.2672L36.5938 16.2672C36.9151 11.1657 34.1856 6.41703 28.5357 6.41703ZM24.6192 13.3795C24.6833 12.096 25.5182 9.84997 28.4074 9.84997C30.6224 9.84997 31.6175 11.0691 32.0348 13.3795L24.6192 13.3795ZM46.3238 9.91427L43.1777 9.91427L43.1777 23.4543L38.6192 23.4543L38.6192 9.91427L35.8902 9.91427L35.8902 6.86614L38.6192 6.86614L38.6192 5.58264C38.6192 2.66284 40.449 0.545189 44.1729 0.545189C44.9751 0.545189 45.81 0.641512 46.5806 0.673539L46.5806 4.07471C46.0266 4.00974 45.4688 3.9776 44.9111 3.97838C43.6911 3.97838 43.1777 4.49179 43.1777 5.87136L43.1777 6.86588L46.3238 6.86588L46.3238 9.91427ZM129.796 6.86614L134.355 6.86614L134.355 23.4543L129.796 23.4543L129.796 6.86614ZM141 0.545427L141 23.4546L136.442 23.4546L136.442 0.545427L141 0.545427ZM129.796 0.545427L134.355 0.545427L134.355 4.29936L129.796 4.29936L129.796 0.545427ZM97.7544 6.41703C92.5541 6.41703 89.1828 9.88223 89.1828 15.1763C89.1828 20.4385 92.5541 23.9037 97.7544 23.9037C102.987 23.9037 106.358 20.4385 106.358 15.1763C106.358 9.88223 102.987 6.41703 97.7544 6.41703ZM97.7544 20.4705C94.6726 20.4705 93.7417 17.8074 93.7417 15.1763C93.7417 12.5133 94.6726 9.8502 97.7544 9.8502C100.869 9.8502 101.8 12.5133 101.8 15.1763C101.8 17.8074 100.869 20.4705 97.7544 20.4705ZM123.546 14.6309L128.426 14.6309C127.912 20.3421 123.964 24 118.345 24C111.25 24 107.078 18.7059 107.078 12.0962C107.078 5.29414 111.25 0 118.345 0C123.385 0 127.623 2.95181 128.233 8.24594L123.353 8.24594C123.033 5.96791 120.85 4.23533 118.345 4.23533C113.819 4.23533 112.117 8.08558 112.117 12.0962C112.117 15.9144 113.819 19.7647 118.345 19.7647C121.427 19.7647 123.161 17.647 123.546 14.6309Z" fill="rgb(0,0,0)" fill-rule="nonzero" />
</svg>
