<svg viewBox="0 0 86.1965 29.4355" xmlns="http://www.w3.org/2000/svg" xmlns:xlink="http://www.w3.org/1999/xlink" width="86.196533" height="29.435547" fill="none" customFrame="#000000">
	<path id="Vector" d="M18.1224 23.2359C19.0465 23.2359 19.7652 23.5384 20.3812 24.1432C20.9459 24.748 21.254 25.4537 21.254 26.3105C21.254 27.2178 20.9459 27.9234 20.3812 28.5282C19.8166 29.1331 19.0465 29.4355 18.1224 29.4355L3.23433 29.4355C2.61819 29.3851 2.05352 29.234 1.59147 28.9315C1.12942 28.6291 0.770079 28.2763 0.51336 27.8226C0.256719 27.369 0.154016 26.865 0.154016 26.3105C0.154016 25.756 0.308032 25.2016 0.616063 24.6472L12.3725 6.35086L3.13171 6.35086C2.31024 6.35086 1.54016 6.04844 0.924094 5.49398C0.308031 4.93961 0 4.18352 0 3.27625C0 2.41937 0.308031 1.71375 0.924094 1.05852C1.54016 0.453671 2.25885 0.15125 3.13171 0.15125L18.0197 0.15125C18.5844 0.20164 19.1492 0.35289 19.6112 0.655312C20.0732 0.957734 20.4839 1.36094 20.7406 1.81461C20.9972 2.2682 21.1513 2.82258 21.1513 3.37711C21.1513 3.93148 20.9972 4.48594 20.6379 5.04039L8.98423 23.1855L18.1224 23.1855L18.1224 23.2359ZM34.9099 0.20164C36.3474 0.20164 37.6822 0.453671 38.9144 1.00812C40.1464 1.5625 41.2759 2.2682 42.1999 3.22586C43.124 4.18351 43.8941 5.29242 44.4588 6.50211C45.0236 7.76219 45.3316 9.12305 45.4343 10.5847L45.4343 19.0021C45.3829 20.3629 45.0749 21.6734 44.5102 22.984C43.9454 24.244 43.2267 25.3529 42.3026 26.3105C41.3785 27.2682 40.3004 28.0243 39.017 28.5787C37.7335 29.1331 36.3987 29.4355 34.9099 29.4355C33.4725 29.4355 32.1377 29.1835 30.8542 28.6291C29.5708 28.0747 28.4927 27.369 27.5173 26.4113C26.5418 25.4537 25.7718 24.3448 25.207 23.0847C24.6423 21.8247 24.3343 20.4638 24.2316 19.0021L24.2316 10.5847C24.2829 9.22383 24.5396 7.91336 25.1044 6.60289C25.6691 5.34281 26.4391 4.23398 27.3633 3.27625C28.2873 2.31852 29.4168 1.5625 30.7003 1.00812C32.0863 0.504062 33.4725 0.20164 34.9099 0.20164ZM34.9099 23.2359C35.4747 23.2359 36.0394 23.1351 36.5527 22.9335C37.0662 22.7319 37.5282 22.4295 37.8876 22.0262C38.2982 21.623 38.6062 21.1694 38.8116 20.6654C39.0684 20.1613 39.171 19.6069 39.171 19.0021L39.171 10.5847C39.171 10.0303 39.0684 9.47586 38.8116 8.92148C38.5549 8.41742 38.2469 7.96375 37.8876 7.56055C37.4768 7.15727 37.0662 6.90531 36.5527 6.6532C36.0394 6.45164 35.4747 6.35086 34.9099 6.35086C34.2939 6.35086 33.7291 6.45164 33.2158 6.6532C32.7023 6.85492 32.2404 7.15727 31.8296 7.56055C31.419 7.96375 31.1109 8.36695 30.9056 8.92148C30.7003 9.42539 30.5975 9.97992 30.5975 10.5847L30.5975 19.0021C30.5975 20.2118 31.0082 21.2198 31.8809 22.0262C32.651 22.8327 33.6778 23.2359 34.9099 23.2359ZM62.8893 23.0343C63.7106 23.0343 64.4293 23.3368 65.0454 23.9416C65.6615 24.5465 65.9695 25.2521 65.9695 26.109C65.9695 27.0162 65.6615 27.7218 65.0454 28.3266C64.4293 28.9315 63.7106 29.234 62.8893 29.234L51.1841 29.234C50.26 29.234 49.5413 28.9315 48.9253 28.3266C48.3605 27.7218 48.0011 27.0162 47.9498 26.109L47.9498 3.07469C47.9498 2.21781 48.2578 1.51219 48.8738 0.907265C49.49 0.3025 50.26 0 51.1328 0C51.9541 0 52.673 0.3025 53.289 0.907265C53.905 1.51219 54.2644 2.21781 54.2644 3.07469L54.2644 23.0343L62.8893 23.0343ZM86.1965 9.2743C86.1965 9.2743 86.1965 9.2743 86.1965 9.375L86.1965 13.0545L86.1965 19.2541L86.1965 26.3609C86.1965 27.2178 85.8888 27.9234 85.2726 28.5282C84.6563 29.1331 83.9378 29.4355 83.0654 29.4355C82.1407 29.4355 81.4222 29.1331 80.8059 28.5282C80.1905 27.9234 79.882 27.2178 79.882 26.3609L79.882 21.0182L73.7729 21.0182L73.7729 26.3609C73.7729 27.2178 73.4652 27.9234 72.849 28.5282C72.2328 29.1331 71.4627 29.4355 70.5903 29.4355C69.7171 29.4355 68.9985 29.1331 68.3824 28.5282C67.8177 27.9234 67.5097 27.2178 67.5097 26.3609L67.5097 19.2541L67.5097 13.0545L67.5097 9.375L67.5097 9.2743C67.5097 8.01414 67.7663 6.85492 68.2797 5.74602C68.7931 4.63719 69.4602 3.67945 70.2818 2.87305C71.1034 2.06656 72.1304 1.41133 73.2598 0.907265C74.3891 0.453672 75.6208 0.20164 76.8532 0.20164C78.1364 0.20164 79.3173 0.453672 80.4467 0.907265C81.576 1.36094 82.5515 2.01617 83.4247 2.87305C84.2455 3.67945 84.9133 4.63719 85.4264 5.74602C85.8888 6.85492 86.1965 8.01414 86.1965 9.2743ZM79.9335 9.375C79.9335 8.56867 79.6258 7.86289 79.0096 7.25812C78.3934 6.6532 77.6749 6.35086 76.8532 6.35086C76.0316 6.35086 75.3131 6.6532 74.6969 7.25812C74.0806 7.86289 73.8245 8.56867 73.8245 9.375L73.8245 14.8187L79.9335 14.8187L79.9335 9.375Z" fill="rgb(174,37,115)" fill-rule="evenodd" />
</svg>
