<svg viewBox="0 0 129.521 39.7812" xmlns="http://www.w3.org/2000/svg" xmlns:xlink="http://www.w3.org/1999/xlink" width="129.521194" height="39.781250" fill="none" customFrame="#000000">
	<g id="Group">
		<path id="Vector" d="M52.3479 12.8235C51.6458 12.4959 50.897 12.3555 50.1482 12.2619C49.0951 12.1448 48.0421 12.0044 46.9891 11.8874C46.638 11.8406 46.2636 11.7938 45.936 11.6768C45.6552 11.5832 45.3978 11.4194 45.2574 11.1854C45.117 10.928 45.117 10.6238 45.1872 10.343C45.2808 9.99196 45.585 9.71115 45.9126 9.54734C46.4508 9.28993 47.0593 9.21973 47.6443 9.19633C48.7675 9.12613 49.9376 9.21973 51.014 9.57075C51.6224 9.75795 52.2075 10.0622 52.7457 10.4132C53.0733 9.89836 53.4009 9.40694 53.7285 8.89212C52.8393 8.28369 51.8564 7.81568 50.8034 7.60507C50.0546 7.41786 49.2823 7.37106 48.5335 7.34766L48.0421 7.34766C47.1763 7.37106 46.287 7.48806 45.4446 7.79227C44.6958 8.04968 43.9937 8.4943 43.5491 9.14953C43.0811 9.82816 42.9875 10.694 43.1747 11.4896C43.2683 11.981 43.5257 12.4491 43.9001 12.8001C44.2979 13.1745 44.8128 13.4085 45.3276 13.5723C45.8658 13.7361 46.4274 13.8297 47.0125 13.8765C48.0655 13.9935 49.0951 14.1105 50.1482 14.2275C50.546 14.2743 50.9672 14.3211 51.3416 14.4615C51.6224 14.5785 51.8799 14.7658 52.0203 15.0466C52.2075 15.4678 52.1841 16.0294 51.8799 16.4038C51.5756 16.7782 51.131 16.9888 50.6864 17.1058C49.6802 17.3867 48.6037 17.3633 47.5741 17.2697C46.1934 17.1526 44.883 16.6144 43.7363 15.8422C43.4087 16.3804 43.0811 16.9186 42.7535 17.4335C43.6427 18.0653 44.6256 18.5801 45.702 18.8375C46.5444 19.0715 47.4103 19.1417 48.2761 19.1651L48.6739 19.1651C49.9376 19.1183 51.248 18.9779 52.3713 18.3929C53.1201 18.0185 53.7753 17.3399 54.0093 16.5208C54.2199 15.7018 54.1731 14.7892 53.7519 14.0403C53.4009 13.4787 52.9095 13.0809 52.3479 12.8235Z" fill="rgb(0,0,0)" fill-rule="evenodd" />
		<path id="Vector" d="M45.702 18.8375C46.5444 19.0715 47.4103 19.1417 48.2761 19.1651L48.6739 19.1651C49.9376 19.1183 51.248 18.9779 52.3713 18.3929C53.1201 18.0185 53.7753 17.3399 54.0093 16.5208C54.2199 15.7018 54.1731 14.7892 53.7519 14.0403C53.4009 13.4787 52.9095 13.0809 52.3479 12.8235C51.6458 12.4959 50.897 12.3555 50.1482 12.2619C49.0951 12.1448 48.0421 12.0044 46.9891 11.8874C46.638 11.8406 46.2636 11.7938 45.936 11.6768C45.6552 11.5832 45.3978 11.4194 45.2574 11.1854C45.117 10.928 45.117 10.6238 45.1872 10.343C45.2808 9.99196 45.585 9.71115 45.9126 9.54734C46.4508 9.28993 47.0593 9.21973 47.6443 9.19633C48.7675 9.12613 49.9376 9.21973 51.014 9.57075C51.5971 9.75016 52.1587 10.037 52.6782 10.3696C52.7008 10.384 52.7233 10.3986 52.7457 10.4132C52.9267 10.1288 53.1077 9.85147 53.2887 9.57344C53.4353 9.34822 53.5819 9.12251 53.7285 8.89212C53.5828 8.79239 53.4345 8.69642 53.2838 8.60475C53.1495 8.52304 53.0132 8.44474 52.8752 8.3702C52.2231 8.01824 51.53 7.75038 50.8034 7.60507C50.0546 7.41786 49.2823 7.37106 48.5335 7.34766L48.0421 7.34766C47.1763 7.37106 46.287 7.48806 45.4446 7.79227C44.6958 8.04968 43.9937 8.4943 43.5491 9.14953C43.0811 9.82816 42.9875 10.694 43.1747 11.4896C43.2683 11.981 43.5257 12.4491 43.9001 12.8001C44.2979 13.1745 44.8128 13.4085 45.3276 13.5723C45.8658 13.7361 46.4274 13.8297 47.0125 13.8765C48.0655 13.9935 49.0951 14.1105 50.1482 14.2275C50.546 14.2743 50.9672 14.3211 51.3416 14.4615C51.6224 14.5785 51.8799 14.7658 52.0203 15.0466C52.2075 15.4678 52.1841 16.0294 51.8799 16.4038C51.5756 16.7782 51.131 16.9888 50.6864 17.1058C49.6802 17.3867 48.6037 17.3633 47.5741 17.2697C46.4923 17.178 45.4536 16.8277 44.503 16.3089C44.2404 16.1656 43.9845 16.0094 43.7363 15.8422C43.5623 16.128 43.3883 16.4139 43.2144 16.6962C43.0607 16.9455 42.9071 17.192 42.7535 17.4335C43.6427 18.0653 44.6256 18.5801 45.702 18.8375ZM53.1386 15.5246C53.1361 15.266 53.0917 15.0235 53.0053 14.7969C52.9732 14.7126 52.9352 14.6305 52.8915 14.5507C52.8877 14.5447 52.8838 14.5388 52.88 14.5328C52.8919 14.5547 52.9035 14.5769 52.9147 14.5994L52.9248 14.6197L52.9341 14.6404C53.0048 14.7996 53.0574 14.9626 53.0917 15.1293C53.1183 15.2588 53.134 15.3906 53.1386 15.5246ZM45.321 12.5089C45.0443 12.3815 44.8125 12.2137 44.6254 12.0057C44.5411 11.912 44.466 11.81 44.3999 11.6999L44.3893 11.6823L44.3795 11.6643C44.3097 11.5362 44.255 11.4038 44.2154 11.2671C44.1118 10.9083 44.1123 10.5194 44.217 10.1004C44.2455 9.99349 44.2811 9.89084 44.3237 9.7925C44.2772 9.86887 44.2372 9.94794 44.2039 10.0297C44.058 10.3881 44.0394 10.7984 44.1481 11.2606L44.153 11.2815L44.157 11.3025C44.1814 11.4302 44.2213 11.5501 44.2769 11.6622C44.3513 11.8122 44.4537 11.9483 44.5841 12.0705C44.7607 12.2368 45.0064 12.3829 45.321 12.5089Z" fill="rgb(0,0,0)" fill-rule="evenodd" />
		<path id="Vector" d="M129.243 14.0872C128.963 13.5723 128.495 13.1511 127.956 12.8937C127.231 12.5193 126.412 12.3555 125.616 12.2853C124.563 12.1683 123.51 12.0279 122.457 11.9109C122.012 11.8641 121.544 11.7939 121.147 11.6067C120.913 11.4897 120.702 11.279 120.632 11.0216C120.562 10.7408 120.585 10.4366 120.702 10.1792C120.866 9.87499 121.147 9.68779 121.451 9.54738C122.012 9.31337 122.597 9.26657 123.183 9.21977C124.119 9.19637 125.055 9.24317 125.967 9.45378C126.763 9.64098 127.488 10.0154 128.167 10.4366C128.495 9.92179 128.822 9.43038 129.15 8.91556C128.448 8.44754 127.699 8.04972 126.88 7.79231C125.944 7.4881 124.938 7.39449 123.955 7.37109L123.463 7.37109C122.48 7.39449 121.474 7.5349 120.585 7.93272C119.93 8.19013 119.321 8.61134 118.947 9.21977C118.479 9.9452 118.409 10.8812 118.643 11.7003C118.807 12.3087 119.251 12.8235 119.789 13.1511C120.491 13.5723 121.334 13.7361 122.129 13.8298C123.323 13.9702 124.516 14.0872 125.71 14.2276C126.131 14.2744 126.576 14.3446 126.95 14.5552C127.184 14.6956 127.371 14.8828 127.465 15.1402C127.605 15.538 127.582 16.006 127.324 16.3337C127.09 16.6613 126.716 16.8719 126.342 17.0123C125.686 17.2463 124.984 17.3165 124.282 17.3399C123.276 17.3399 122.27 17.2463 121.31 16.9421C120.538 16.6847 119.789 16.3102 119.111 15.8422C118.783 16.3805 118.456 16.9187 118.128 17.4335C118.83 17.9249 119.579 18.3461 120.398 18.6269C121.427 19.0014 122.551 19.1184 123.651 19.1418L124.048 19.1418C125.218 19.1184 126.412 18.978 127.488 18.4865C128.167 18.1823 128.799 17.6909 129.15 17.0357C129.407 16.5443 129.501 15.9826 129.501 15.4444C129.571 14.9764 129.454 14.485 129.243 14.0872Z" fill="rgb(0,0,0)" fill-rule="evenodd" />
		<path id="Vector" d="M127.956 12.8937C127.231 12.5193 126.412 12.3555 125.616 12.2853C124.563 12.1683 123.51 12.0279 122.457 11.9109C122.012 11.8641 121.544 11.7939 121.147 11.6067C120.913 11.4897 120.702 11.279 120.632 11.0216C120.562 10.7408 120.585 10.4366 120.702 10.1792C120.866 9.87499 121.147 9.68779 121.451 9.54738C122.012 9.31337 122.597 9.26657 123.183 9.21977C124.119 9.19637 125.055 9.24317 125.967 9.45378C126.763 9.64098 127.488 10.0154 128.167 10.4366C128.495 9.92179 128.822 9.43038 129.15 8.91556C129.053 8.85099 128.955 8.78776 128.856 8.72605C128.672 8.61092 128.485 8.50108 128.294 8.39773C127.845 8.15494 127.375 7.94796 126.88 7.79231C125.944 7.4881 124.938 7.39449 123.955 7.37109L123.463 7.37109C122.48 7.39449 121.474 7.5349 120.585 7.93272C119.93 8.19013 119.321 8.61134 118.947 9.21977C118.479 9.9452 118.409 10.8812 118.643 11.7003C118.807 12.3087 119.251 12.8235 119.789 13.1511C120.491 13.5723 121.334 13.7361 122.129 13.8298C123.323 13.9702 124.516 14.0872 125.71 14.2276C126.131 14.2744 126.576 14.3446 126.95 14.5552C127.184 14.6956 127.371 14.8828 127.465 15.1402C127.605 15.538 127.582 16.006 127.324 16.3337C127.09 16.6613 126.716 16.8719 126.342 17.0123C125.686 17.2463 124.984 17.3165 124.282 17.3399C123.276 17.3399 122.27 17.2463 121.31 16.9421C120.85 16.7887 120.398 16.5938 119.965 16.3623C119.671 16.2052 119.385 16.0314 119.111 15.8422C118.937 16.1282 118.763 16.4142 118.589 16.6966C118.435 16.9458 118.281 17.1922 118.128 17.4335C118.83 17.9249 119.579 18.3461 120.398 18.6269C121.427 19.0014 122.551 19.1184 123.651 19.1418L124.048 19.1418C125.218 19.1184 126.412 18.978 127.488 18.4865C128.167 18.1823 128.799 17.6909 129.15 17.0357C129.407 16.5443 129.501 15.9826 129.501 15.4444C129.571 14.9764 129.454 14.485 129.243 14.0872C128.963 13.5723 128.495 13.1511 127.956 12.8937ZM128.52 15.217C128.535 15.0054 128.481 14.7848 128.36 14.555C128.329 14.4983 128.295 14.4437 128.257 14.3913C128.155 14.2474 128.03 14.12 127.881 14.0092C128.017 14.136 128.132 14.2756 128.226 14.428C128.297 14.544 128.357 14.6675 128.405 14.7985C128.455 14.941 128.494 15.0805 128.52 15.217ZM119.813 9.72041C119.808 9.72819 119.803 9.73601 119.799 9.74386C119.706 9.88734 119.635 10.0376 119.586 10.1946C119.47 10.5668 119.476 10.9771 119.604 11.4255C119.622 11.4904 119.644 11.5531 119.671 11.6137C119.79 11.8828 120.003 12.1106 120.309 12.2969C120.39 12.3453 120.478 12.3909 120.574 12.4337C120.302 12.2778 120.086 12.0834 119.926 11.8505C119.81 11.6821 119.724 11.4935 119.667 11.2848C119.584 10.9549 119.569 10.636 119.619 10.328C119.651 10.1362 119.708 9.94869 119.792 9.7654L119.806 9.73475L119.813 9.72041Z" fill="rgb(0,0,0)" fill-rule="evenodd" />
		<path id="Vector" d="M83.8221 7.65294L83.7987 7.62954C83.12 7.60614 82.4414 7.62954 81.7628 7.62954C81.7628 7.86355 81.7628 8.07416 81.7628 8.30817C81.7628 11.8417 81.7628 15.3519 81.7628 18.862C85.1559 18.862 88.5257 18.862 91.9188 18.862C91.9188 18.2302 91.9188 17.5983 91.9188 16.9899L83.8221 16.9899C83.8221 13.8776 83.8221 10.7653 83.8221 7.65294Z" fill="rgb(0,0,0)" fill-rule="evenodd" />
		<path id="Vector" d="M83.8221 15.9899L83.8221 7.65294L83.7987 7.62954C83.3463 7.61394 82.8938 7.61914 82.4414 7.62434C82.2152 7.62694 81.989 7.62954 81.7628 7.62954L81.7628 18.862L91.9188 18.862L91.9188 16.9899L83.8221 16.9899L83.8221 15.9899ZM82.8221 17.862L82.8221 8.621C82.8026 8.62112 82.7828 8.62125 82.7628 8.62138L82.7628 17.862L82.8221 17.862Z" fill="rgb(0,0,0)" fill-rule="evenodd" />
		<path id="Vector" d="M113.729 12.7303C114.899 11.022 116.069 9.31374 117.239 7.60547C116.466 7.60547 115.671 7.60547 114.899 7.60547C114.782 7.67567 114.735 7.81608 114.665 7.93308C113.752 9.26693 112.816 10.6008 111.927 11.958C110.616 11.958 109.306 11.958 108.019 11.958C108.019 10.5072 108.019 9.05633 108.019 7.60547C107.34 7.60547 106.661 7.60547 105.959 7.60547C105.959 11.3496 105.959 15.0938 105.959 18.8379C106.638 18.8379 107.34 18.8379 108.019 18.8379L108.019 13.8301C109.353 13.8301 110.663 13.8301 111.997 13.8301C113.05 15.4916 114.08 17.1765 115.133 18.8379L117.566 18.8379C116.279 16.8254 115.016 14.8364 113.729 12.8473L113.729 12.7303Z" fill="rgb(0,0,0)" fill-rule="evenodd" />
		<path id="Vector" d="M113.729 12.7303L116.554 8.60547L117.239 7.60547L114.899 7.60547C114.782 7.67567 114.735 7.81608 114.665 7.93308C113.752 9.26693 112.816 10.6008 111.927 11.958L108.019 11.958L108.019 7.60547L105.959 7.60547L105.959 18.8379L108.019 18.8379L108.019 13.8301L111.997 13.8301C113.05 15.4916 114.08 17.1765 115.133 18.8379L117.566 18.8379C117.353 18.504 117.14 18.1707 116.927 17.8379C115.859 16.1653 114.802 14.5063 113.729 12.8473L113.729 12.7303ZM115.74 17.8379L113.967 15.0633L113.337 14.0854L114.412 15.8033L115.686 17.8379L115.74 17.8379ZM112.729 13.1143L112.729 12.5589L112.551 12.8303L112.729 13.1143ZM107.019 12.958L107.019 8.60547L106.959 8.60547L106.959 17.8379L107.019 17.8379L107.019 12.958Z" fill="rgb(0,0,0)" fill-rule="evenodd" />
		<path id="Vector" d="M66.95 9.47754L66.95 7.60547C63.0889 7.60547 59.2043 7.60547 55.3432 7.60547C55.3432 8.23729 55.3432 8.86912 55.3432 9.47754L60.117 9.47754C60.117 12.5899 60.117 15.7256 60.117 18.8379C60.7956 18.8379 61.4976 18.8379 62.1997 18.8379C62.1997 15.7256 62.1997 12.5899 62.1997 9.45414C63.7675 9.50094 65.3588 9.47754 66.95 9.47754Z" fill="rgb(0,0,0)" fill-rule="evenodd" />
		<path id="Vector" d="M63.1997 9.47533C64.0476 9.48676 64.9009 9.48362 65.7559 9.48047C66.1537 9.47901 66.5519 9.47754 66.95 9.47754L66.95 7.60547L55.3432 7.60547L55.3432 9.47754L60.117 9.47754L60.117 18.8379L62.1997 18.8379L62.1997 9.45414C62.532 9.46406 62.8654 9.47083 63.1997 9.47533ZM61.1997 17.8379L61.1997 8.60547L61.117 8.60547L61.117 17.8379L61.1997 17.8379Z" fill="rgb(0,0,0)" fill-rule="evenodd" />
		<path id="Vector" d="M95.6396 16.9658C95.6396 15.983 95.6396 14.5789 95.6396 14.5789L102.847 12.3559L95.663 12.3559C95.663 11.4432 95.663 10.3902 95.663 9.47754C98.3307 9.47754 100.975 9.47754 103.643 9.47754C103.643 8.86912 103.643 8.23729 103.643 7.60547C100.296 7.60547 96.9501 7.60547 93.5803 7.60547C93.5803 11.3496 93.5803 15.0938 93.5803 18.8379L103.947 18.8379C103.947 18.2061 103.947 17.5743 103.947 16.9424C101.162 16.9658 98.4009 16.9658 95.6396 16.9658Z" fill="rgb(0,0,0)" fill-rule="evenodd" />
		<path id="Vector" d="M96.663 9.47754L103.643 9.47754L103.643 7.60547L93.5803 7.60547L93.5803 18.8379L103.947 18.8379L103.947 16.9424C103.613 16.9452 103.28 16.9477 102.947 16.9499C100.836 16.9637 98.737 16.9655 96.6396 16.9658C96.3064 16.9658 95.9732 16.9658 95.6399 16.9658L95.6396 16.9658L95.6396 14.5789L102.847 12.3559L95.663 12.3559L95.663 9.47754L96.663 9.47754ZM96.2122 13.3559L95.3449 13.6234L94.6396 13.8409L94.6396 17.8379L94.5803 17.8379L94.5803 8.60547L94.663 8.60547L94.663 13.3559L96.2122 13.3559Z" fill="rgb(0,0,0)" fill-rule="evenodd" />
		<path id="Vector" d="M71.326 7.60547C69.688 11.3496 68.0499 15.0938 66.4118 18.8379C67.1607 18.8379 68.6115 18.8379 68.6115 18.8379L69.4306 16.9424L76.0764 14.8832L70.2964 14.8832C70.8814 13.4791 71.9813 10.8348 72.5663 9.45414C72.9875 9.45414 73.4321 9.45414 73.8533 9.45414C74.649 11.373 77.5507 18.2295 77.8081 18.8379C78.5335 18.8379 79.259 18.8379 79.9844 18.8379C78.3931 15.0938 76.8019 11.3496 75.2106 7.60547C73.9235 7.62887 72.6131 7.62887 71.326 7.60547Z" fill="rgb(0,0,0)" fill-rule="evenodd" />
		<path id="Vector" d="M76.2789 15.2209C77.0363 17.014 77.6918 18.5631 77.8081 18.8379L79.9844 18.8379L79.5594 17.8379L75.2106 7.60547C73.9235 7.62887 72.6131 7.62887 71.326 7.60547L66.4118 18.8379L68.6115 18.8379L69.4306 16.9424L75.1699 15.1641L76.0764 14.8832L70.2964 14.8832C70.4165 14.5949 70.5583 14.2543 70.7129 13.8832C71.3113 12.4465 72.1014 10.5513 72.5663 9.45414L73.8533 9.45414C74.2022 10.2955 74.956 12.0862 75.7142 13.8832C75.7223 13.9024 75.7304 13.9217 75.7386 13.9409C75.7962 14.0775 75.8538 14.2141 75.9113 14.3502C76.0352 14.6438 76.1584 14.9355 76.2789 15.2209ZM69.4705 15.8832L68.7963 15.8832L68.8007 15.8725L67.9409 17.8379L67.9543 17.8379L68.6951 16.1234L69.4705 15.8832ZM78.17 17.1254L78.4711 17.8379L78.4728 17.8379L78.17 17.1254Z" fill="rgb(0,0,0)" fill-rule="evenodd" />
		<path id="Vector" d="M23.6349 20.7566L15.5382 32.1997L15.5382 39.7582C15.5382 39.7816 15.5616 39.7816 15.5616 39.7816L29.3682 32.7145C30.4212 32.1763 31.0764 31.0998 31.0764 29.9064L31.0764 23.8222L31.0764 23.5647L31.0764 17.4805C31.0764 16.2871 30.4212 15.2106 29.3682 14.6724L15.5616 7.6053C15.5382 7.6053 15.5382 7.6053 15.5382 7.6287L15.5382 13.8534C15.5382 14.6724 15.9828 15.4212 16.7082 15.7722L23.2605 19.1186C23.8455 19.3994 24.0327 20.195 23.6349 20.7566ZM7.41807 19.0016C7.02026 19.5632 7.20747 20.3588 7.81589 20.663L14.3682 24.0094C15.0936 24.3838 15.5382 25.1092 15.5382 25.9282L15.5382 32.1529C15.5382 32.1763 15.5148 32.1763 15.5148 32.1763L1.70825 25.1092C0.655204 24.571 -2.28882e-05 23.4945 -2.28882e-05 22.3011L-2.28882e-05 16.2168L-2.28882e-05 15.9594L-2.28882e-05 9.87519C-2.28882e-05 8.68175 0.655204 7.6053 1.70825 7.06708L15.5148 0C15.5382 0 15.5382 8.9407e-08 15.5382 0.023401L15.5382 7.5819C15.5382 7.5819 15.5382 7.5819 15.5382 7.6053L7.41807 19.0016Z" fill="rgb(0,0,0)" fill-rule="evenodd" />
		<path id="Vector" d="M15.5382 30.4684L15.5382 25.9282C15.5382 25.1092 15.0936 24.3838 14.3682 24.0094L7.81589 20.663C7.20747 20.3588 7.02026 19.5632 7.41807 19.0016L14.5382 9.00876L15.5382 7.6053L15.5382 0.023401C15.5382 0.0117001 15.5382 0.00584982 15.5353 0.0029248C15.5323 0 15.5265 0 15.5148 0L14.6367 0.449483L14.5382 0.499888L1.70825 7.06708C0.655204 7.6053 -2.28882e-05 8.68175 -2.28882e-05 9.87519L-2.28882e-05 22.3011C-2.28882e-05 23.4945 0.655204 24.571 1.70825 25.1092L14.5382 31.6764L14.6258 31.7212L14.6448 31.731L15.5148 32.1763C15.5148 32.1763 15.5382 32.1763 15.5382 32.1529L15.5382 30.4684ZM14.5382 30.553L14.5382 25.9282C14.5382 25.6914 14.4854 25.4869 14.3799 25.3148C14.2757 25.145 14.1202 25.0067 13.9133 24.8999L7.36436 21.5553C7.36325 21.5547 7.36215 21.5542 7.36105 21.5536C7.08259 21.4132 6.85361 21.2326 6.67411 21.0117C6.48121 20.7744 6.34546 20.4906 6.26684 20.1604C6.1918 19.8453 6.18232 19.5428 6.2384 19.253C6.29451 18.9631 6.41627 18.6858 6.60366 18.4213L14.5382 7.28548L14.5382 1.62328L2.16336 7.95752C1.97656 8.05299 1.8102 8.16999 1.66426 8.30851C1.53008 8.43588 1.41316 8.58145 1.31352 8.74521C1.22247 8.89486 1.15125 9.05079 1.09986 9.213C1.03327 9.42318 0.999977 9.64392 0.999977 9.87519L0.999977 16.2168L0.999977 22.3011C0.999977 22.5324 1.03327 22.7531 1.09986 22.9633C1.15125 23.1255 1.22247 23.2814 1.31352 23.4311C1.41247 23.5937 1.5285 23.7384 1.6616 23.8652C1.80829 24.0049 1.97572 24.1229 2.16389 24.219L14.5382 30.553ZM15.5382 33.176L15.5382 39.7582C15.5382 39.7816 15.5616 39.7816 15.5616 39.7816L16.4506 39.3265L16.5382 39.2817L29.3682 32.7145C30.4212 32.1763 31.0764 31.0998 31.0764 29.9064L31.0764 17.4805C31.0764 16.2871 30.4212 15.2106 29.3682 14.6724L16.5382 8.10519L16.4442 8.05707L16.4397 8.05478L15.5616 7.6053C15.5382 7.6053 15.5382 7.6053 15.5382 7.6287L15.5382 13.8534C15.5382 14.6724 15.9828 15.4212 16.7082 15.7722L23.2605 19.1186C23.8455 19.3994 24.0327 20.195 23.6349 20.7566L16.5382 30.7864L15.5382 32.1997L15.5382 33.176ZM16.5382 32.5177L16.5382 38.1583L28.9125 31.8243C29.1007 31.7282 29.2681 31.6102 29.4148 31.4705C29.5479 31.3437 29.6639 31.199 29.7629 31.0364C29.8539 30.8867 29.9252 30.7308 29.9766 30.5686C30.0431 30.3584 30.0764 30.1377 30.0764 29.9064L30.0764 17.4805C30.0764 17.2492 30.0431 17.0285 29.9765 16.8183C29.9251 16.6561 29.8539 16.5002 29.7629 16.3505C29.6632 16.1867 29.5463 16.0412 29.4121 15.9138C29.2662 15.7753 29.0998 15.6583 28.913 15.5628L16.5382 9.22858L16.5382 13.8534C16.5382 14.1276 16.603 14.3554 16.7327 14.537C16.8319 14.6757 16.9689 14.7874 17.1438 14.8721L23.7057 18.2231C23.9692 18.3514 24.1878 18.5178 24.3617 18.7223C24.5673 18.9641 24.7103 19.2591 24.7907 19.6074C24.8636 19.9234 24.871 20.2262 24.8131 20.516C24.756 20.8016 24.6352 21.0745 24.4509 21.3346L16.5382 32.5177Z" fill="rgb(0,0,0)" fill-rule="evenodd" />
		<g id="Group">
			<path id="Vector" d="M46.8721 32.2476C46.0063 32.271 45.1404 31.9902 44.4852 31.4286C43.3386 30.4224 43.2216 28.6907 44.2278 27.544C44.298 27.4504 44.3916 27.3802 44.4852 27.2866C45.1638 26.725 46.0063 26.4442 46.8721 26.4676C47.7379 26.4208 48.6038 26.725 49.2824 27.2866C50.429 28.2929 50.546 30.0245 49.5398 31.1712C49.4696 31.2648 49.376 31.3584 49.2824 31.4286C48.6038 31.9902 47.7379 32.271 46.8721 32.2476ZM46.8721 31.452C47.5273 31.4754 48.1591 31.2648 48.6506 30.867C49.4696 30.1649 49.5866 28.9247 48.8846 28.0823C48.8144 28.0121 48.7442 27.9185 48.6506 27.8483C48.1591 27.4504 47.5273 27.2398 46.8721 27.2632C46.2403 27.2398 45.6084 27.4504 45.0936 27.8483C44.2746 28.5737 44.181 29.8373 44.9064 30.6564C44.9766 30.7266 45.0234 30.7968 45.0936 30.8436C45.6084 31.2648 46.2169 31.4754 46.8721 31.452Z" fill="rgb(0,0,0)" fill-rule="evenodd" />
			<path id="Vector" d="M44.2278 27.544C43.2216 28.6907 43.3386 30.4224 44.4852 31.4286C44.5106 31.4504 44.5364 31.4718 44.5625 31.4928C44.5838 31.5099 44.6054 31.5268 44.6271 31.5434C45.2552 32.0227 46.0485 32.2637 46.8437 32.2483C46.8531 32.2481 46.8626 32.2479 46.8721 32.2476C46.8816 32.2479 46.8911 32.2481 46.9005 32.2483C47.7569 32.2648 48.6112 31.9841 49.2824 31.4286C49.376 31.3584 49.4696 31.2648 49.5398 31.1712C50.546 30.0245 50.429 28.2929 49.2824 27.2866C49.247 27.2573 49.2111 27.2287 49.1747 27.2008C49.1665 27.1946 49.1583 27.1884 49.1501 27.1822C48.5011 26.6936 47.7023 26.4302 46.9016 26.4661C46.8918 26.4666 46.8819 26.4671 46.8721 26.4676C46.8626 26.4673 46.8531 26.4671 46.8437 26.4669C45.9878 26.4504 45.1564 26.7312 44.4852 27.2866C44.3916 27.3802 44.298 27.4504 44.2278 27.544ZM45.069 27.8704C45.0498 27.888 45.031 27.9059 45.0127 27.924C44.2692 28.659 44.2056 29.8652 44.9064 30.6564C44.9766 30.7266 45.0234 30.7968 45.0936 30.8436C45.6084 31.2648 46.2169 31.4754 46.8721 31.452C47.5273 31.4754 48.1591 31.2648 48.6506 30.867C49.4696 30.1649 49.5866 28.9247 48.8846 28.0823C48.8405 28.0382 48.7965 27.9849 48.7466 27.934C48.741 27.9282 48.7352 27.9225 48.7294 27.9168C48.7048 27.8927 48.6788 27.8694 48.6506 27.8483C48.1591 27.4504 47.5273 27.2398 46.8721 27.2632C46.2403 27.2398 45.6084 27.4504 45.0936 27.8483C45.0853 27.8556 45.0771 27.863 45.069 27.8704Z" fill="rgb(0,0,0)" fill-rule="evenodd" />
			<path id="Vector" d="M52.4415 29.556L52.4415 32.0599L51.5757 32.0599L51.5757 26.6309L56.6069 26.6309L56.6069 27.4265L52.4415 27.4265L52.4415 28.7837L55.1326 28.7837L55.1326 29.556L52.4415 29.556Z" fill="rgb(0,0,0)" fill-rule="evenodd" />
			<path id="Vector" d="M52.5757 27.4265L56.6069 27.4265L56.6069 26.6309L51.5757 26.6309L51.5757 32.0599L52.4415 32.0599L52.4415 29.556L55.1326 29.556L55.1326 28.7837L52.4415 28.7837L52.4415 27.4265L52.5757 27.4265Z" fill="rgb(0,0,0)" fill-rule="evenodd" />
			<path id="Vector" d="M58.5726 29.556L58.5726 32.0599L57.7301 32.0599L57.7301 26.6309L62.7613 26.6309L62.7613 27.4265L58.596 27.4265L58.596 28.7837L61.2871 28.7837L61.2871 29.556L58.5726 29.556Z" fill="rgb(0,0,0)" fill-rule="evenodd" />
			<path id="Vector" d="M58.7301 27.4265L62.7613 27.4265L62.7613 26.6309L57.7301 26.6309L57.7301 32.0599L58.5726 32.0599L58.5726 29.556L61.2871 29.556L61.2871 28.7837L58.596 28.7837L58.596 27.4265L58.7301 27.4265Z" fill="rgb(0,0,0)" fill-rule="evenodd" />
			<path id="Vector" d="M63.8846 32.0598L63.8846 26.6074L64.7504 26.6074L64.7504 32.0598L63.8846 32.0598Z" fill="rgb(0,0,0)" fill-rule="evenodd" />
			<path id="Vector" d="M63.8846 26.6074L64.7504 26.6074L64.7504 32.0598L63.8846 32.0598L63.8846 26.6074Z" fill="rgb(0,0,0)" fill-rule="evenodd" />
			<path id="Vector" d="M72.3789 30.7485C72.0746 31.2165 71.6534 31.6143 71.162 31.8717C70.6238 32.1291 70.0388 32.2695 69.4303 32.2461C68.5645 32.2695 67.7455 31.9887 67.0902 31.4505C65.9436 30.4443 65.85 28.6892 66.8562 27.5425C66.9264 27.4723 66.9966 27.3787 67.0902 27.3085C67.7455 26.7469 68.5879 26.4427 69.4303 26.4661C69.992 26.4661 70.5302 26.5831 71.045 26.7937C71.513 27.0043 71.9108 27.3319 72.215 27.7297L71.5364 28.1978C71.3024 27.8702 70.9982 27.6361 70.6472 27.4723C70.2728 27.3085 69.8515 27.2149 69.4303 27.2383C68.7985 27.2149 68.1901 27.4255 67.6987 27.8234C66.8796 28.5254 66.786 29.7656 67.4881 30.5847C67.5583 30.6549 67.6285 30.7251 67.6987 30.7953C68.1901 31.1931 68.7985 31.4037 69.4303 31.3803C70.343 31.4037 71.1854 30.9591 71.6768 30.2103L72.3789 30.7485Z" fill="rgb(0,0,0)" fill-rule="evenodd" />
			<path id="Vector" d="M69.4624 32.2472C70.0593 32.2646 70.6333 32.1246 71.162 31.8717C71.3586 31.7687 71.5441 31.6432 71.7152 31.4998C71.8357 31.3988 71.9491 31.2889 72.0544 31.1717C72.1734 31.0392 72.282 30.8974 72.3789 30.7485L71.6768 30.2103C71.6642 30.2294 71.6514 30.2484 71.6384 30.2672C71.5784 30.3535 71.5137 30.4355 71.4447 30.513C71.2506 30.7309 71.0225 30.9129 70.7705 31.0531C70.7609 31.0584 70.7512 31.0637 70.7415 31.0689C70.3482 31.2811 69.8985 31.3923 69.4303 31.3803C68.7985 31.4037 68.1901 31.1931 67.6987 30.7953C67.6927 30.7893 67.6868 30.7834 67.6809 30.7775C67.674 30.7706 67.667 30.7636 67.6601 30.7567C67.6028 30.6994 67.5454 30.642 67.4881 30.5847C66.8741 29.8684 66.8687 28.83 67.4248 28.1111C67.4355 28.0973 67.4463 28.0837 67.4574 28.0701C67.5292 27.9823 67.6096 27.8997 67.6987 27.8234C68.1901 27.4255 68.7985 27.2149 69.4303 27.2383C69.8515 27.2149 70.2728 27.3085 70.6472 27.4723C70.6727 27.4843 70.698 27.4965 70.723 27.5092C70.7311 27.5133 70.7392 27.5174 70.7472 27.5216C71.0561 27.6821 71.3249 27.9017 71.5364 28.1978L72.215 27.7297C72.2123 27.7261 72.2095 27.7225 72.2068 27.719C72.001 27.4522 71.753 27.2175 71.4699 27.0289C71.3359 26.9397 71.194 26.8608 71.045 26.7937C70.5389 26.5867 70.0102 26.4701 69.4589 26.4662C69.4494 26.4661 69.4399 26.4661 69.4303 26.4661C69.416 26.4657 69.4017 26.4654 69.3874 26.4652C68.5593 26.4531 67.7343 26.7565 67.0902 27.3085C66.9966 27.3787 66.9264 27.4723 66.8562 27.5425C65.85 28.6892 65.9436 30.4443 67.0902 31.4505C67.7399 31.9841 68.5505 32.2647 69.4081 32.2467C69.4155 32.2465 69.4229 32.2463 69.4303 32.2461C69.441 32.2465 69.4517 32.2469 69.4624 32.2472Z" fill="rgb(0,0,0)" fill-rule="evenodd" />
			<path id="Vector" d="M73.8066 32.0598L73.8066 26.6074L74.6724 26.6074L74.6724 32.0598L73.8066 32.0598Z" fill="rgb(0,0,0)" fill-rule="evenodd" />
			<path id="Vector" d="M73.8066 26.6074L74.6724 26.6074L74.6724 32.0598L73.8066 32.0598L73.8066 26.6074Z" fill="rgb(0,0,0)" fill-rule="evenodd" />
			<path id="Vector" d="M75.5148 32.0598L78.2761 26.6074L78.8144 26.6074L81.5991 32.0598L80.6864 32.0598L79.9844 30.6792L77.1061 30.6792L76.4041 32.0598L75.5148 32.0598ZM77.5039 29.9772L79.6334 29.9772L78.5804 27.8945L77.5039 29.9772Z" fill="rgb(0,0,0)" fill-rule="evenodd" />
			<path id="Vector" d="M80.1359 30.9772L80.6864 32.0598L81.5991 32.0598L81.4109 31.6915L81.0884 31.0598L81.0461 30.9772L79.1069 27.1803L79.0022 26.9751L78.8144 26.6074L78.2761 26.6074L78.0884 26.9782L77.9851 27.1822L76.0631 30.9772L76.0213 31.0598L75.6969 31.7003L75.5148 32.0598L76.4041 32.0598L76.9546 30.9772L77.1061 30.6792L79.9844 30.6792L80.1359 30.9772ZM79.4125 29.9772L79.6334 29.9772L79.4827 29.6792L79.137 28.9954L79.1278 28.9772L78.6628 28.0574L78.5804 27.8945L78.4639 28.1198L78.0208 28.9772L78.0139 28.9904L77.6579 29.6792L77.5039 29.9772L79.4125 29.9772Z" fill="rgb(0,0,0)" fill-rule="evenodd" />
			<path id="Vector" d="M82.4181 32.0599L82.4181 26.6309L83.284 26.6309L83.284 31.2876L87.3323 31.2876L87.3323 32.0599L82.4181 32.0599Z" fill="rgb(0,0,0)" fill-rule="evenodd" />
			<path id="Vector" d="M83.284 26.6309L82.4181 26.6309L82.4181 32.0599L87.3323 32.0599L87.3323 31.2876L83.284 31.2876L83.284 26.6309Z" fill="rgb(0,0,0)" fill-rule="evenodd" />
			<path id="Vector" d="M96.5289 31.381L96.9501 30.6556C97.3245 30.913 97.7457 31.1002 98.1669 31.2406C98.5648 31.381 99.0094 31.4512 99.4306 31.4512C99.8518 31.4746 100.25 31.3576 100.601 31.147C100.881 30.9832 101.045 30.7024 101.045 30.3748C101.069 30.094 100.905 29.8131 100.647 29.6727C100.25 29.4855 99.805 29.4153 99.3604 29.4153C98.3776 29.3919 97.6989 29.2749 97.3245 29.0643C96.9501 28.8303 96.7395 28.4091 96.7629 27.9645C96.7629 27.4965 96.9969 27.0752 97.3713 26.8412C97.8627 26.537 98.4244 26.3732 99.0094 26.42C99.4774 26.42 99.922 26.4902 100.367 26.6072C100.811 26.7476 101.232 26.9348 101.63 27.1922L101.209 27.9411C100.881 27.7071 100.507 27.5199 100.109 27.4028C99.7582 27.2858 99.3604 27.2156 98.986 27.2156C98.635 27.1922 98.3074 27.2858 98.0031 27.4262C97.7925 27.5433 97.6521 27.7539 97.6287 27.9879C97.6287 28.2219 97.7691 28.4325 98.0031 28.5027C98.4244 28.6197 98.869 28.6899 99.3136 28.6665C99.9922 28.6197 100.671 28.7835 101.279 29.1111C101.724 29.3919 101.981 29.9067 101.934 30.445C101.934 30.9598 101.677 31.4278 101.256 31.732C100.741 32.083 100.133 32.2702 99.5008 32.2468C98.9626 32.2468 98.4478 32.1766 97.9329 32.0128C97.4415 31.8724 96.9735 31.6618 96.5289 31.381Z" fill="rgb(0,0,0)" fill-rule="evenodd" />
			<path id="Vector" d="M98.986 26.4182C98.4094 26.3776 97.8562 26.5411 97.3713 26.8412C96.9969 27.0752 96.7629 27.4965 96.7629 27.9645C96.7395 28.4091 96.9501 28.8303 97.3245 29.0643C97.6989 29.2749 98.3776 29.3919 99.3604 29.4153C99.805 29.4153 100.25 29.4855 100.647 29.6727C100.717 29.7109 100.78 29.7593 100.835 29.8153C100.849 29.8301 100.862 29.8453 100.875 29.8611C100.995 30.0057 101.061 30.1903 101.045 30.3748C101.045 30.6292 100.946 30.8554 100.771 31.0205C100.765 31.0259 100.759 31.0312 100.753 31.0364C100.707 31.0775 100.656 31.1145 100.601 31.147C100.25 31.3576 99.8518 31.4746 99.4306 31.4512C99.0094 31.4512 98.5648 31.381 98.1669 31.2406C97.9332 31.1627 97.6995 31.0704 97.4738 30.9597C97.302 30.8754 97.1349 30.7805 96.9759 30.6732C96.9673 30.6673 96.9587 30.6615 96.9501 30.6556L96.5289 31.381C96.649 31.4569 96.7709 31.5277 96.8945 31.5933C97.0664 31.6846 97.2416 31.766 97.4202 31.8375C97.5882 31.9047 97.7591 31.9632 97.9329 32.0128C98.4112 32.165 98.8894 32.2364 99.3865 32.2458C99.4012 32.246 99.4159 32.2463 99.4306 32.2464C99.454 32.2467 99.4774 32.2468 99.5008 32.2468C100.133 32.2702 100.741 32.083 101.256 31.732C101.676 31.4286 101.933 30.9622 101.934 30.4489L101.934 30.445C101.937 30.4215 101.938 30.3981 101.939 30.3748C101.954 29.9903 101.814 29.6226 101.564 29.3495C101.481 29.2586 101.385 29.1782 101.279 29.1111C101.138 29.0351 100.993 28.9679 100.845 28.9101C100.376 28.7267 99.8778 28.638 99.3783 28.6627C99.3723 28.663 99.3664 28.6633 99.3604 28.6636C99.3448 28.6645 99.3292 28.6654 99.3136 28.6665C98.869 28.6899 98.4244 28.6197 98.0031 28.5027C97.9081 28.4742 97.8285 28.4225 97.7675 28.3555C97.7582 28.3454 97.7494 28.3348 97.741 28.324C97.6685 28.2303 97.6287 28.1124 97.6287 27.9879C97.6521 27.7539 97.7925 27.5433 98.0031 27.4262C98.3074 27.2858 98.635 27.1922 98.986 27.2156C99.3604 27.2156 99.7582 27.2858 100.109 27.4028C100.111 27.4034 100.113 27.404 100.115 27.4045C100.128 27.4084 100.141 27.4123 100.154 27.4163C100.274 27.4533 100.391 27.4967 100.506 27.5458C100.74 27.6456 100.961 27.7689 101.166 27.9105C101.18 27.9206 101.195 27.9308 101.209 27.9411L101.63 27.1922C101.463 27.0841 101.292 26.9884 101.117 26.9033C100.993 26.8431 100.867 26.7883 100.738 26.7381C100.619 26.6913 100.497 26.6486 100.374 26.6094C100.371 26.6087 100.369 26.608 100.367 26.6072C100.359 26.6053 100.352 26.6034 100.345 26.6015C99.9169 26.4904 99.4886 26.4229 99.039 26.4201C99.0291 26.42 99.0193 26.42 99.0094 26.42C99.0016 26.4194 98.9938 26.4188 98.986 26.4182Z" fill="rgb(0,0,0)" fill-rule="evenodd" />
			<path id="Vector" d="M104.743 32.0599L104.743 27.3797L102.449 27.3797L102.449 26.6309L107.902 26.6309L107.902 27.3797L105.585 27.3797L105.585 32.0599L104.743 32.0599Z" fill="rgb(0,0,0)" fill-rule="evenodd" />
			<path id="Vector" d="M104.743 28.3797L104.743 32.0599L105.585 32.0599L105.585 27.3797L107.902 27.3797L107.902 26.6309L102.449 26.6309L102.449 27.3797L104.743 27.3797L104.743 28.3797Z" fill="rgb(0,0,0)" fill-rule="evenodd" />
			<path id="Vector" d="M111.599 32.2469C110.733 32.2703 109.867 31.9895 109.212 31.4278C108.066 30.4216 107.949 28.6899 108.955 27.5667C109.025 27.4731 109.119 27.3795 109.212 27.3093C110.64 26.2328 112.605 26.2328 114.009 27.3093C115.156 28.3155 115.25 30.0472 114.243 31.1938C114.173 31.2874 114.08 31.3576 114.009 31.4278C113.331 31.9895 112.465 32.2703 111.599 32.2469ZM111.599 31.4513C112.254 31.4747 112.886 31.264 113.378 30.8662C114.197 30.1642 114.29 28.9005 113.588 28.0815C113.518 28.0113 113.448 27.9411 113.378 27.8709C112.886 27.4731 112.254 27.2625 111.599 27.2859C110.967 27.2625 110.335 27.4731 109.821 27.8709C109.002 28.5963 108.908 29.8366 109.61 30.679C109.68 30.7492 109.75 30.8194 109.821 30.8896C110.335 31.264 110.944 31.4747 111.599 31.4513Z" fill="rgb(0,0,0)" fill-rule="evenodd" />
			<path id="Vector" d="M108.955 27.5667C107.949 28.6899 108.066 30.4216 109.212 31.4278C109.86 31.9833 110.714 32.2641 111.571 32.2475C111.58 32.2474 111.59 32.2471 111.599 32.2469C111.609 32.2471 111.618 32.2474 111.628 32.2475C112.484 32.2641 113.338 31.9833 114.009 31.4278C114.08 31.3576 114.173 31.2874 114.243 31.1938C115.25 30.0472 115.156 28.3155 114.009 27.3093C113.31 26.7729 112.471 26.5038 111.628 26.502C111.609 26.5019 111.59 26.502 111.571 26.5022C110.742 26.5123 109.912 26.7813 109.212 27.3093C109.119 27.3795 109.025 27.4731 108.955 27.5667ZM111.599 27.2859C110.967 27.2625 110.335 27.4731 109.821 27.8709C109.002 28.5963 108.908 29.8366 109.61 30.679L109.821 30.8896C110.335 31.264 110.944 31.4747 111.599 31.4513C112.254 31.4747 112.886 31.264 113.378 30.8662C113.39 30.8554 113.403 30.8445 113.415 30.8334C113.435 30.8156 113.454 30.7976 113.473 30.7792C114.203 30.0636 114.262 28.8677 113.588 28.0815C113.556 28.0493 113.524 28.0171 113.491 27.9848C113.478 27.9715 113.465 27.9582 113.452 27.9449C113.427 27.9203 113.402 27.8956 113.378 27.8709C112.886 27.4731 112.254 27.2625 111.599 27.2859Z" fill="rgb(0,0,0)" fill-rule="evenodd" />
			<path id="Vector" d="M117.192 29.6969L117.192 32.0838L116.326 32.0838L116.326 26.6314L120.07 26.6314C120.538 26.608 121.006 26.7484 121.381 27.0292C121.685 27.31 121.872 27.7079 121.849 28.1291C121.849 28.5035 121.732 28.8545 121.474 29.1353C121.217 29.4161 120.889 29.6033 120.492 29.6501L122.013 32.0604L121.1 32.0604L119.556 29.6735L117.192 29.6735L117.192 29.6969ZM117.192 28.9013L120.094 28.9013C120.328 28.9247 120.562 28.8545 120.772 28.7141C120.936 28.5737 121.006 28.3631 121.006 28.1759C121.03 27.9653 120.936 27.7781 120.772 27.6377C120.585 27.4973 120.328 27.4271 120.094 27.4505L117.192 27.4505L117.192 28.9013Z" fill="rgb(0,0,0)" fill-rule="evenodd" />
			<path id="Vector" d="M116.326 32.0838L117.192 32.0838L117.192 29.6735L119.556 29.6735L119.703 29.9013L121.1 32.0604L122.013 32.0604L121.748 31.6411L121.382 31.0604L121.06 30.5504L120.623 29.8577L120.492 29.6501C120.565 29.6415 120.637 29.628 120.706 29.61C120.973 29.5401 121.204 29.4021 121.399 29.2134C121.424 29.1883 121.45 29.1622 121.474 29.1353C121.7 28.8898 121.817 28.5905 121.843 28.2689C121.846 28.2381 121.847 28.2071 121.848 28.1759C121.849 28.1603 121.849 28.1447 121.849 28.1291C121.872 27.7079 121.685 27.31 121.381 27.0292C121.013 26.7531 120.554 26.6127 120.094 26.6304C120.086 26.6307 120.078 26.631 120.07 26.6314L116.326 26.6314L116.326 32.0838ZM117.192 28.6735L117.192 28.9013L120.094 28.9013C120.145 28.9065 120.197 28.9071 120.248 28.9034C120.43 28.8903 120.608 28.8236 120.772 28.7141C120.936 28.5737 121.006 28.3631 121.006 28.1759C121.025 28.0061 120.968 27.8515 120.859 27.7244C120.841 27.7023 120.82 27.681 120.798 27.6606C120.79 27.6528 120.781 27.6452 120.772 27.6377C120.585 27.4973 120.328 27.4271 120.094 27.4505L117.192 27.4505L117.192 28.6735Z" fill="rgb(0,0,0)" fill-rule="evenodd" />
			<path id="Vector" d="M123.393 32.0599L123.393 26.6309L128.518 26.6309L128.518 27.4265L124.259 27.4265L124.259 28.7837L127.044 28.7837L127.044 29.556L124.259 29.556L124.259 31.2876L128.752 31.2876L128.752 32.0599L123.393 32.0599Z" fill="rgb(0,0,0)" fill-rule="evenodd" />
			<path id="Vector" d="M124.393 27.4265L128.518 27.4265L128.518 26.6309L123.393 26.6309L123.393 32.0599L128.752 32.0599L128.752 31.2876L124.259 31.2876L124.259 29.556L127.044 29.556L127.044 28.7837L124.259 28.7837L124.259 27.4265L124.393 27.4265Z" fill="rgb(0,0,0)" fill-rule="evenodd" />
			<path id="Vector" d="M93.6974 29.1815L92.1997 28.4327C92.0359 28.3391 91.9423 28.1752 91.9423 28.0114L91.9423 26.584L90.0702 29.1815C90 29.2985 90.0234 29.4623 90.1404 29.5325C90.1404 29.5325 90.1638 29.5325 90.1638 29.5559L91.6615 30.3047C91.8253 30.3749 91.9189 30.5387 91.9189 30.7259L91.9189 32.1534L93.791 29.5559C93.8612 29.4389 93.8378 29.2751 93.7208 29.2049C93.7208 29.1815 93.6974 29.1815 93.6974 29.1815Z" fill="rgb(0,0,0)" fill-rule="evenodd" />
			<path id="Vector" d="M92.1997 28.4327C92.108 28.3802 92.0382 28.3058 91.9947 28.2217C91.9604 28.1556 91.9423 28.0835 91.9423 28.0114L91.9423 26.584L90.9423 27.9715L90.493 28.5949L90.1405 29.084L90.0702 29.1815C90 29.2985 90.0234 29.4623 90.1404 29.5325C90.1404 29.5325 90.1638 29.5325 90.1638 29.5559L91.6615 30.3047C91.7569 30.3456 91.8285 30.4182 91.8716 30.5087C91.9026 30.5736 91.9189 30.6478 91.9189 30.7259L91.9189 32.1534L92.9189 30.7659L93.3722 30.1369L93.3785 30.1282L93.791 29.5559C93.8612 29.4389 93.8378 29.2751 93.7208 29.2049C93.7208 29.1815 93.6974 29.1815 93.6974 29.1815L92.1997 28.4327Z" fill="rgb(0,0,0)" fill-rule="evenodd" />
		</g>
	</g>
</svg>
