<svg viewBox="0 0 135.13 35.75" xmlns="http://www.w3.org/2000/svg" xmlns:xlink="http://www.w3.org/1999/xlink" width="135.130005" height="35.750000" fill="none">
	<rect id="logo" width="135.130005" height="35.750000" x="0.000000" y="0.000000" fill="rgb(255,255,255)" fill-opacity="0" />
	<path id="Vector" d="M9.76 1.25L11 1.25L18.75 21.18L17 21.18L15 15.8L5.8 15.8L3.74 21.18L2 21.18L9.76 1.25ZM14.5 14.38L10.39 3.78L6.27 14.38L14.5 14.38Z" fill="rgb(35,31,32)" fill-rule="nonzero" />
	<path id="Vector" d="M30.64 2.67L24.48 2.67L24.48 1.25L38.39 1.25L38.39 2.67L32.22 2.67L32.22 21.17L30.64 21.17L30.64 2.67Z" fill="rgb(35,31,32)" fill-rule="nonzero" />
	<path id="Vector" d="M51.85 1.25L53.11 1.25L60.86 21.18L59.12 21.18L57.07 15.8L47.89 15.8L45.84 21.18L44.1 21.18L51.85 1.25ZM56.59 14.37L52.48 3.78L48.37 14.38L56.59 14.37Z" fill="rgb(35,31,32)" fill-rule="nonzero" />
	<path id="Vector" d="M85.23 14.5398C83.97 18.5398 81.15 21.3398 77.01 21.3398C72.3 21.3398 68.01 17.1898 68.01 11.2198C68.01 5.24984 72.31 1.08984 77.01 1.08984C81.12 1.08984 84.01 3.93984 85.07 7.88984L83.49 7.88984C82.49 4.72984 80.33 2.50984 77.01 2.50984C73.01 2.50984 69.58 6.01984 69.58 11.2098C69.58 16.3998 73.06 19.9098 77.01 19.9098C80.33 19.9098 82.54 17.6998 83.65 14.5298L85.23 14.5398Z" fill="rgb(35,31,32)" fill-rule="nonzero" />
	<path id="Vector" d="M95.53 1.25L97.1 1.25L97.1 10.25L107.86 10.25L107.86 1.25L109.44 1.25L109.44 21.18L107.86 21.18L107.86 11.69L97.1 11.69L97.1 21.18L95.53 21.18L95.53 1.25Z" fill="rgb(35,31,32)" fill-rule="nonzero" />
	<path id="Vector" d="M121.16 1.25L133.16 1.25L133.16 2.67L122.74 2.67L122.74 10.1L132.39 10.1L132.39 11.52L122.74 11.52L122.74 19.75L133.5 19.75L133.5 21.17L121.16 21.17L121.16 1.25Z" fill="rgb(35,31,32)" fill-rule="nonzero" />
	<path id="Vector" d="M1.63 28.7305L3.09 28.7305C3.87262 28.7752 4.60849 29.1176 5.14674 29.6875C5.685 30.2574 5.98486 31.0116 5.98486 31.7955C5.98486 32.5794 5.685 33.3336 5.14674 33.9035C4.60849 34.4733 3.87262 34.8158 3.09 34.8605L1.63 34.8605L1.63 28.7305ZM3.09 34.4205C3.78752 34.4205 4.45648 34.1434 4.9497 33.6502C5.44292 33.1569 5.72 32.488 5.72 31.7905C5.72 31.093 5.44292 30.424 4.9497 29.9308C4.45648 29.4376 3.78752 29.1605 3.09 29.1605L2.09 29.1605L2.09 34.4205L3.09 34.4205Z" fill="rgb(35,31,32)" fill-rule="nonzero" />
	<path id="Vector" d="M9.28027 28.7305L13.0003 28.7305L13.0003 29.1605L9.77027 29.1605L9.77027 31.4505L12.7703 31.4505L12.7703 31.8905L9.77027 31.8905L9.77027 34.4205L13.0803 34.4205L13.0803 34.8605L9.28027 34.8605L9.28027 28.7305Z" fill="rgb(35,31,32)" fill-rule="nonzero" />
	<path id="Vector" d="M16.34 28.7303L18.48 28.7303C18.7174 28.7196 18.9545 28.7567 19.1773 28.8396C19.4 28.9225 19.6038 29.0494 19.7764 29.2127C19.9491 29.376 20.087 29.5724 20.1821 29.7902C20.2773 30.008 20.3275 30.2427 20.33 30.4803C20.3388 30.7567 20.2762 31.0307 20.1484 31.276C20.0205 31.5212 19.8316 31.7293 19.6 31.8803C19.379 32.0278 19.1308 32.1298 18.87 32.1803L20.43 34.8603L19.84 34.8603L18.38 32.2303L16.83 32.2303L16.83 34.8603L16.34 34.8603L16.34 28.7303ZM18.48 31.7903C18.6623 31.8062 18.8459 31.7841 19.0192 31.7252C19.1925 31.6664 19.3517 31.5721 19.4866 31.4484C19.6215 31.3248 19.7293 31.1744 19.803 31.0069C19.8767 30.8394 19.9147 30.6583 19.9147 30.4753C19.9147 30.2923 19.8767 30.1113 19.803 29.9438C19.7293 29.7762 19.6215 29.6259 19.4866 29.5022C19.3517 29.3786 19.1925 29.2843 19.0192 29.2254C18.8459 29.1666 18.6623 29.1444 18.48 29.1603L16.83 29.1603L16.83 31.8003L18.48 31.7903Z" fill="rgb(35,31,32)" fill-rule="nonzero" />
	<path id="Vector" d="M23.6 28.7292L24 28.7292L26.43 33.9992L28.82 28.6992L29.26 28.6992L29.26 34.8292L28.77 34.8292L28.77 29.9992L26.58 34.8692L26.29 34.8692L24.09 29.9992L24.09 34.8692L23.6 34.8692L23.6 28.7292Z" fill="rgb(35,31,32)" fill-rule="nonzero" />
	<path id="Vector" d="M34.42 28.7305L34.81 28.7305L37.2 34.8605L36.66 34.8605L36 33.2105L33.21 33.2105L32.57 34.8605L32 34.8605L34.42 28.7305ZM35.88 32.7305L34.61 29.4705L33.35 32.7305L35.88 32.7305Z" fill="rgb(35,31,32)" fill-rule="nonzero" />
	<path id="Vector" d="M40.85 29.1702L39 29.1702L39 28.7402L43.28 28.7402L43.28 29.1702L41.38 29.1702L41.38 34.8602L40.89 34.8602L40.85 29.1702Z" fill="rgb(35,31,32)" fill-rule="nonzero" />
	<path id="Vector" d="M45.62 31.7996C45.5795 31.411 45.6211 31.0181 45.7422 30.6466C45.8632 30.2751 46.0609 29.9331 46.3225 29.6428C46.5841 29.3526 46.9038 29.1205 47.2608 28.9616C47.6178 28.8028 48.0042 28.7207 48.395 28.7207C48.7857 28.7207 49.1721 28.8028 49.5292 28.9616C49.8862 29.1205 50.2058 29.3526 50.4674 29.6428C50.7291 29.9331 50.9268 30.2751 51.0478 30.6466C51.1688 31.0181 51.2104 31.411 51.17 31.7996C51.2104 32.1883 51.1688 32.5811 51.0478 32.9527C50.9268 33.3242 50.7291 33.6662 50.4674 33.9564C50.2058 34.2467 49.8862 34.4788 49.5292 34.6376C49.1721 34.7965 48.7857 34.8785 48.395 34.8785C48.0042 34.8785 47.6178 34.7965 47.2608 34.6376C46.9038 34.4788 46.5841 34.2467 46.3225 33.9564C46.0609 33.6662 45.8632 33.3242 45.7422 32.9527C45.6211 32.5811 45.5795 32.1883 45.62 31.7996ZM50.69 31.7996C50.7439 31.4678 50.725 31.1283 50.6347 30.8045C50.5444 30.4808 50.3849 30.1805 50.1671 29.9245C49.9493 29.6685 49.6784 29.4628 49.3733 29.3218C49.0682 29.1808 48.7361 29.1077 48.4 29.1077C48.0639 29.1077 47.7317 29.1808 47.4266 29.3218C47.1215 29.4628 46.8507 29.6685 46.6329 29.9245C46.4151 30.1805 46.2555 30.4808 46.1652 30.8045C46.075 31.1283 46.0561 31.4678 46.11 31.7996C46.0561 32.1314 46.075 32.4709 46.1652 32.7947C46.2555 33.1185 46.4151 33.4188 46.6329 33.6748C46.8507 33.9308 47.1215 34.1364 47.4266 34.2775C47.7317 34.4185 48.0639 34.4915 48.4 34.4915C48.7361 34.4915 49.0682 34.4185 49.3733 34.2775C49.6784 34.1364 49.9493 33.9308 50.1671 33.6748C50.3849 33.4188 50.5444 33.1185 50.6347 32.7947C50.725 32.4709 50.7439 32.1314 50.69 31.7996Z" fill="rgb(35,31,32)" fill-rule="nonzero" />
	<path id="Vector" d="M54.39 28.7305L54.88 28.7305L54.88 34.4205L57.95 34.4205L57.95 34.8605L54.39 34.8605L54.39 28.7305Z" fill="rgb(35,31,32)" fill-rule="nonzero" />
	<path id="Vector" d="M60.29 31.7996C60.2496 31.411 60.2912 31.0181 60.4122 30.6466C60.5332 30.2751 60.731 29.9331 60.9926 29.6428C61.2542 29.3526 61.5738 29.1205 61.9309 28.9616C62.2879 28.8028 62.6743 28.7207 63.065 28.7207C63.4558 28.7207 63.8422 28.8028 64.1992 28.9616C64.5562 29.1205 64.8759 29.3526 65.1375 29.6428C65.3991 29.9331 65.5968 30.2751 65.7178 30.6466C65.8389 31.0181 65.8805 31.411 65.84 31.7996C65.8805 32.1883 65.8389 32.5811 65.7178 32.9527C65.5968 33.3242 65.3991 33.6662 65.1375 33.9564C64.8759 34.2467 64.5562 34.4788 64.1992 34.6376C63.8422 34.7965 63.4558 34.8785 63.065 34.8785C62.6743 34.8785 62.2879 34.7965 61.9309 34.6376C61.5738 34.4788 61.2542 34.2467 60.9926 33.9564C60.731 33.6662 60.5332 33.3242 60.4122 32.9527C60.2912 32.5811 60.2496 32.1883 60.29 31.7996ZM65.35 31.7996C65.4039 31.4678 65.385 31.1283 65.2948 30.8045C65.2045 30.4808 65.0449 30.1805 64.8271 29.9245C64.6093 29.6685 64.3385 29.4628 64.0334 29.3218C63.7283 29.1808 63.3962 29.1077 63.06 29.1077C62.7239 29.1077 62.3918 29.1808 62.0867 29.3218C61.7816 29.4628 61.5107 29.6685 61.2929 29.9245C61.0751 30.1805 60.9156 30.4808 60.8253 30.8045C60.735 31.1283 60.7161 31.4678 60.77 31.7996C60.7161 32.1314 60.735 32.4709 60.8253 32.7947C60.9156 33.1185 61.0751 33.4188 61.2929 33.6748C61.5107 33.9308 61.7816 34.1364 62.0867 34.2775C62.3918 34.4185 62.7239 34.4915 63.06 34.4915C63.3962 34.4915 63.7283 34.4185 64.0334 34.2775C64.3385 34.1364 64.6093 33.9308 64.8271 33.6748C65.0449 33.4188 65.2045 33.1185 65.2948 32.7947C65.385 32.4709 65.4039 32.1314 65.35 31.7996Z" fill="rgb(35,31,32)" fill-rule="nonzero" />
	<path id="Vector" d="M73.59 33.5999C73.4563 33.8457 73.2842 34.0686 73.08 34.2599C72.8644 34.4701 72.6094 34.6357 72.3298 34.7472C72.05 34.8588 71.7511 34.9141 71.45 34.9099C71.062 34.8895 70.6818 34.7924 70.3315 34.6242C69.9812 34.456 69.6677 34.22 69.4092 33.9298C69.1507 33.6397 68.9522 33.3012 68.8254 32.9339C68.6985 32.5666 68.6457 32.1778 68.67 31.7899C68.6457 31.4021 68.6985 31.0133 68.8254 30.646C68.9522 30.2787 69.1507 29.9402 69.4092 29.65C69.6677 29.3599 69.9812 29.1239 70.3315 28.9557C70.6818 28.7874 71.062 28.6903 71.45 28.6699C72.0083 28.6727 72.5499 28.8608 72.9897 29.2047C73.4295 29.5486 73.7427 30.0288 73.88 30.5699L73.39 30.5699C73.2711 30.1458 73.0155 29.7728 72.6629 29.5088C72.3103 29.2448 71.8805 29.1046 71.44 29.1099C71.1121 29.1313 70.7918 29.218 70.498 29.3652C70.2042 29.5123 69.9429 29.7169 69.7295 29.9667C69.516 30.2165 69.3548 30.5065 69.2552 30.8197C69.1557 31.1328 69.1199 31.4627 69.15 31.7899C69.1213 32.1169 69.1581 32.4462 69.2581 32.7588C69.3582 33.0714 69.5195 33.3609 69.7327 33.6104C69.9459 33.8599 70.2067 34.0644 70.4999 34.212C70.793 34.3596 71.1126 34.4473 71.44 34.4699C71.998 34.4543 72.5281 34.2223 72.9182 33.823C73.3082 33.4236 73.5276 32.8882 73.53 32.3299L71.53 32.3299L71.53 31.8999L74 31.8999L74 34.8999L73.61 34.8999L73.59 33.5999Z" fill="rgb(35,31,32)" fill-rule="nonzero" />
	<path id="Vector" d="M77.4902 28.7305L78.0002 28.7305L78.0002 34.8605L77.5202 34.8605L77.4902 28.7305Z" fill="rgb(35,31,32)" fill-rule="nonzero" />
	<path id="Vector" d="M86.5 32.8197C86.3728 33.3962 86.0588 33.9146 85.6067 34.2943C85.1546 34.6741 84.5898 34.8939 84 34.9197C83.6119 34.8993 83.2318 34.8022 82.8815 34.634C82.5312 34.4657 82.2177 34.2297 81.9592 33.9396C81.7007 33.6494 81.5022 33.3109 81.3754 32.9436C81.2485 32.5763 81.1957 32.1875 81.22 31.7997C81.1957 31.4118 81.2485 31.023 81.3754 30.6557C81.5022 30.2884 81.7007 29.9499 81.9592 29.6598C82.2177 29.3697 82.5312 29.1336 82.8815 28.9654C83.2318 28.7972 83.6119 28.7001 84 28.6797C84.591 28.6942 85.1592 28.9103 85.6103 29.2923C86.0615 29.6744 86.3683 30.1992 86.48 30.7797L86 30.7797C85.9047 30.317 85.6547 29.9005 85.2912 29.5988C84.9277 29.2971 84.4723 29.1281 84 29.1197C83.6721 29.141 83.3518 29.2278 83.058 29.375C82.7642 29.5221 82.5029 29.7266 82.2894 29.9764C82.076 30.2262 81.9147 30.5163 81.8152 30.8294C81.7157 31.1426 81.6799 31.4725 81.71 31.7997C81.6813 32.1266 81.7181 32.456 81.8181 32.7686C81.9182 33.0811 82.0795 33.3706 82.2927 33.6202C82.5059 33.8697 82.7667 34.0742 83.0598 34.2218C83.353 34.3693 83.6726 34.457 84 34.4797C84.4684 34.4576 84.9168 34.2836 85.2776 33.9842C85.6384 33.6847 85.892 33.276 86 32.8197L86.5 32.8197Z" fill="rgb(35,31,32)" fill-rule="nonzero" />
	<path id="Vector" d="M91.1302 28.7305L91.5202 28.7305L93.9102 34.8605L93.3702 34.8605L92.7402 33.2105L89.9102 33.2105L89.2802 34.8605L88.7402 34.8605L91.1302 28.7305ZM92.5902 32.7305L91.3202 29.4705L90.0502 32.7305L92.5902 32.7305Z" fill="rgb(35,31,32)" fill-rule="nonzero" />
	<path id="Vector" d="M96.6801 28.7305L97.1701 28.7305L97.1701 34.4205L100.24 34.4205L100.24 34.8605L96.6801 34.8605L96.6801 28.7305Z" fill="rgb(35,31,32)" fill-rule="nonzero" />
	<path id="Vector" d="M112.07 32.8199C111.94 33.3994 111.62 33.9191 111.162 34.2974C110.704 34.6757 110.134 34.8912 109.54 34.9099C109.152 34.8895 108.772 34.7924 108.421 34.6242C108.071 34.456 107.758 34.22 107.499 33.9298C107.241 33.6397 107.042 33.3012 106.915 32.9339C106.788 32.5666 106.736 32.1778 106.76 31.7899C106.736 31.4021 106.788 31.0133 106.915 30.646C107.042 30.2787 107.241 29.9402 107.499 29.65C107.758 29.3599 108.071 29.1239 108.421 28.9557C108.772 28.7874 109.152 28.6903 109.54 28.6699C110.131 28.6844 110.699 28.9006 111.15 29.2826C111.601 29.6646 111.908 30.1894 112.02 30.7699L111.54 30.7699C111.445 30.3072 111.195 29.8908 110.831 29.5891C110.468 29.2874 110.012 29.1184 109.54 29.1099C109.212 29.1313 108.892 29.218 108.598 29.3652C108.304 29.5123 108.043 29.7169 107.829 29.9667C107.616 30.2165 107.455 30.5065 107.355 30.8197C107.256 31.1328 107.22 31.4627 107.25 31.7899C107.221 32.1169 107.258 32.4462 107.358 32.7588C107.458 33.0714 107.619 33.3609 107.833 33.6104C108.046 33.8599 108.307 34.0644 108.6 34.212C108.893 34.3596 109.213 34.4473 109.54 34.4699C110.008 34.4478 110.457 34.2739 110.818 33.9744C111.178 33.6749 111.432 33.2662 111.54 32.8099L112.07 32.8199Z" fill="rgb(35,31,32)" fill-rule="nonzero" />
	<path id="Vector" d="M116.7 28.7305L117.09 28.7305L119.47 34.8605L118.94 34.8605L118.31 33.2105L115.49 33.2105L114.85 34.8605L114.32 34.8605L116.7 28.7305ZM118.16 32.7305L116.89 29.4705L115.63 32.7305L118.16 32.7305Z" fill="rgb(35,31,32)" fill-rule="nonzero" />
	<path id="Vector" d="M122.26 28.7303L124.4 28.7303C124.637 28.7196 124.874 28.7567 125.097 28.8396C125.32 28.9225 125.524 29.0494 125.696 29.2127C125.869 29.376 126.007 29.5724 126.102 29.7902C126.197 30.008 126.247 30.2427 126.25 30.4803C126.259 30.7567 126.196 31.0307 126.068 31.276C125.94 31.5212 125.751 31.7293 125.52 31.8803C125.299 32.0278 125.051 32.1298 124.79 32.1803L126.35 34.8603L125.77 34.8603L124.31 32.2303L122.75 32.2303L122.75 34.8603L122.26 34.8603L122.26 28.7303ZM124.4 31.7903C124.582 31.8062 124.766 31.7841 124.939 31.7252C125.112 31.6664 125.271 31.5721 125.406 31.4484C125.541 31.3248 125.649 31.1744 125.723 31.0069C125.796 30.8394 125.835 30.6583 125.835 30.4753C125.835 30.2923 125.796 30.1113 125.723 29.9438C125.649 29.7762 125.541 29.6259 125.406 29.5022C125.271 29.3786 125.112 29.2843 124.939 29.2254C124.766 29.1666 124.582 29.1444 124.4 29.1603L122.74 29.1603L122.74 31.8003L124.4 31.7903Z" fill="rgb(35,31,32)" fill-rule="nonzero" />
	<path id="Vector" d="M129.52 28.7305L133.22 28.7305L133.22 29.1605L130 29.1605L130 31.4505L133 31.4505L133 31.8905L130 31.8905L130 34.4205L133.31 34.4205L133.31 34.8605L129.51 34.8605L129.52 28.7305Z" fill="rgb(35,31,32)" fill-rule="nonzero" />
</svg>
