<svg viewBox="0 0 43.1523 38.0352" xmlns="http://www.w3.org/2000/svg" xmlns:xlink="http://www.w3.org/1999/xlink" width="43.152313" height="38.035156" fill="none" customFrame="#000000">
	<path id="Vector" d="M6.50607 0C2.91884 0 0 2.91884 0 6.50607C0 10.0933 2.91884 13.0122 6.50607 13.0122C10.0932 13.0122 13.0121 10.0933 13.0121 6.50607C13.0121 2.91884 10.0932 0 6.50607 0ZM6.50607 12.0018C3.47598 12.0018 1.01033 9.53613 1.01033 6.50607C1.01033 3.47598 3.47598 1.01033 6.50607 1.01033C9.53613 1.01033 12.0018 3.47598 12.0018 6.50607C12.0018 9.53613 9.53613 12.0018 6.50607 12.0018ZM32.5885 16.169C31.7997 15.9154 31.0739 15.6902 30.4091 15.4842L30.4071 15.4835C25.977 14.1089 24.3189 13.5944 24.3189 11.131C24.3189 9.17603 25.7039 8.00976 28.0237 8.00976L30.9672 8.00976C33.0107 8.00976 34.611 9.69123 34.611 11.8377L34.611 12.3073L42.4457 12.3073L42.4457 11.8377C42.4457 5.50854 37.2964 0.359305 30.9672 0.359305L28.0237 0.359305C21.3726 0.359305 16.5453 4.98878 16.5453 11.3672C16.5453 18.1449 21.0435 20.1483 26.924 22.0614C27.8486 22.3623 28.725 22.6258 29.4982 22.8584C33.2714 23.9918 35.3495 24.6164 35.3495 27.0274C35.3495 29.0352 33.8724 30.3839 31.6739 30.3839L27.6708 30.3839C25.6164 30.3839 24.0079 28.7024 24.0079 26.5559L24.0079 24.9091L16.1925 24.9091L16.1925 26.5559C16.1925 32.8851 21.3417 38.0343 27.6708 38.0343L31.6739 38.0343C38.1106 38.0343 43.1523 33.1476 43.1523 26.9088C43.1523 20.089 38.7745 18.1558 32.5885 16.169ZM7.18462 2.93792C8.51777 2.93792 9.60203 3.90993 9.60203 5.10538C9.60203 5.64246 9.38132 6.15859 8.98186 6.55615C8.53874 6.99749 7.91412 7.23457 7.25121 7.26558L9.45152 10.2017L8.17673 10.2017L5.99101 7.26921L4.86397 7.26558L4.86397 10.1835L3.85363 10.1835L3.85363 2.93792L7.18462 2.93792ZM7.17733 6.26253C7.60225 6.25615 7.99709 6.11024 8.26791 5.84034C8.41564 5.69352 8.59072 5.44733 8.59072 5.10538C8.59072 4.46708 7.95972 3.94824 7.18373 3.94824L4.86397 3.94824L4.86397 6.25341L7.17733 6.26253Z" fill="rgb(0,0,0)" fill-rule="evenodd" />
	<path id="Vector" d="M30.4091 15.4842L30.4071 15.4835C25.977 14.1089 24.3189 13.5944 24.3189 11.131C24.3189 9.17603 25.7039 8.00976 28.0237 8.00976L30.9672 8.00976C33.0107 8.00976 34.611 9.69123 34.611 11.8377L34.611 12.3073L42.4457 12.3073L42.4457 11.8377C42.4457 11.66 42.4417 11.4831 42.4336 11.3073C42.1556 5.22337 37.1187 0.359305 30.9672 0.359305L28.0237 0.359305C21.3726 0.359305 16.5453 4.98878 16.5453 11.3672C16.5453 18.1449 21.0435 20.1483 26.924 22.0614C27.8486 22.3623 28.725 22.6258 29.4982 22.8584C33.2714 23.9918 35.3495 24.6164 35.3495 27.0274C35.3495 29.0352 33.8724 30.3839 31.6739 30.3839L27.6708 30.3839C25.6164 30.3839 24.0079 28.7024 24.0079 26.5559L24.0079 24.9091L16.1925 24.9091L16.1925 26.5559C16.1925 32.8851 21.3417 38.0343 27.6708 38.0343L31.6739 38.0343C38.1106 38.0343 43.1523 33.1476 43.1523 26.9088C43.1523 20.089 38.7745 18.1558 32.5885 16.169C31.7997 15.9154 31.0739 15.6902 30.4091 15.4842ZM17.1925 25.9091L17.1925 26.5559C17.1925 27.3304 17.2744 28.0867 17.4381 28.8248C17.5743 29.4389 17.7672 30.0405 18.0167 30.6294C18.2609 31.2058 18.5513 31.7519 18.8879 32.268C19.2833 32.8741 19.7425 33.4386 20.2654 33.9615C20.7882 34.4843 21.3526 34.9434 21.9586 35.3387C22.4747 35.6754 23.021 35.9659 23.5974 36.2101C24.1865 36.4597 24.7881 36.6526 25.4023 36.7888C26.1403 36.9525 26.8965 37.0343 27.6708 37.0343L31.6739 37.0343C32.732 37.0343 33.7503 36.895 34.7291 36.6163C35.0945 36.5123 35.4545 36.3888 35.8089 36.2459C36.5718 35.9382 37.2796 35.5529 37.9323 35.09C38.3549 34.7902 38.7545 34.4579 39.1309 34.0931C39.6604 33.5798 40.1231 33.0226 40.519 32.4215C40.8376 31.9377 41.113 31.4255 41.3451 30.8847C41.5364 30.4389 41.6938 29.984 41.8171 29.52C42.0406 28.6793 42.1523 27.8089 42.1523 26.9088C42.1523 24.7271 41.626 22.9476 40.5734 21.5704C40.273 21.1772 39.9296 20.8168 39.5433 20.4892C38.7609 19.8256 37.7278 19.2094 36.4438 18.6406C35.4424 18.1969 34.0554 17.6904 32.2827 17.1211L30.0939 16.4334L30.0936 16.4333C28.7275 16.0093 27.7791 15.7018 27.2484 15.5109C26.3612 15.1918 25.6683 14.8755 25.1697 14.5623C24.6017 14.2054 24.1643 13.7703 23.8578 13.2572C23.4986 12.6558 23.3189 11.947 23.3189 11.131C23.3189 10.3108 23.5 9.59926 23.8621 8.99654C24.0684 8.65322 24.3334 8.34519 24.6571 8.07246C24.687 8.04735 24.7171 8.02268 24.7476 7.99846C25.5781 7.33932 26.6701 7.00976 28.0237 7.00976L30.9672 7.00976C31.6226 7.00975 32.2268 7.12862 32.78 7.36635C33.3305 7.60295 33.8304 7.95728 34.2798 8.42935C34.6592 8.82803 34.9576 9.26395 35.1748 9.73711C35.3972 10.2215 35.5345 10.7449 35.5869 11.3073L41.4328 11.3073C41.4038 10.7172 41.3263 10.1378 41.2002 9.56922C41.064 8.95498 40.8711 8.35332 40.6215 7.76422C40.3773 7.18796 40.087 6.64184 39.7504 6.12586C39.355 5.5197 38.8958 4.95514 38.3728 4.43218C37.8499 3.90925 37.2854 3.45009 36.6792 3.0547C36.1632 2.7181 35.6171 2.42771 35.0408 2.18353C34.4517 1.93395 33.85 1.74105 33.2358 1.60483C32.4978 1.44115 31.7416 1.35931 30.9672 1.35931L28.0237 1.35931C25.8841 1.3593 24.0107 1.82189 22.4037 2.74707C21.7143 3.14395 21.0739 3.62596 20.4825 4.19309C19.7193 4.92508 19.1047 5.73508 18.639 6.62311C17.9099 8.01328 17.5453 9.59465 17.5453 11.3672C17.5453 13.4544 18.0418 15.1805 19.0347 16.5455C19.362 16.9956 19.7434 17.4064 20.1787 17.7779C20.9575 18.4427 21.9754 19.0583 23.2324 19.6248C24.2112 20.0659 25.5449 20.5612 27.2334 21.1105C27.839 21.3076 28.6852 21.5696 29.7719 21.8965L29.7863 21.9008C30.9878 22.2617 31.8379 22.5301 32.3366 22.7058C33.1789 23.0026 33.8521 23.3033 34.3562 23.608C35.0902 24.0518 35.6214 24.5981 35.95 25.2471C36.2164 25.7731 36.3495 26.3666 36.3495 27.0274C36.3495 27.817 36.1843 28.5172 35.854 29.1281C35.6413 29.5215 35.3601 29.8778 35.0105 30.197C34.8104 30.3798 34.5972 30.5414 34.3709 30.6819C33.6172 31.1499 32.7182 31.3839 31.6739 31.3839L27.6708 31.3839C27.0086 31.3839 26.3983 31.2635 25.8399 31.0227C25.2921 30.7864 24.7943 30.4343 24.3464 29.9662C23.9614 29.5637 23.6594 29.1232 23.4405 28.6447C23.1521 28.0144 23.0079 27.3182 23.0079 26.5559L23.0079 25.9091L17.1925 25.9091ZM5.21186 0.129312C5.63024 0.0445169 6.06306 0 6.50607 0C6.94899 0 7.38172 0.0444997 7.80003 0.129263C8.66052 0.303628 9.45997 0.648372 10.1615 1.12662C10.8381 1.58784 11.4236 2.17324 11.8849 2.84972C12.364 3.55224 12.7092 4.353 12.8834 5.21495C12.9678 5.63238 13.0121 6.06416 13.0121 6.50607C13.0121 6.9481 12.9678 7.37998 12.8834 7.7975C12.7093 8.65854 12.3646 9.45851 11.8862 10.1605C11.6971 10.4381 11.487 10.7004 11.2582 10.9451C11.1761 11.033 11.0916 11.1185 11.0048 11.2017C10.7425 11.4532 10.4592 11.6829 10.1579 11.888C9.45858 12.3641 8.66212 12.7076 7.805 12.882C7.38515 12.9674 6.95075 13.0122 6.50607 13.0122C6.06111 13.0122 5.62643 12.9673 5.20633 12.8818C4.35 12.7075 3.55424 12.3644 2.85544 11.8889C2.17547 11.4262 1.58731 10.8382 1.12445 10.1584C0.647432 9.45777 0.30351 8.65961 0.129374 7.80061C0.0445385 7.38212 0 6.9492 0 6.50607C0 6.06307 0.0445149 5.63026 0.129306 5.21189C0.303586 4.35195 0.648022 3.55299 1.12581 2.8518C1.58763 2.17404 2.17404 1.58763 2.8518 1.12581C3.55298 0.648026 4.35193 0.303594 5.21186 0.129312ZM10.6413 10.1219C11.488 9.15478 12.0018 7.88922 12.0018 6.50607C12.0018 3.47598 9.53613 1.01033 6.50607 1.01033C5.3777 1.01033 4.32761 1.35225 3.45396 1.93792C3.24311 2.07926 3.04255 2.2348 2.85363 2.40315C1.72331 3.41049 1.01033 4.87668 1.01033 6.50607C1.01033 8.13545 1.72331 9.60164 2.85363 10.609C3.09258 10.8219 3.35017 11.0144 3.62363 11.1835C4.46217 11.7022 5.44983 12.0018 6.50607 12.0018C7.54989 12.0018 8.52674 11.7092 9.35888 11.2017C9.83966 10.9085 10.2721 10.5436 10.6413 10.1219ZM3.85363 10.1396L3.85363 10.1835L4.86397 10.1835L4.86397 7.26558L5.86397 7.2688L5.99101 7.26921L8.17673 10.2017L9.45152 10.2017L9.3138 10.0179L8.70214 9.20173L7.94174 8.18704L7.25121 7.26558C7.40847 7.25822 7.56358 7.23926 7.71462 7.20874C7.91728 7.16778 8.11261 7.10598 8.29601 7.02341C8.30183 7.02079 8.30764 7.01815 8.31343 7.01549C8.56266 6.90101 8.78938 6.74785 8.98186 6.55615C9.38132 6.15859 9.60203 5.64246 9.60203 5.10538C9.60203 3.90993 8.51777 2.93792 7.18462 2.93792L3.85363 2.93792L3.85363 10.1396ZM5.86397 3.94824L7.18373 3.94824C7.95972 3.94824 8.59072 4.46708 8.59072 5.10538C8.59072 5.44733 8.41564 5.69352 8.26791 5.84034C7.99709 6.11024 7.60225 6.25615 7.17733 6.26253L4.86397 6.25341L4.86397 3.94824L5.86397 3.94824Z" fill="rgb(0,0,0)" fill-rule="evenodd" />
</svg>
