<svg viewBox="0 0 200 20" xmlns="http://www.w3.org/2000/svg" xmlns:xlink="http://www.w3.org/1999/xlink" width="200.000000" height="20.000000" fill="none">
	<rect id="logo " width="200.000000" height="20.000000" x="0.000000" y="0.000000" fill="rgb(255,255,255)" fill-opacity="0" />
	<path id="Vector" d="M180.933 0.283203C170.976 0.283203 162.876 8.86416 162.627 19.553L164.735 19.553C164.983 10.1209 172.141 2.55786 180.933 2.55786C189.726 2.55786 196.885 10.1209 197.132 19.553L199.241 19.553C198.991 8.86416 190.89 0.283203 180.933 0.283203Z" fill="rgb(0,0,0)" fill-rule="evenodd" />
	<path id="Vector" d="M162.673 18.553C163.387 8.33398 171.289 0.283203 180.933 0.283203C190.578 0.283203 198.481 8.33398 199.194 18.553C199.217 18.8841 199.233 19.2175 199.241 19.553L197.132 19.553C196.885 10.1209 189.726 2.55786 180.933 2.55786C172.141 2.55786 164.983 10.1209 164.735 19.553L162.627 19.553C162.635 19.2175 162.65 18.8841 162.673 18.553ZM163.675 18.553L163.784 18.553C163.873 17.355 164.067 16.1846 164.366 15.0418C164.589 14.1911 164.871 13.3557 165.21 12.5356C165.793 11.1297 166.521 9.83014 167.394 8.63703C167.857 8.00453 168.361 7.40194 168.905 6.82925C170.005 5.67247 171.215 4.6979 172.534 3.90554C173.108 3.56063 173.703 3.25024 174.319 2.97438C175.412 2.48452 176.532 2.12172 177.677 1.88596C178.74 1.66723 179.825 1.55786 180.933 1.55786C182.041 1.55786 183.126 1.66714 184.188 1.88569C185.334 2.12144 186.454 2.48433 187.548 2.97438C188.164 3.25026 188.759 3.56068 189.333 3.90563C190.652 4.69797 191.862 5.6725 192.962 6.82922C193.507 7.4024 194.011 8.00553 194.475 8.63861C195.347 9.83129 196.075 11.1303 196.657 12.5356C196.997 13.3564 197.279 14.1926 197.502 15.044C197.801 16.1861 197.995 17.3558 198.083 18.553L198.192 18.553C198.102 17.2984 197.898 16.0736 197.581 14.8788C197.36 14.0424 197.083 13.2206 196.75 12.4135C196.145 10.943 195.384 9.58733 194.468 8.34648C194.017 7.73579 193.528 7.15292 193.002 6.59785C191.855 5.38824 190.591 4.3764 189.211 3.56233C188.675 3.24613 188.121 2.95977 187.55 2.70325C186.451 2.20981 185.326 1.84497 184.174 1.60873C183.116 1.39171 182.036 1.2832 180.933 1.2832C179.831 1.2832 178.75 1.39179 177.692 1.60898C176.54 1.84523 175.416 2.20999 174.317 2.70324C173.746 2.95973 173.192 3.24604 172.656 3.56219C171.276 4.37628 170.013 5.38816 168.866 6.59783C168.34 7.1526 167.851 7.73514 167.4 8.34547C166.484 9.58659 165.723 10.9426 165.117 12.4134C164.785 13.2201 164.508 14.0413 164.287 14.8773C163.97 16.0726 163.766 17.2978 163.675 18.553Z" fill="rgb(0,0,0)" fill-rule="evenodd" />
	<path id="Vector" d="M180.934 6.62891C177.5 6.62891 174.393 8.12461 172.142 10.5436C169.983 12.8655 168.614 16.0386 168.508 19.5526L169.763 19.5526C169.869 16.4094 171.098 13.5748 173.029 11.4968C175.051 9.32166 177.845 7.97778 180.932 7.97778C184.019 7.97778 186.812 9.32415 188.834 11.4968C190.766 13.5748 191.996 16.4094 192.1 19.5526L193.356 19.5526C193.249 16.0386 191.88 12.8655 189.722 10.5436C187.473 8.12461 184.364 6.62891 180.932 6.62891L180.934 6.62891Z" fill="rgb(0,0,0)" fill-rule="evenodd" />
	<path id="Vector" d="M192.1 19.5526C191.996 16.4094 190.766 13.5748 188.834 11.4968C186.812 9.32415 184.019 7.97778 180.932 7.97778C177.845 7.97778 175.051 9.32166 173.029 11.4968C171.098 13.5748 169.869 16.4094 169.763 19.5526L168.508 19.5526C168.518 19.216 168.54 18.8825 168.573 18.5526C168.884 15.4385 170.19 12.6431 172.142 10.5436C174.393 8.12525 177.498 6.62971 180.932 6.62891L180.934 6.62891C184.365 6.62971 187.474 8.12525 189.722 10.5436C191.674 12.6431 192.98 15.4385 193.291 18.5526C193.324 18.8825 193.345 19.216 193.356 19.5526L192.1 19.5526Z" fill="rgb(0,0,0)" fill-rule="evenodd" />
	<path id="Vector" d="M57.4854 0L55.4768 0L55.4768 19.556L57.4854 19.556L57.4854 0Z" fill="rgb(0,0,0)" fill-rule="evenodd" />
	<path id="Vector" d="M55.4768 0L57.4854 0L57.4854 19.556L55.4768 19.556L55.4768 0ZM56.4854 1L56.4768 1L56.4768 18.556L56.4854 18.556L56.4854 1Z" fill="rgb(0,0,0)" fill-rule="evenodd" />
	<path id="Vector" d="M86.2346 16.7388L65.9031 0L65.8668 0L64.7819 0L63.8582 0L63.8582 19.5535L65.8668 19.5535L65.8668 2.92917L86.2095 19.5535L86.348 19.5535L88.2409 19.5535L88.2409 0L86.2346 0L86.2346 16.7388Z" fill="rgb(0,0,0)" fill-rule="evenodd" />
	<path id="Vector" d="M85.2346 15.9155L65.9031 0L63.8582 0L63.8582 19.5535L65.8668 19.5535L65.8668 2.92917L86.2095 19.5535L88.2409 19.5535L88.2409 0L86.2346 0L86.2346 16.7388L85.2346 15.9155ZM87.2346 1L87.2346 18.5535L87.2409 18.5535L87.2409 1L87.2346 1ZM86.8654 18.5535L65.5444 1L65.0864 1L86.5662 18.5535L86.8654 18.5535ZM64.8668 1L64.8582 1L64.8582 18.5535L64.8668 18.5535L64.8668 1Z" fill="rgb(0,0,0)" fill-rule="evenodd" />
	<path id="Vector" d="M156.569 0L153.57 0L137.808 16.2162L137.808 0L135.799 0L135.799 19.5535L136.635 19.5535L136.635 19.556L137.737 19.556L137.737 19.5535L137.808 19.5535L137.808 19.4814L146.639 10.3106L154.644 19.556L157.425 19.556L148.105 8.79L156.569 0Z" fill="rgb(0,0,0)" fill-rule="evenodd" />
	<path id="Vector" d="M148.105 8.79L155.606 1L156.569 0L153.57 0L138.808 15.1874L137.808 16.2162L137.808 0L135.799 0L135.799 19.5535L136.635 19.5535L136.635 19.556L137.737 19.556L137.737 19.5535L137.808 19.5535L137.808 19.4814L145.943 11.0339L146.639 10.3106L147.296 11.0697L154.644 19.556L157.425 19.556L156.559 18.556L148.105 8.79ZM155.236 18.556L146.752 8.75414L154.218 1L153.993 1L136.931 18.5535L137.313 18.5535L146.678 8.82818L155.101 18.556L155.236 18.556ZM136.808 18.5535L136.808 1L136.799 1L136.799 18.5535L136.808 18.5535Z" fill="rgb(0,0,0)" fill-rule="evenodd" />
	<path id="Vector" d="M112.023 0.283203C102.066 0.283203 93.9635 8.86416 93.7158 19.553L95.825 19.553C96.0718 10.1209 103.23 2.55786 112.023 2.55786C120.816 2.55786 127.975 10.1209 128.221 19.553L130.33 19.553C130.083 8.86416 121.98 0.283203 112.023 0.283203Z" fill="rgb(0,0,0)" fill-rule="evenodd" />
	<path id="Vector" d="M93.7622 18.553C94.474 8.33398 102.379 0.283203 112.023 0.283203C121.668 0.283203 129.572 8.33398 130.284 18.553C130.307 18.8841 130.323 19.2175 130.33 19.553L128.221 19.553C127.975 10.1209 120.816 2.55786 112.023 2.55786C103.23 2.55786 96.0718 10.1209 95.825 19.553L93.7158 19.553C93.7236 19.2175 93.7391 18.8841 93.7622 18.553ZM94.7641 18.553L94.8739 18.553C94.9624 17.3556 95.1562 16.1857 95.4554 15.0435C95.6783 14.1922 95.9598 13.3563 96.2997 12.5356C96.8818 11.1306 97.6091 9.8318 98.4817 8.6393C98.9451 8.00597 99.4494 7.40262 99.9948 6.82924C101.095 5.67278 102.304 4.69844 103.623 3.9062C104.197 3.56102 104.793 3.25041 105.409 2.97437C106.502 2.48438 107.622 2.1215 108.768 1.88575C109.831 1.66716 110.916 1.55786 112.023 1.55786C113.131 1.55786 114.216 1.66717 115.278 1.88578C116.424 2.12153 117.544 2.4844 118.638 2.97438C119.254 3.25042 119.849 3.56105 120.424 3.90624C121.742 4.69847 122.952 5.6728 124.052 6.82924C124.597 7.40267 125.101 8.00609 125.565 8.63949C126.437 9.83194 127.165 11.1307 127.747 12.5356C128.087 13.3562 128.368 14.192 128.591 15.0432C128.89 16.1856 129.084 17.3555 129.172 18.553L129.282 18.553C129.192 17.2994 128.989 16.0757 128.673 14.8819C128.451 14.0444 128.174 13.2216 127.841 12.4134C127.236 10.9449 126.477 9.59092 125.562 8.35139C125.11 7.73893 124.62 7.15443 124.092 6.59788C122.946 5.38893 121.683 4.37753 120.303 3.56367C119.766 3.24695 119.212 2.96014 118.64 2.70326C117.54 2.20956 116.414 1.8446 115.262 1.60836C114.205 1.39159 113.125 1.2832 112.023 1.2832C110.921 1.2832 109.842 1.39159 108.784 1.60837C107.632 1.84461 106.506 2.20957 105.407 2.70326C104.834 2.96013 104.28 3.24692 103.743 3.56362C102.364 4.37749 101.101 5.38891 99.9542 6.59788C99.4263 7.1545 98.9364 7.73908 98.4843 8.35162C97.5696 9.59109 96.8099 10.945 96.2054 12.4134C95.8727 13.2215 95.5955 14.0443 95.3738 14.8817C95.0578 16.0756 94.8546 17.2994 94.7641 18.553Z" fill="rgb(0,0,0)" fill-rule="evenodd" />
	<path id="Vector" d="M112.023 6.62891C108.589 6.62891 105.482 8.12461 103.231 10.5436C101.073 12.8655 99.7041 16.0386 99.5977 19.5526L100.853 19.5526C100.959 16.4094 102.187 13.5748 104.119 11.4968C106.141 9.32166 108.934 7.97778 112.023 7.97778C115.112 7.97778 117.904 9.32415 119.929 11.4968C121.86 13.5748 123.088 16.4094 123.195 19.5526L124.45 19.5526C124.344 16.0386 122.975 12.8655 120.816 10.5436C118.566 8.12461 115.457 6.62891 112.026 6.62891L112.023 6.62891Z" fill="rgb(0,0,0)" fill-rule="evenodd" />
	<path id="Vector" d="M103.231 10.5436C105.482 8.12461 108.589 6.62891 112.023 6.62891L112.026 6.62891C115.457 6.62891 118.566 8.12461 120.816 10.5436C122.768 12.6431 124.074 15.4385 124.385 18.5526C124.418 18.8825 124.44 19.216 124.45 19.5526L123.195 19.5526C123.088 16.4094 121.86 13.5748 119.929 11.4968C117.904 9.32415 115.112 7.97778 112.023 7.97778C108.934 7.97778 106.141 9.32166 104.119 11.4968C102.187 13.5748 100.959 16.4094 100.853 19.5526L99.5977 19.5526C99.6078 19.216 99.6296 18.8825 99.6626 18.5526C99.9736 15.4385 101.28 12.6431 103.231 10.5436Z" fill="rgb(0,0,0)" fill-rule="evenodd" />
	<path id="Vector" d="M38.4046 0L35.8627 0L35.3996 0L25.3632 17.0897L14.9547 0L14.4894 0L11.9474 0L11.9111 0L0 19.5535L2.58059 19.5535L13.2184 2.088L23.8584 19.5535L23.9152 19.5535L26.8635 19.5535L26.9225 19.5535L37.1563 2.12532L47.7715 19.5535L50.352 19.5535L38.4409 0L38.4046 0Z" fill="rgb(0,0,0)" fill-rule="evenodd" />
	<path id="Vector" d="M37.7468 3.09471L47.7715 19.5535L50.352 19.5535L49.7429 18.5535L38.4409 0L35.3996 0L25.938 16.111L25.3632 17.0897L24.7728 16.1203L14.9547 0L11.9111 0L0 19.5535L2.58059 19.5535L12.633 3.04915L13.2184 2.088L13.8039 3.0491L23.8584 19.5535L26.9225 19.5535L36.5816 3.10409L37.1563 2.12532L37.7468 3.09471ZM26.35 18.5535L36.6575 1L35.9721 1L25.6632 18.5535L26.35 18.5535ZM25.0839 18.5535L14.3929 1L13.7266 1L24.4202 18.5535L25.0839 18.5535ZM12.7102 1L12.4729 1L1.78008 18.5535L2.01878 18.5535L12.7102 1ZM37.6418 1L48.3333 18.5535L48.5719 18.5535L37.8791 1L37.6418 1Z" fill="rgb(0,0,0)" fill-rule="evenodd" />
</svg>
