<svg width="160" height="50" viewBox="0 0 160 50" fill="none" xmlns="http://www.w3.org/2000/svg">
<g clip-path="url(#clip0_7489_19688)">
<path d="M159.692 27.1406H52.6037V27.7685H159.692V27.1406Z" fill="#6E6F71"/>
<path d="M13.7674 35.4755C21.0013 25.1148 29.0266 14.2591 36.5687 4.08825C35.3153 1.66242 32.7872 0 29.8642 0H7.54353C3.37815 0 0 3.37383 0 7.53221V42.3685C0 46.5268 3.37815 49.8993 7.54353 49.8993H11.4834C8.70588 43.104 5.64269 36.3087 1.70992 29.5107C6.82219 31.2262 10.7032 33.248 13.7674 35.4755Z" fill="#214189"/>
<path d="M15.08 49.9011H29.8642C34.0309 49.9011 37.4091 46.5287 37.4091 42.3703V7.53403C37.4091 7.36624 37.3936 7.20249 37.3839 7.03906C30.2645 19.5951 22.5519 32.6011 15.08 49.9011Z" fill="#214189"/>
<path d="M57.8854 3.15625H54.2158V19.8146H57.8854V3.15625Z" fill="#214189"/>
<path d="M63.6108 14.2911C63.6108 16.5086 65.3388 17.3713 67.3025 17.3713C68.5883 17.3713 70.5506 16.9978 70.5506 15.2948C70.5506 13.476 68.0266 13.2173 65.5966 12.5418C63.119 11.9351 60.6192 10.8851 60.6192 7.80623C60.6192 4.37636 63.843 2.76562 66.8585 2.76562C70.3402 2.76562 73.5419 4.28274 73.5419 8.13341H69.9903C69.874 6.14918 68.4706 5.61227 66.6948 5.61227C65.5267 5.61227 64.1708 6.10187 64.1708 7.50287C64.1708 8.78475 64.9651 8.97234 69.1486 10.0223C70.3866 10.3019 74.1035 11.1186 74.1035 14.8757C74.1035 17.9321 71.72 20.218 67.1624 20.218C63.4693 20.218 59.9876 18.3975 60.0575 14.2911H63.6108Z" fill="#214189"/>
<path d="M83.755 17.1378C87.0477 17.1378 88.2871 14.3384 88.2871 11.5616C88.2871 8.64516 87.0477 5.84583 83.755 5.84583C80.4578 5.84583 79.2212 8.64516 79.2212 11.5616C79.2212 14.3384 80.4578 17.1378 83.755 17.1378ZM83.755 2.76562C88.8965 2.76562 91.9567 6.6163 91.9567 11.5616C91.9567 16.3686 88.8965 20.218 83.755 20.218C78.6135 20.218 75.5506 16.3686 75.5506 11.5616C75.5506 6.6163 78.6135 2.76562 83.755 2.76562Z" fill="#214189"/>
<path d="M108.291 8.91967C108.291 7.40289 107.335 5.88578 105.653 5.88578C104.063 5.88578 103.151 7.38041 103.151 8.87236C103.151 10.413 103.946 11.9526 105.653 11.9526C107.427 11.9526 108.291 10.5291 108.291 8.91967ZM103.269 15.616C103.478 16.712 104.319 17.6445 105.465 17.6445C107.895 17.6445 108.479 14.472 108.597 12.6754L108.55 12.6291C107.639 13.9351 106.447 14.4482 104.857 14.4482C103.455 14.4482 102.031 13.7955 101.095 12.769C100.23 11.765 99.8319 10.4354 99.8319 9.1294C99.8319 5.79182 102.123 3.15625 105.559 3.15625C110.513 3.15625 111.845 7.47269 111.845 11.6016C111.845 15.616 110.07 20.1418 105.419 20.1418C102.591 20.1418 100.487 18.5086 100.114 15.616H103.269Z" fill="#214189"/>
<path d="M118.809 17.4109C121.521 17.4109 121.521 13.422 121.521 11.5777C121.521 9.87471 121.521 5.88578 118.809 5.88578C116.122 5.88578 116.146 9.87471 116.146 11.5777C116.146 13.422 116.146 17.4109 118.809 17.4109ZM118.809 3.15625C122.081 3.15625 124.839 5.21028 124.839 11.5777C124.839 18.0878 122.081 20.1418 118.809 20.1418C115.562 20.1418 112.828 18.0878 112.828 11.5777C112.828 5.21028 115.562 3.15625 118.809 3.15625Z" fill="#214189"/>
<path d="M131.803 17.4109C134.514 17.4109 134.514 13.422 134.514 11.5777C134.514 9.87471 134.514 5.88578 131.803 5.88578C129.115 5.88578 129.139 9.87471 129.139 11.5777C129.139 13.422 129.139 17.4109 131.803 17.4109ZM131.803 3.15625C135.074 3.15625 137.832 5.21028 137.832 11.5777C137.832 18.0878 135.074 20.1418 131.803 20.1418C128.553 20.1418 125.819 18.0878 125.819 11.5777C125.819 5.21028 128.553 3.15625 131.803 3.15625Z" fill="#214189"/>
<path d="M147.485 19.8169H144.165V9.22397H140.053V6.72833C142.367 6.79813 144.469 5.98169 144.843 3.48438H147.485V19.8169Z" fill="#214189"/>
<path d="M53.6696 45.053C53.7254 44.4057 53.7674 43.7036 53.7956 42.953C53.8235 42.202 53.8377 41.3909 53.8377 40.5201C53.8377 39.5453 53.8249 38.6953 53.7997 37.9627C53.7731 37.2315 53.7298 36.5657 53.6696 35.9688C53.7815 35.9855 53.9019 35.9983 54.0292 36.008C54.1583 36.0164 54.2955 36.0218 54.444 36.0218C54.5953 36.0218 54.7355 36.0164 54.8629 36.008C54.9903 35.9983 55.1119 35.9855 55.2242 35.9688C55.1933 36.4932 55.1708 37.0369 55.1556 37.606C55.1402 38.1724 55.1331 38.8295 55.1331 39.5721C55.1331 40.8107 55.1371 41.8077 55.1455 42.5641C55.154 43.3234 55.1667 43.9161 55.1849 44.3456H56.5308C56.8965 44.3456 57.2605 44.3271 57.6276 44.2909C57.9943 44.2533 58.3613 44.1973 58.7297 44.1258C58.717 44.203 58.7072 44.2825 58.7015 44.3624C58.6948 44.4406 58.6904 44.5218 58.6904 44.5986C58.6904 44.6812 58.6948 44.7594 58.7015 44.8322C58.7072 44.9047 58.717 44.9788 58.7297 45.053C58.3348 45.0419 57.9328 45.0305 57.5197 45.0234C57.1079 45.0167 56.6904 45.0137 56.2649 45.0137C55.8447 45.0137 55.4161 45.0167 54.9832 45.0234C54.5489 45.0305 54.1119 45.0419 53.6696 45.053Z" fill="#6E6F71"/>
<path d="M59.8094 45.053C59.8656 44.4057 59.9076 43.7036 59.9355 42.953C59.965 42.202 59.9792 41.3909 59.9792 40.5201C59.9792 39.5453 59.965 38.6953 59.9398 37.9627C59.9133 37.2315 59.8713 36.5657 59.8094 35.9688C59.9217 35.9855 60.0434 35.9983 60.1708 36.008C60.2985 36.0164 60.4356 36.0218 60.5825 36.0218C60.7355 36.0218 60.8753 36.0164 61.0027 36.008C61.1318 35.9983 61.2508 35.9855 61.364 35.9688C61.3348 36.4932 61.3109 37.0369 61.2968 37.606C61.28 38.1724 61.2733 38.8295 61.2733 39.5721C61.2733 40.8107 61.2773 41.8077 61.2857 42.5641C61.2941 43.3234 61.3082 43.9161 61.325 44.3456H62.6723C63.0363 44.3456 63.402 44.3271 63.7674 44.2909C64.1345 44.2533 64.5015 44.1973 64.8699 44.1258C64.8585 44.203 64.8474 44.2825 64.8403 44.3624C64.8346 44.4406 64.8319 44.5218 64.8319 44.5986C64.8319 44.6812 64.8346 44.7594 64.8403 44.8322C64.8474 44.9047 64.8585 44.9788 64.8699 45.053C64.4763 45.0419 64.0729 45.0305 63.6612 45.0234C63.2481 45.0167 62.8293 45.0137 62.4047 45.0137C61.9845 45.0137 61.5573 45.0167 61.1234 45.0234C60.6904 45.0305 60.2521 45.0419 59.8094 45.053Z" fill="#6E6F71"/>
<path d="M68.2071 41.25H64.9943V42.3909H68.2071V41.25Z" fill="#6E6F71"/>
<path d="M77.0336 37.866H76.8908C76.5966 37.3723 76.2269 37.0059 75.7815 36.767C75.3375 36.5264 74.8094 36.4062 74.199 36.4062C73.1455 36.4062 72.3193 36.7626 71.7227 37.4787C71.1274 38.1901 70.8292 39.1787 70.8292 40.4455C70.8292 41.7039 71.1402 42.7079 71.762 43.4502C72.3852 44.1955 73.2158 44.5676 74.2565 44.5676C74.7939 44.5676 75.3012 44.4569 75.7758 44.2347C76.2508 44.0109 76.7032 43.6683 77.1318 43.2099L77.2817 43.2811C77.2424 43.4559 77.2114 43.6334 77.1906 43.8153C77.1694 43.9972 77.1526 44.1857 77.1455 44.38C76.6289 44.6696 76.1106 44.8847 75.5896 45.026C75.0699 45.1659 74.5321 45.2371 73.9775 45.2371C72.521 45.2371 71.3768 44.8163 70.5462 43.972C69.7156 43.126 69.3012 41.971 69.3012 40.5042C69.3012 39.0529 69.7382 37.9092 70.6108 37.0747C71.4847 36.2398 72.6807 35.8203 74.199 35.8203C74.7284 35.8203 75.2534 35.8804 75.7788 35.9965C76.3039 36.1126 76.843 36.2928 77.3993 36.5361C77.3082 36.718 77.2326 36.9166 77.1751 37.1361C77.1163 37.3555 77.0699 37.5988 77.0336 37.866Z" fill="#6E6F71"/>
<path d="M84.7886 46.8482C84.0084 46.0556 83.4259 45.2039 83.046 44.2952C82.6639 43.3835 82.4719 42.3965 82.4719 41.3311C82.4719 40.2573 82.6639 39.2616 83.0491 38.3499C83.4312 37.4341 84.0111 36.5841 84.7886 35.7969C84.8262 35.8697 84.8699 35.9311 84.9146 35.9828C84.9607 36.0361 85.0128 36.0794 85.0672 36.113C84.5321 36.8022 84.1287 37.5811 83.8612 38.4506C83.5966 39.3177 83.4622 40.2794 83.4622 41.3311C83.4622 42.3798 83.5966 43.3388 83.8612 44.2073C84.1287 45.0741 84.5321 45.8543 85.0672 46.5422C85.007 46.5798 84.9539 46.6247 84.9089 46.672C84.8628 46.7197 84.8235 46.7798 84.7886 46.8482Z" fill="#6E6F71"/>
<path d="M93.9805 37.866H93.8377C93.5422 37.3723 93.1724 37.0059 92.7284 36.767C92.2844 36.5264 91.7563 36.4062 91.1429 36.4062C90.0898 36.4062 89.2649 36.7626 88.6696 37.4787C88.0743 38.1901 87.7745 39.1787 87.7745 40.4455C87.7745 41.7039 88.0854 42.7079 88.7086 43.4502C89.3291 44.1955 90.161 44.5676 91.203 44.5676C91.7395 44.5676 92.2464 44.4569 92.7214 44.2347C93.1973 44.0109 93.6484 43.6683 94.0783 43.2099L94.2269 43.2811C94.1876 43.4559 94.1583 43.6334 94.1358 43.8153C94.1133 43.9972 94.0995 44.1857 94.0911 44.38C93.5758 44.6696 93.0561 44.8847 92.5351 45.026C92.0155 45.1659 91.4777 45.2371 90.923 45.2371C89.4666 45.2371 88.3234 44.8163 87.4918 43.972C86.6625 43.126 86.2451 41.971 86.2451 40.5042C86.2451 39.0529 86.6834 37.9092 87.5573 37.0747C88.4299 36.2398 89.6262 35.8203 91.1429 35.8203C91.6736 35.8203 92.2003 35.8804 92.724 35.9965C93.2494 36.1126 93.7886 36.2928 94.3445 36.5361C94.2535 36.718 94.1778 36.9166 94.119 37.1361C94.0615 37.3555 94.0155 37.5988 93.9805 37.866Z" fill="#6E6F71"/>
<path d="M96.4326 41.2576H97.077C97.4242 41.2576 98.0699 41.2492 99.0141 41.2368C99.2884 41.2368 99.4971 41.2351 99.6457 41.2297C99.6541 41.1542 99.6612 41.0814 99.6652 41.017C99.6696 40.9515 99.6723 40.8941 99.6723 40.8478C99.6723 40.2955 99.5321 39.8579 99.2521 39.528C98.9721 39.1995 98.6023 39.0358 98.1428 39.0358C97.636 39.0358 97.2353 39.226 96.9425 39.6062C96.6497 39.9881 96.4803 40.5361 96.4326 41.2576ZM96.3993 41.8015L96.3923 41.9247C96.3923 42.7915 96.5839 43.4626 96.9664 43.9381C97.3472 44.4146 97.885 44.6512 98.5785 44.6512C98.9916 44.6512 99.3654 44.5784 99.7045 44.4274C100.042 44.2804 100.315 44.068 100.522 43.7955L100.699 43.8401C100.678 43.928 100.66 44.026 100.643 44.1395C100.63 44.2525 100.611 44.4092 100.588 44.6062C100.259 44.8106 99.8965 44.9629 99.5028 45.0663C99.1092 45.1727 98.6891 45.2243 98.2464 45.2243C97.2507 45.2243 96.4692 44.9364 95.9062 44.3576C95.3402 43.7787 95.0588 42.9801 95.0588 41.965C95.0588 40.922 95.3402 40.0844 95.9032 39.4582C96.4635 38.829 97.2158 38.5156 98.157 38.5156C99.0363 38.5156 99.724 38.7717 100.223 39.2888C100.717 39.8049 100.966 40.518 100.966 41.4324C100.966 41.5401 100.965 41.621 100.964 41.6757C100.961 41.7301 100.958 41.7804 100.952 41.828H100.829C99.5812 41.7931 98.6652 41.775 98.0854 41.775C97.8766 41.775 97.6511 41.7777 97.4104 41.7821C97.1707 41.7874 96.8333 41.7931 96.3993 41.8015Z" fill="#6E6F71"/>
<path d="M102.184 45.0497C102.216 44.7729 102.244 44.3366 102.261 43.7383C102.277 43.1396 102.287 42.1735 102.287 40.8356C102.287 40.2776 102.277 39.8457 102.261 39.542C102.244 39.24 102.216 38.9507 102.175 38.6796C102.284 38.6977 102.396 38.7101 102.511 38.7185C102.626 38.7269 102.751 38.7313 102.885 38.7313C103.015 38.7313 103.138 38.7269 103.253 38.7185C103.368 38.7101 103.475 38.6977 103.574 38.6796C103.541 38.9088 103.513 39.1198 103.497 39.3172C103.48 39.5115 103.472 39.693 103.472 39.8625V40.0245C103.731 39.5168 104.031 39.1423 104.372 38.896C104.712 38.6527 105.108 38.5312 105.559 38.5312C105.641 38.5312 105.703 38.5313 105.745 38.5339C105.786 38.5353 105.826 38.541 105.866 38.5494C105.846 38.7004 105.835 38.8235 105.826 38.9158C105.818 39.0094 105.814 39.096 105.814 39.1729C105.814 39.3031 105.831 39.5084 105.866 39.7896L105.871 39.8219C105.658 39.7702 105.48 39.7349 105.337 39.7128C105.195 39.6903 105.073 39.6792 104.973 39.6792C104.774 39.6792 104.586 39.7182 104.405 39.7967C104.224 39.8749 104.069 39.9839 103.94 40.1279C103.762 40.3222 103.635 40.5349 103.559 40.7641C103.483 40.9933 103.444 41.3235 103.444 41.75V43.1396C103.448 43.4222 103.462 43.7229 103.485 44.0443C103.504 44.3631 103.532 44.7 103.562 45.0497C103.398 45.0245 103.262 45.0064 103.151 44.998C103.043 44.9896 102.941 44.9853 102.847 44.9853C102.741 44.9853 102.637 44.9923 102.531 45.0021C102.424 45.0118 102.31 45.0286 102.184 45.0497Z" fill="#6E6F71"/>
<path d="M107.321 39.2583H107.133C106.986 39.2583 106.836 39.2667 106.683 39.2794C106.532 39.2918 106.381 39.313 106.23 39.3381C106.238 39.2945 106.242 39.2499 106.248 39.2039C106.252 39.1589 106.253 39.0918 106.253 39.0066C106.253 38.9116 106.252 38.8432 106.248 38.7982C106.242 38.7563 106.238 38.7156 106.23 38.6821C106.402 38.7073 106.58 38.7284 106.76 38.7438C106.94 38.7593 107.126 38.766 107.321 38.766V38.267C107.321 38.1579 107.315 38.018 107.305 37.8448C107.293 37.67 107.28 37.4784 107.263 37.266C107.501 37.1958 107.734 37.112 107.959 37.0099C108.185 36.9066 108.401 36.7891 108.609 36.6562C108.566 36.9764 108.533 37.2616 108.513 37.512C108.49 37.765 108.479 37.9774 108.479 38.1552V38.766C108.765 38.766 109.028 38.7593 109.266 38.7438C109.506 38.7284 109.727 38.7059 109.93 38.6754C109.92 38.762 109.916 38.8291 109.912 38.8767C109.906 38.9254 109.904 38.9673 109.904 39.0066C109.904 39.071 109.912 39.1687 109.923 39.2989C109.927 39.3214 109.93 39.3324 109.93 39.3381C109.731 39.313 109.528 39.2918 109.322 39.2794C109.115 39.2667 108.912 39.2583 108.707 39.2583H108.466L108.401 42.5203V42.8391C108.401 43.5311 108.48 43.9995 108.639 44.2401C108.798 44.4821 109.076 44.6036 109.475 44.6036C109.539 44.6036 109.619 44.5995 109.709 44.5911C109.8 44.5828 109.92 44.5646 110.073 44.5395L110.08 44.9938C109.871 45.0623 109.668 45.1153 109.468 45.1546C109.269 45.1895 109.071 45.2089 108.875 45.2089C108.308 45.2089 107.889 45.0566 107.625 44.7546C107.357 44.4512 107.224 43.9774 107.224 43.3314C107.224 43.1495 107.233 42.8281 107.249 42.3609C107.268 41.8952 107.279 41.526 107.283 41.2549L107.321 39.2583Z" fill="#6E6F71"/>
<path d="M111.108 45.0513C111.138 44.6737 111.161 44.1744 111.176 43.5482C111.192 42.9231 111.2 42.1429 111.2 41.2076C111.2 40.5966 111.192 40.1002 111.176 39.717C111.161 39.3338 111.138 38.9885 111.108 38.6811C111.207 38.6992 111.312 38.7117 111.42 38.7201C111.528 38.7284 111.646 38.7328 111.772 38.7328C111.898 38.7328 112.017 38.7284 112.13 38.7201C112.242 38.7117 112.349 38.6992 112.447 38.6811C112.417 38.962 112.395 39.2667 112.378 39.5939C112.365 39.9211 112.357 40.4009 112.357 41.0398C112.357 41.9261 112.365 42.6996 112.378 43.358C112.395 44.015 112.417 44.5788 112.447 45.0513C112.321 45.0301 112.203 45.0133 112.094 45.0036C111.982 44.9939 111.875 44.9868 111.772 44.9868C111.668 44.9868 111.56 44.9939 111.455 45.0036C111.35 45.0133 111.233 45.0301 111.108 45.0513ZM111.076 36.4355C111.076 36.216 111.144 36.0385 111.287 35.8986C111.427 35.7573 111.608 35.6875 111.824 35.6875C112.067 35.6875 112.255 35.7546 112.392 35.8888C112.529 36.0231 112.598 36.2076 112.598 36.4452C112.598 36.6593 112.532 36.8298 112.402 36.957C112.272 37.0841 112.097 37.1486 111.875 37.1486C111.632 37.1486 111.437 37.0841 111.293 36.9543C111.147 36.8241 111.076 36.6509 111.076 36.4355Z" fill="#6E6F71"/>
<path d="M114.633 45.0516C114.668 44.7063 114.693 44.3191 114.707 43.8895C114.723 43.4603 114.731 42.7905 114.731 41.8761V39.2281H114.587C114.458 39.2281 114.312 39.2352 114.156 39.2489C113.997 39.2644 113.818 39.2882 113.618 39.3191C113.628 39.2617 113.636 39.2056 113.646 39.1496C113.653 39.0926 113.657 39.0392 113.657 38.9875C113.657 38.9345 113.653 38.8828 113.646 38.8281C113.636 38.7738 113.628 38.7248 113.618 38.6815C113.744 38.6996 113.877 38.712 114.014 38.7204C114.154 38.7288 114.305 38.7332 114.471 38.7332H114.731C114.769 37.7238 115.036 36.8624 115.529 36.1493C116.025 35.4348 116.567 35.0781 117.157 35.0781C117.256 35.0781 117.354 35.0838 117.45 35.0976C117.545 35.109 117.641 35.1298 117.742 35.155C117.707 35.3157 117.677 35.4936 117.648 35.6835C117.62 35.8778 117.592 36.0905 117.567 36.3241C117.401 36.2553 117.244 36.2036 117.092 36.1687C116.94 36.1338 116.797 36.1157 116.663 36.1157C116.35 36.1157 116.115 36.205 115.957 36.3815C115.798 36.556 115.719 36.8174 115.719 37.1671C115.719 37.2553 115.724 37.3503 115.732 37.4536C115.741 37.5573 115.754 37.6664 115.77 37.7795L115.908 38.7332H116.227C116.43 38.7332 116.625 38.7288 116.808 38.7204C116.993 38.712 117.176 38.6996 117.359 38.6815C117.34 38.7288 117.328 38.7778 117.319 38.8295C117.311 38.8828 117.307 38.9399 117.307 39.0003C117.307 39.0617 117.311 39.1177 117.319 39.1694C117.328 39.2211 117.339 39.2701 117.352 39.3191C117.099 39.2882 116.873 39.2644 116.665 39.2489C116.459 39.2352 116.269 39.2281 116.091 39.2281H115.908V41.4734C115.908 42.1462 115.916 42.7822 115.927 43.3795C115.94 43.9791 115.959 44.5355 115.986 45.0516C115.861 45.0335 115.744 45.0167 115.632 45.004C115.521 44.9942 115.414 44.9872 115.31 44.9872C115.206 44.9872 115.098 44.9942 114.986 45.004C114.873 45.0137 114.755 45.0305 114.633 45.0516Z" fill="#6E6F71"/>
<path d="M118.315 45.0513C118.345 44.6737 118.368 44.1744 118.383 43.5482C118.398 42.9231 118.406 42.1429 118.406 41.2076C118.406 40.5966 118.398 40.1002 118.383 39.717C118.368 39.3338 118.345 38.9885 118.315 38.6811C118.414 38.6992 118.52 38.7117 118.626 38.7201C118.735 38.7284 118.851 38.7328 118.977 38.7328C119.104 38.7328 119.223 38.7284 119.335 38.7201C119.45 38.7117 119.555 38.6992 119.655 38.6811C119.625 38.962 119.601 39.2667 119.587 39.5939C119.57 39.9211 119.564 40.4009 119.564 41.0398C119.564 41.9261 119.57 42.6996 119.587 43.358C119.601 44.015 119.625 44.5788 119.655 45.0513C119.529 45.0301 119.412 45.0133 119.3 45.0036C119.191 44.9939 119.083 44.9868 118.977 44.9868C118.874 44.9868 118.769 44.9939 118.663 45.0036C118.555 45.0133 118.44 45.0301 118.315 45.0513ZM118.282 36.4355C118.282 36.216 118.353 36.0385 118.494 35.8986C118.635 35.7573 118.812 35.6875 119.029 35.6875C119.272 35.6875 119.464 35.7546 119.601 35.8888C119.737 36.0231 119.805 36.2076 119.805 36.4452C119.805 36.6593 119.739 36.8298 119.608 36.957C119.48 37.0841 119.304 37.1486 119.083 37.1486C118.84 37.1486 118.646 37.0841 118.5 36.9543C118.356 36.8241 118.282 36.6509 118.282 36.4355Z" fill="#6E6F71"/>
<path d="M126.504 43.851L126.622 43.8762L126.518 44.6379C126.26 44.8185 125.95 44.9597 125.58 45.0574C125.211 45.1581 124.804 45.2084 124.359 45.2084C123.37 45.2084 122.571 44.9107 121.964 44.3138C121.356 43.7195 121.053 42.9393 121.053 41.9732C121.053 40.8866 121.365 40.0366 121.992 39.4215C122.615 38.8074 123.479 38.5 124.586 38.5C124.993 38.5 125.377 38.5446 125.732 38.6329C126.091 38.7221 126.42 38.851 126.72 39.0171C126.658 39.1919 126.605 39.3809 126.556 39.5822C126.51 39.7876 126.471 40.0087 126.438 40.2463H126.277C126.174 39.8352 125.985 39.5248 125.714 39.3178C125.443 39.1111 125.092 39.006 124.664 39.006C123.958 39.006 123.407 39.252 123.015 39.7443C122.623 40.2352 122.426 40.9232 122.426 41.8107C122.426 42.6987 122.634 43.3909 123.048 43.8899C123.461 44.3862 124.038 44.6379 124.776 44.6379C125.14 44.6379 125.467 44.5708 125.756 44.4383C126.048 44.3054 126.297 44.1111 126.504 43.851Z" fill="#6E6F71"/>
<path d="M131.291 41.6872L130.493 41.8439C129.873 41.9613 129.417 42.1318 129.133 42.361C128.846 42.5875 128.705 42.8908 128.705 43.2727C128.705 43.6264 128.801 43.9116 128.997 44.1241C129.192 44.3355 129.456 44.4415 129.786 44.4415C130.242 44.4415 130.608 44.3033 130.881 44.0251C131.155 43.7482 131.291 43.3761 131.291 42.9076V41.6872ZM131.291 44.2348C131.015 44.559 130.703 44.8053 130.361 44.9744C130.02 45.1422 129.653 45.2274 129.263 45.2274C128.717 45.2274 128.275 45.0653 127.935 44.7435C127.599 44.4207 127.429 43.9999 127.429 43.4811C127.429 42.9177 127.573 42.4952 127.861 42.213C128.149 41.9318 128.727 41.6942 129.594 41.5012L130.809 41.2328C131.001 41.1949 131.136 41.1237 131.216 41.0217C131.291 40.9194 131.333 40.7657 131.333 40.5586C131.333 40.0905 131.199 39.7227 130.93 39.4543C130.665 39.1845 130.295 39.0516 129.822 39.0516C129.445 39.0516 129.116 39.1439 128.84 39.3271C128.562 39.513 128.357 39.7687 128.223 40.1043L127.943 39.9982L128.014 39.2781C128.297 39.018 128.613 38.8221 128.969 38.6908C129.325 38.5593 129.721 38.4922 130.154 38.4922C130.961 38.4922 131.541 38.6543 131.893 38.9831C132.248 39.3103 132.425 39.8512 132.425 40.6106V43.7593C132.425 44.0838 132.462 44.2918 132.542 44.3828C132.619 44.4751 132.772 44.52 132.996 44.52H133.048C133.165 44.51 133.276 44.5059 133.38 44.5059V44.7855C133.134 44.8976 132.91 44.9814 132.712 45.0345C132.511 45.0888 132.33 45.117 132.171 45.117C131.908 45.117 131.702 45.0455 131.563 44.9016C131.42 44.7603 131.333 44.5382 131.291 44.2348Z" fill="#6E6F71"/>
<path d="M134.609 39.2583H134.422C134.273 39.2583 134.123 39.2667 133.972 39.2794C133.821 39.2918 133.668 39.313 133.515 39.3381C133.527 39.2945 133.532 39.2499 133.538 39.2039C133.541 39.1589 133.544 39.0918 133.544 39.0066C133.544 38.9116 133.541 38.8432 133.538 38.7982C133.532 38.7563 133.527 38.7156 133.515 38.6821C133.69 38.7073 133.867 38.7284 134.046 38.7438C134.227 38.7593 134.414 38.766 134.609 38.766V38.267C134.609 38.1579 134.604 38.018 134.594 37.8448C134.583 37.67 134.569 37.4784 134.552 37.266C134.79 37.1958 135.021 37.112 135.246 37.0099C135.473 36.9066 135.69 36.7891 135.898 36.6562C135.854 36.9764 135.822 37.2616 135.8 37.512C135.777 37.765 135.767 37.9774 135.767 38.1552V38.766C136.054 38.766 136.317 38.7593 136.555 38.7438C136.793 38.7284 137.014 38.7059 137.22 38.6754C137.209 38.762 137.203 38.8291 137.199 38.8767C137.195 38.9254 137.192 38.9673 137.192 39.0066C137.192 39.071 137.199 39.1687 137.211 39.2989C137.217 39.3214 137.22 39.3324 137.22 39.3381C137.02 39.313 136.816 39.2918 136.609 39.2794C136.405 39.2667 136.199 39.2583 135.996 39.2583H135.755L135.69 42.5203V42.8391C135.69 43.5311 135.769 43.9995 135.927 44.2401C136.085 44.4821 136.363 44.6036 136.762 44.6036C136.828 44.6036 136.906 44.5995 136.996 44.5911C137.088 44.5828 137.209 44.5646 137.361 44.5395L137.367 44.9938C137.16 45.0623 136.957 45.1153 136.756 45.1546C136.557 45.1895 136.359 45.2089 136.164 45.2089C135.595 45.2089 135.179 45.0566 134.912 44.7546C134.646 44.4512 134.511 43.9774 134.511 43.3314C134.511 43.1495 134.52 42.8281 134.539 42.3609C134.555 41.8952 134.566 41.526 134.571 41.2549L134.609 39.2583Z" fill="#6E6F71"/>
<path d="M138.395 45.0513C138.426 44.6737 138.449 44.1744 138.464 43.5482C138.48 42.9231 138.486 42.1429 138.486 41.2076C138.486 40.5966 138.48 40.1002 138.464 39.717C138.449 39.3338 138.426 38.9885 138.395 38.6811C138.496 38.6992 138.599 38.7117 138.707 38.7201C138.816 38.7284 138.933 38.7328 139.059 38.7328C139.186 38.7328 139.304 38.7284 139.417 38.7201C139.531 38.7117 139.636 38.6992 139.737 38.6811C139.706 38.962 139.682 39.2667 139.668 39.5939C139.651 39.9211 139.646 40.4009 139.646 41.0398C139.646 41.9261 139.651 42.6996 139.668 43.358C139.682 44.015 139.706 44.5788 139.737 45.0513C139.611 45.0301 139.493 45.0133 139.382 45.0036C139.27 44.9939 139.164 44.9868 139.059 44.9868C138.957 44.9868 138.85 44.9939 138.744 45.0036C138.636 45.0133 138.521 45.0301 138.395 45.0513ZM138.363 36.4355C138.363 36.216 138.434 36.0385 138.574 35.8986C138.716 35.7573 138.893 35.6875 139.111 35.6875C139.353 35.6875 139.545 35.7546 139.681 35.8888C139.818 36.0231 139.886 36.2076 139.886 36.4452C139.886 36.6593 139.821 36.8298 139.689 36.957C139.562 37.0841 139.385 37.1486 139.164 37.1486C138.92 37.1486 138.727 37.0841 138.581 36.9543C138.437 36.8241 138.363 36.6509 138.363 36.4355Z" fill="#6E6F71"/>
<path d="M146.371 41.8727C146.371 40.9639 146.206 40.2606 145.874 39.7586C145.542 39.2596 145.076 39.0092 144.479 39.0092C143.875 39.0092 143.405 39.2609 143.067 39.7616C142.73 40.265 142.56 40.9683 142.56 41.8727C142.56 42.765 142.73 43.4626 143.07 43.9646C143.41 44.4666 143.88 44.7166 144.479 44.7166C145.074 44.7166 145.536 44.4666 145.87 43.9646C146.204 43.4626 146.371 42.765 146.371 41.8727ZM147.744 41.8727C147.744 42.8851 147.448 43.6962 146.851 44.3015C146.258 44.9082 145.462 45.2116 144.467 45.2116C143.445 45.2116 142.644 44.9139 142.062 44.321C141.479 43.7284 141.186 42.9116 141.186 41.8727C141.186 40.8562 141.485 40.0425 142.081 39.4314C142.678 38.822 143.472 38.5156 144.467 38.5156C145.482 38.5156 146.28 38.8163 146.866 39.4146C147.451 40.0146 147.744 40.8341 147.744 41.8727Z" fill="#6E6F71"/>
<path d="M149.032 45.0482C149.062 44.7029 149.085 44.2455 149.101 43.6821C149.115 43.1173 149.123 42.2952 149.123 41.217C149.123 40.5039 149.115 39.974 149.101 39.6301C149.085 39.2861 149.062 38.9673 149.032 38.678C149.123 38.6962 149.22 38.7086 149.328 38.717C149.434 38.7254 149.549 38.7297 149.67 38.7297C149.782 38.7297 149.891 38.7254 149.994 38.717C150.098 38.7086 150.197 38.6962 150.287 38.678C150.279 38.9854 150.27 39.2176 150.269 39.3727C150.263 39.528 150.261 39.6777 150.255 39.8203C150.52 39.3978 150.846 39.0723 151.231 38.8499C151.616 38.6277 152.05 38.5156 152.531 38.5156C152.861 38.5156 153.165 38.5744 153.445 38.6905C153.725 38.8079 153.958 38.973 154.144 39.1841C154.293 39.3616 154.398 39.5616 154.462 39.7854C154.524 40.0089 154.555 40.367 154.555 40.8619V42.8139C154.555 43.2039 154.56 43.5814 154.571 43.9478C154.583 44.3126 154.598 44.6804 154.621 45.0482C154.497 45.027 154.382 45.0103 154.272 45.0005C154.161 44.9908 154.057 44.9837 153.955 44.9837C153.857 44.9837 153.754 44.9908 153.647 45.0005C153.539 45.0103 153.422 45.027 153.294 45.0482C153.326 44.2958 153.352 43.6962 153.364 43.2458C153.378 42.7985 153.384 42.4056 153.384 42.0686V41.3918C153.384 40.9348 153.36 40.5962 153.312 40.3837C153.265 40.167 153.186 39.9908 153.077 39.8468C152.944 39.6817 152.78 39.5572 152.591 39.4693C152.399 39.3841 152.185 39.3408 151.947 39.3408C151.37 39.3408 150.948 39.5532 150.681 39.9811C150.413 40.4076 150.282 41.0827 150.282 42.0056C150.282 42.6391 150.286 43.1982 150.297 43.6864C150.308 44.1744 150.325 44.6274 150.346 45.0482C150.23 45.0301 150.115 45.0133 150.008 45.0005C149.899 44.9908 149.796 44.9837 149.695 44.9837C149.591 44.9837 149.486 44.9908 149.38 45.0005C149.275 45.0103 149.158 45.027 149.032 45.0482Z" fill="#6E6F71"/>
<path d="M156.431 35.7969C157.211 36.5841 157.79 37.4314 158.168 38.3415C158.549 39.2533 158.737 40.2445 158.737 41.3184C158.737 42.3922 158.546 43.3851 158.165 44.2979C157.786 45.2096 157.209 46.0583 156.438 46.8482C156.403 46.7881 156.363 46.7324 156.317 46.6821C156.268 46.6331 156.21 46.5855 156.142 46.5422C156.683 45.8486 157.084 45.067 157.35 44.2002C157.616 43.3304 157.748 42.3754 157.748 41.3311C157.748 40.2754 157.616 39.3133 157.35 38.4506C157.084 37.5851 156.683 36.8063 156.142 36.113C156.207 36.0751 156.262 36.0291 156.308 35.9757C156.356 35.9254 156.396 35.864 156.431 35.7969Z" fill="#6E6F71"/>
</g>
<defs>
<clipPath id="clip0_7489_19688">
<rect width="160" height="50" fill="white"/>
</clipPath>
</defs>
</svg>
